<svg width="24" height="24" viewBox="0 0 24 24" fill="none" xmlns="http://www.w3.org/2000/svg">
<path fill-rule="evenodd" clip-rule="evenodd" d="M8.01761 4.58247C8.16277 4.43731 8.35965 4.35576 8.56493 4.35576H15.435C15.6403 4.35576 15.8372 4.43731 15.9823 4.58247C16.1275 4.72762 16.2091 4.9245 16.2091 5.12978V6.50356H7.79091V5.12978C7.79091 4.9245 7.87246 4.72762 8.01761 4.58247ZM6.59091 6.50356V5.12978C6.59091 4.60624 6.79889 4.10414 7.16909 3.73394C7.53929 3.36374 8.04139 3.15576 8.56493 3.15576H15.435C15.9586 3.15576 16.4607 3.36374 16.8309 3.73394C17.2011 4.10414 17.4091 4.60624 17.4091 5.12978V6.50356H19.5571C20.6954 6.50356 21.6181 7.42632 21.6181 8.5646V10.7129V11.9129V18.1827C21.6181 19.321 20.6954 20.2438 19.5571 20.2438H4.44287C3.30459 20.2438 2.38184 19.321 2.38184 18.1827V11.9129V10.7129V8.5646C2.38184 7.42632 3.30459 6.50356 4.44287 6.50356H6.59091ZM3.38184 11.9129V18.1827C3.38184 18.7687 3.85688 19.2438 4.44287 19.2438H19.5571C20.1431 19.2438 20.6181 18.7687 20.6181 18.1827V11.9129H15.348V12.3434C15.348 12.5936 15.2486 12.8336 15.0717 13.0106C14.8947 13.1875 14.6547 13.2869 14.4045 13.2869H9.59544C9.34521 13.2869 9.10523 13.1875 8.92829 13.0106C8.75134 12.8336 8.65194 12.5936 8.65194 12.3434V11.9129H3.38184ZM20.6181 10.7129H3.38184V8.5646C3.38184 7.9786 3.85688 7.50356 4.44287 7.50356H19.5571C20.1431 7.50356 20.6181 7.9786 20.6181 8.5646V10.7129ZM9.85194 12.0869V11.9129H14.148V12.0869H9.85194Z" fill="#71717A"/>
</svg>
