<svg width="24" height="24" viewBox="0 0 24 24" fill="none" xmlns="http://www.w3.org/2000/svg">
<path fill-rule="evenodd" clip-rule="evenodd" d="M7.9999 2.3999C8.33127 2.3999 8.5999 2.66853 8.5999 2.9999L8.5999 5.3999H15.3999L15.3999 2.9999C15.3999 2.66853 15.6685 2.3999 15.9999 2.3999C16.3313 2.3999 16.5999 2.66853 16.5999 2.9999L16.5999 5.3999H16.9999L17.0429 5.3999C17.9491 5.39988 18.6897 5.39987 19.2744 5.47848C19.8856 5.56064 20.4154 5.73847 20.8384 6.16142C21.2613 6.58438 21.4392 7.11425 21.5213 7.72541C21.5999 8.31009 21.5999 9.05066 21.5999 9.9569V9.95695V9.9999V10.9999V16.9999V17.0429V17.0429C21.5999 17.9492 21.5999 18.6897 21.5213 19.2744C21.4392 19.8856 21.2613 20.4154 20.8384 20.8384C20.4154 21.2613 19.8856 21.4392 19.2744 21.5213C18.6897 21.5999 17.9492 21.5999 17.0429 21.5999H17.0429H16.9999H6.9999H6.95695H6.9569C6.05066 21.5999 5.31009 21.5999 4.72541 21.5213C4.11425 21.4392 3.58438 21.2613 3.16143 20.8384C2.73847 20.4154 2.56065 19.8856 2.47848 19.2744C2.39987 18.6897 2.39988 17.9491 2.3999 17.0429V17.0429V16.9999V10.9999V9.9999V9.95695V9.95693C2.39988 9.05067 2.39987 8.3101 2.47848 7.72541C2.56065 7.11425 2.73847 6.58438 3.16143 6.16142C3.58438 5.73847 4.11425 5.56064 4.72541 5.47848C5.3101 5.39987 6.05068 5.39988 6.95694 5.3999H6.95695L6.9999 5.3999H7.3999L7.3999 2.9999C7.3999 2.66853 7.66853 2.3999 7.9999 2.3999ZM15.3999 6.5999V6.9999C15.3999 7.33127 15.6685 7.5999 15.9999 7.5999C16.3313 7.5999 16.5999 7.33127 16.5999 6.9999V6.5999H16.9999C17.9597 6.5999 18.6191 6.60118 19.1145 6.66778C19.5926 6.73205 19.827 6.84712 19.9899 7.00995C20.1527 7.17278 20.2678 7.40721 20.332 7.88531C20.3986 8.38066 20.3999 9.04013 20.3999 9.9999V10.3999L3.5999 10.3999V9.9999C3.5999 9.04013 3.60118 8.38066 3.66778 7.88531C3.73206 7.40721 3.84712 7.17278 4.00995 7.00995C4.17279 6.84712 4.40721 6.73205 4.88531 6.66778C5.38066 6.60118 6.04013 6.5999 6.9999 6.5999H7.3999V6.9999C7.3999 7.33127 7.66853 7.5999 7.9999 7.5999C8.33127 7.5999 8.5999 7.33127 8.5999 6.9999V6.5999H15.3999ZM20.3999 11.5999L3.5999 11.5999V16.9999C3.5999 17.9597 3.60118 18.6191 3.66778 19.1145C3.73206 19.5926 3.84712 19.827 4.00995 19.9899C4.17279 20.1527 4.40721 20.2678 4.88531 20.332C5.38066 20.3986 6.04013 20.3999 6.9999 20.3999H16.9999C17.9597 20.3999 18.6191 20.3986 19.1145 20.332C19.5926 20.2678 19.827 20.1527 19.9899 19.9899C20.1527 19.827 20.2678 19.5926 20.332 19.1145C20.3986 18.6191 20.3999 17.9597 20.3999 16.9999V11.5999ZM8.9999 15.3999C8.66853 15.3999 8.3999 15.6685 8.3999 15.9999C8.3999 16.3313 8.66853 16.5999 8.9999 16.5999H14.9999C15.3313 16.5999 15.5999 16.3313 15.5999 15.9999C15.5999 15.6685 15.3313 15.3999 14.9999 15.3999H8.9999Z" fill="#71717A"/>
</svg>
