<svg width="24" height="24" viewBox="0 0 24 24" fill="none" xmlns="http://www.w3.org/2000/svg">
<path fill-rule="evenodd" clip-rule="evenodd" d="M12 21C16.9706 21 21 16.9706 21 12C21 7.02944 16.9706 3 12 3C7.02944 3 3 7.02944 3 12C3 16.9706 7.02944 21 12 21ZM16.3536 16.3536C16.5488 16.1583 16.5488 15.8417 16.3536 15.6464L12.7072 12.0001L16.3537 8.35355C16.549 8.15829 16.549 7.84171 16.3537 7.64645C16.1584 7.45118 15.8419 7.45118 15.6466 7.64645L12.0001 11.293L8.35355 7.64645C8.15829 7.45118 7.84171 7.45118 7.64645 7.64645C7.45118 7.84171 7.45118 8.15829 7.64645 8.35355L11.293 12.0001L7.6466 15.6464C7.45134 15.8417 7.45134 16.1583 7.6466 16.3536C7.84186 16.5488 8.15844 16.5488 8.35371 16.3536L12.0001 12.7072L15.6464 16.3536C15.8417 16.5488 16.1583 16.5488 16.3536 16.3536Z" fill="#71717A"/>
</svg>
