<svg width="24" height="24" viewBox="0 0 24 24" fill="none" xmlns="http://www.w3.org/2000/svg">
<path fill-rule="evenodd" clip-rule="evenodd" d="M7.3859 3.81641C6.75105 3.81641 6.1691 4.17014 5.87681 4.7337L3.42088 9.46884C3.29545 9.71068 3.22998 9.97912 3.22998 10.2516V16.2574C3.22998 16.9919 3.6957 17.6175 4.34793 17.8552C4.36827 18.0331 4.41335 18.2077 4.48215 18.3738C4.51983 18.4647 4.56433 18.5524 4.61519 18.6362C4.69506 18.7678 4.79059 18.8897 4.89993 18.999C5.07889 19.178 5.29135 19.3199 5.52517 19.4168C5.75899 19.5136 6.00961 19.5635 6.2627 19.5635C6.51578 19.5635 6.7664 19.5136 7.00022 19.4168C7.23405 19.3199 7.4465 19.178 7.62546 18.999C7.73481 18.8897 7.83033 18.7678 7.9102 18.6362C7.96106 18.5524 8.00556 18.4647 8.04324 18.3738C8.0988 18.2396 8.1389 18.0999 8.16298 17.9574H16.2633C16.2874 18.0999 16.3275 18.2396 16.383 18.3738C16.4207 18.4647 16.4652 18.5524 16.5161 18.6362C16.5959 18.7678 16.6915 18.8897 16.8008 18.999C16.9798 19.178 17.1922 19.3199 17.426 19.4168C17.6599 19.5136 17.9105 19.5635 18.1636 19.5635C18.4167 19.5635 18.6673 19.5136 18.9011 19.4168C19.1349 19.3199 19.3474 19.178 19.5263 18.999C19.6357 18.8897 19.7312 18.7678 19.8111 18.6362C19.8619 18.5524 19.9064 18.4647 19.9441 18.3738C20.0267 18.1743 20.0751 17.9627 20.0876 17.7477C20.6129 17.4585 20.9689 16.8995 20.9689 16.2574V10.2356C20.9689 9.97762 20.9102 9.72307 20.7972 9.49117L18.4988 4.77201C18.214 4.18738 17.6207 3.81641 16.9704 3.81641H7.3859ZM19.1475 17.9574H17.1797C17.1879 17.9827 17.1971 18.0077 17.2073 18.0323C17.2593 18.1579 17.3356 18.272 17.4317 18.3681C17.5278 18.4642 17.6419 18.5405 17.7675 18.5925C17.8931 18.6445 18.0277 18.6713 18.1636 18.6713C18.2995 18.6713 18.4341 18.6445 18.5597 18.5925C18.6852 18.5405 18.7993 18.4642 18.8954 18.3681C18.9916 18.272 19.0678 18.1579 19.1198 18.0323C19.13 18.0077 19.1392 17.9827 19.1475 17.9574ZM5.30645 18.0323C5.29625 18.0077 5.28702 17.9827 5.27877 17.9574H7.24662C7.23837 17.9827 7.22914 18.0077 7.21894 18.0323C7.16692 18.1579 7.09068 18.272 6.99457 18.3681C6.89846 18.4642 6.78436 18.5405 6.65878 18.5925C6.53321 18.6445 6.39862 18.6713 6.2627 18.6713C6.12677 18.6713 5.99218 18.6445 5.86661 18.5925C5.74103 18.5405 5.62693 18.4642 5.53082 18.3681C5.43471 18.272 5.35847 18.1579 5.30645 18.0323ZM6.76451 5.19412C6.88487 4.96206 7.12449 4.81641 7.3859 4.81641H16.9704C17.2382 4.81641 17.4825 4.96916 17.5997 5.20989L19.8982 9.92905C19.9447 10.0245 19.9689 10.1294 19.9689 10.2356V16.2574C19.9689 16.644 19.6555 16.9574 19.2689 16.9574H4.92998C4.54338 16.9574 4.22998 16.644 4.22998 16.2574V10.2516C4.22998 10.1394 4.25694 10.0288 4.30859 9.92926L6.76451 5.19412ZM6.93442 9.41382L8.18684 6.94873L16.1617 6.94873L17.3482 9.41382L6.93442 9.41382ZM6.04288 8.96086L7.29531 6.49577C7.46583 6.16015 7.81039 5.94873 8.18684 5.94873H16.1617C16.5459 5.94873 16.8961 6.16885 17.0628 6.51505L18.2492 8.98013C18.5688 9.64405 18.085 10.4138 17.3482 10.4138H6.93442C6.18822 10.4138 5.70489 9.62612 6.04288 8.96086ZM7.70081 12.6357C7.29434 12.6357 6.96484 12.9652 6.96484 13.3717C6.96484 13.7782 7.29434 14.1077 7.70081 14.1077C8.10727 14.1077 8.43677 13.7782 8.43677 13.3717C8.43677 12.9652 8.10727 12.6357 7.70081 12.6357ZM5.96484 13.3717C5.96484 12.413 6.74206 11.6357 7.70081 11.6357C8.65955 11.6357 9.43677 12.413 9.43677 13.3717C9.43677 14.3304 8.65955 15.1077 7.70081 15.1077C6.74206 15.1077 5.96484 14.3304 5.96484 13.3717ZM15.8784 13.3717C15.8784 12.9652 16.2079 12.6357 16.6144 12.6357C17.0208 12.6357 17.3503 12.9652 17.3503 13.3717C17.3503 13.7782 17.0208 14.1077 16.6144 14.1077C16.2079 14.1077 15.8784 13.7782 15.8784 13.3717ZM16.6144 11.6357C15.6556 11.6357 14.8784 12.413 14.8784 13.3717C14.8784 14.3304 15.6556 15.1077 16.6144 15.1077C17.5731 15.1077 18.3503 14.3304 18.3503 13.3717C18.3503 12.413 17.5731 11.6357 16.6144 11.6357Z" fill="#71717A"/>
</svg>
