<svg width="24" height="24" viewBox="0 0 24 24" fill="none" xmlns="http://www.w3.org/2000/svg">
<path fill-rule="evenodd" clip-rule="evenodd" d="M6.9999 3.8999H6.95695H6.95693C6.05068 3.89988 5.3101 3.89987 4.72541 3.97848C4.11425 4.06065 3.58438 4.23847 3.16143 4.66143C2.73847 5.08438 2.56065 5.61425 2.47848 6.22541C2.39987 6.8101 2.39988 7.55068 2.3999 8.45693V8.45695V8.4999V15.4999V15.5429V15.5429C2.39988 16.4491 2.39987 17.1897 2.47848 17.7744C2.56065 18.3856 2.73847 18.9154 3.16143 19.3384C3.58438 19.7613 4.11425 19.9392 4.72541 20.0213C5.3101 20.0999 6.05069 20.0999 6.95695 20.0999H6.9999H16.9999H17.0429C17.9491 20.0999 18.6897 20.0999 19.2744 20.0213C19.8856 19.9392 20.4154 19.7613 20.8384 19.3384C21.2613 18.9154 21.4392 18.3856 21.5213 17.7744C21.5999 17.1897 21.5999 16.4492 21.5999 15.5429V15.5429V15.4999V8.4999V8.45695V8.4569C21.5999 7.55066 21.5999 6.81009 21.5213 6.22541C21.4392 5.61425 21.2613 5.08438 20.8384 4.66143C20.4154 4.23847 19.8856 4.06065 19.2744 3.97848C18.6897 3.89987 17.9491 3.89988 17.0429 3.8999H17.0429H16.9999H6.9999ZM4.00995 5.50995C4.17279 5.34712 4.40721 5.23206 4.88531 5.16778C5.38066 5.10118 6.04013 5.0999 6.9999 5.0999H16.9999C17.9597 5.0999 18.6191 5.10118 19.1145 5.16778C19.5926 5.23206 19.827 5.34712 19.9899 5.50995C20.1527 5.67279 20.2678 5.90721 20.332 6.38531C20.351 6.52607 20.3646 6.68009 20.3745 6.85049H3.62536C3.6352 6.68009 3.64885 6.52607 3.66778 6.38531C3.73206 5.90721 3.84712 5.67279 4.00995 5.50995ZM3.5999 9.38277V8.4999C3.5999 8.2663 3.59998 8.05048 3.60105 7.85049H20.3988C20.3998 8.05048 20.3999 8.2663 20.3999 8.4999V9.38277H3.5999ZM3.5999 10.3828V15.4999C3.5999 16.4597 3.60118 17.1191 3.66778 17.6145C3.73206 18.0926 3.84712 18.327 4.00995 18.4899C4.17279 18.6527 4.40721 18.7678 4.88531 18.832C5.38066 18.8986 6.04013 18.8999 6.9999 18.8999H16.9999C17.9597 18.8999 18.6191 18.8986 19.1145 18.832C19.5926 18.7678 19.827 18.6527 19.9899 18.4899C20.1527 18.327 20.2678 18.0926 20.332 17.6145C20.3986 17.1191 20.3999 16.4597 20.3999 15.4999V10.3828H3.5999ZM5.57559 13.8999C5.24422 13.8999 4.97559 14.1685 4.97559 14.4999C4.97559 14.8313 5.24422 15.0999 5.57559 15.0999H11.5756C11.907 15.0999 12.1756 14.8313 12.1756 14.4999C12.1756 14.1685 11.907 13.8999 11.5756 13.8999H5.57559ZM14.1372 14.4999C14.1372 14.1685 14.4058 13.8999 14.7372 13.8999H18.434C18.7654 13.8999 19.034 14.1685 19.034 14.4999C19.034 14.8313 18.7654 15.0999 18.434 15.0999H14.7372C14.4058 15.0999 14.1372 14.8313 14.1372 14.4999Z" fill="#71717A"/>
</svg>
