<svg width="24" height="24" viewBox="0 0 24 24" fill="none" xmlns="http://www.w3.org/2000/svg">
<path fill-rule="evenodd" clip-rule="evenodd" d="M19.7999 5.5C19.7999 6.21797 19.2179 6.8 18.4999 6.8C17.7819 6.8 17.1999 6.21797 17.1999 5.5C17.1999 4.78203 17.7819 4.2 18.4999 4.2C19.2179 4.2 19.7999 4.78203 19.7999 5.5ZM20.9999 5.5C20.9999 6.88071 19.8806 8 18.4999 8C17.1192 8 15.9999 6.88071 15.9999 5.5C15.9999 4.11929 17.1192 3 18.4999 3C19.8806 3 20.9999 4.11929 20.9999 5.5ZM7.67477 3.9L7.6999 3.9H14.4999C14.8313 3.9 15.0999 4.16863 15.0999 4.5C15.0999 4.83137 14.8313 5.1 14.4999 5.1H7.6999C7.12995 5.1 6.73857 5.10047 6.43517 5.12526C6.13877 5.14947 5.97955 5.19388 5.86432 5.25259C5.60089 5.38681 5.38672 5.60099 5.25249 5.86441C5.19378 5.97964 5.14938 6.13886 5.12516 6.43526C5.10037 6.73867 5.0999 7.13005 5.0999 7.7V16.3C5.0999 16.87 5.10037 17.2613 5.12516 17.5647C5.14938 17.8611 5.19378 18.0204 5.25249 18.1356C5.38672 18.399 5.60089 18.6132 5.86432 18.7474C5.97955 18.8061 6.13877 18.8505 6.43517 18.8747C6.73857 18.8995 7.12995 18.9 7.6999 18.9H16.2999C16.8699 18.9 17.2612 18.8995 17.5646 18.8747C17.861 18.8505 18.0203 18.8061 18.1355 18.7474C18.3989 18.6132 18.6131 18.399 18.7473 18.1356C18.806 18.0204 18.8504 17.8611 18.8746 17.5647C18.8994 17.2613 18.8999 16.87 18.8999 16.3V9.5C18.8999 9.16863 19.1685 8.9 19.4999 8.9C19.8313 8.9 20.0999 9.16863 20.0999 9.5V16.3V16.3251C20.0999 16.8638 20.0999 17.3044 20.0707 17.6625C20.0404 18.0331 19.9758 18.3678 19.8165 18.6804C19.5672 19.1696 19.1695 19.5673 18.6803 19.8166C18.3677 19.9759 18.033 20.0405 17.6624 20.0708C17.3043 20.1 16.8638 20.1 16.3252 20.1H16.325H16.2999H7.6999H7.67478H7.67462C7.13599 20.1 6.69547 20.1 6.33745 20.0708C5.96684 20.0405 5.63212 19.9759 5.31953 19.8166C4.83031 19.5673 4.43256 19.1696 4.18329 18.6804C4.02401 18.3678 3.95942 18.0331 3.92914 17.6625C3.89989 17.3044 3.8999 16.8638 3.8999 16.3252V16.3251V16.3V7.7V7.67486V7.67485C3.8999 7.13615 3.89989 6.69559 3.92914 6.33754C3.95942 5.96694 4.02401 5.63222 4.18329 5.31962C4.43256 4.8304 4.83031 4.43265 5.31953 4.18338C5.63212 4.02411 5.96684 3.95952 6.33745 3.92924C6.6955 3.89999 7.13607 3.89999 7.67477 3.9ZM15.9242 10.0757C16.1585 10.3101 16.1585 10.6899 15.9242 10.9243L12.9242 13.9243C12.8116 14.0368 12.659 14.1 12.4999 14.1C12.3408 14.1 12.1882 14.0368 12.0756 13.9243L10.4999 12.3485L7.92417 14.9243C7.68985 15.1586 7.30995 15.1586 7.07564 14.9243C6.84132 14.6899 6.84132 14.3101 7.07564 14.0757L10.0756 11.0757C10.1882 10.9632 10.3408 10.9 10.4999 10.9C10.659 10.9 10.8116 10.9632 10.9242 11.0757L12.4999 12.6515L15.0756 10.0757C15.31 9.84142 15.6899 9.84142 15.9242 10.0757Z" fill="#71717A"/>
</svg>
