<svg width="24" height="24" viewBox="0 0 24 24" fill="none" xmlns="http://www.w3.org/2000/svg">
<path fill-rule="evenodd" clip-rule="evenodd" d="M9.07324 5.8998C9.07324 5.01615 9.78959 4.2998 10.6732 4.2998H13.3269C14.2105 4.2998 14.9269 5.01615 14.9269 5.8998V11.0638C15.0546 11.0309 15.1886 11.0134 15.3266 11.0134H17.9802C18.8639 11.0134 19.5802 11.7298 19.5802 12.6134V18.1C19.5802 18.9836 18.8639 19.7 17.9802 19.7H14.3266H13.7266V19.6996H10.2731V19.7H9.67308H6.01943C5.13578 19.7 4.41943 18.9837 4.41943 18.1V9.12197C4.41943 8.23832 5.13578 7.52197 6.01943 7.52197H8.67308C8.81126 7.52197 8.94535 7.53949 9.07324 7.57242V5.8998ZM13.7269 12.5808C13.7267 12.5916 13.7266 12.6025 13.7266 12.6134V18.4996H10.2732V5.8998C10.2732 5.67889 10.4523 5.4998 10.6732 5.4998H13.3269C13.5478 5.4998 13.7269 5.67889 13.7269 5.8998V12.5808ZM14.9269 18.5H17.9802C18.2011 18.5 18.3802 18.3209 18.3802 18.1V12.6134C18.3802 12.3925 18.2011 12.2134 17.9802 12.2134H15.3266C15.1111 12.2134 14.9354 12.3838 14.9269 12.5972V18.5ZM6.01943 8.72197C5.79852 8.72197 5.61943 8.90106 5.61943 9.12197V18.1C5.61943 18.3209 5.79852 18.5 6.01943 18.5H9.07308V9.12197C9.07308 8.90106 8.89399 8.72197 8.67308 8.72197H6.01943Z" fill="#71717A"/>
</svg>
