<svg width="24" height="24" viewBox="0 0 24 24" fill="none" xmlns="http://www.w3.org/2000/svg">
<path fill-rule="evenodd" clip-rule="evenodd" d="M19.8 12C19.8 16.3078 16.3078 19.8 12 19.8C7.69218 19.8 4.2 16.3078 4.2 12C4.2 7.69218 7.69218 4.2 12 4.2C16.3078 4.2 19.8 7.69218 19.8 12ZM21 12C21 16.9706 16.9706 21 12 21C7.02944 21 3 16.9706 3 12C3 7.02944 7.02944 3 12 3C16.9706 3 21 7.02944 21 12ZM16.9404 9.40753C17.1654 9.16432 17.1507 8.78471 16.9075 8.55964C16.6643 8.33456 16.2847 8.34926 16.0596 8.59247L10.9284 14.1371L8.42204 11.6569C8.1865 11.4238 7.80661 11.4258 7.57352 11.6613C7.34044 11.8968 7.34242 12.2767 7.57796 12.5098L10.5253 15.4265C10.6409 15.5409 10.798 15.6034 10.9605 15.5999C11.1231 15.5963 11.2773 15.5269 11.3877 15.4075L16.9404 9.40753Z" fill="#71717A"/>
</svg>
