<svg width="24" height="24" viewBox="0 0 24 24" fill="none" xmlns="http://www.w3.org/2000/svg">
<path fill-rule="evenodd" clip-rule="evenodd" d="M5 4H19C19.5523 4 20 4.44772 20 5V19C20 19.5523 19.5523 20 19 20H5C4.44772 20 4 19.5523 4 19V5C4 4.44772 4.44772 4 5 4ZM3 5C3 3.89543 3.89543 3 5 3H19C20.1046 3 21 3.89543 21 5V19C21 20.1046 20.1046 21 19 21H5C3.89543 21 3 20.1046 3 19V5ZM7.0458 11.3918C6.71443 11.3918 6.4458 11.6605 6.4458 11.9918C6.4458 12.3232 6.71443 12.5918 7.0458 12.5918H16.9652C17.2966 12.5918 17.5652 12.3232 17.5652 11.9918C17.5652 11.6605 17.2966 11.3918 16.9652 11.3918H7.0458Z" fill="#71717A"/>
</svg>
