<svg width="24" height="24" viewBox="0 0 24 24" fill="none" xmlns="http://www.w3.org/2000/svg">
<path fill-rule="evenodd" clip-rule="evenodd" d="M12 21C16.9706 21 21 16.9706 21 12C21 7.02944 16.9706 3 12 3C7.02944 3 3 7.02944 3 12C3 16.9706 7.02944 21 12 21ZM16.936 9.41255C17.1639 9.17199 17.1536 8.79223 16.913 8.56433C16.6725 8.33643 16.2927 8.3467 16.0648 8.58726L10.8162 14.1275L7.93596 11.0873C7.70807 10.8467 7.3283 10.8364 7.08775 11.0643C6.84719 11.2922 6.83692 11.672 7.06482 11.9126L10.3806 15.4126C10.4939 15.5322 10.6514 15.5999 10.8162 15.5999C10.9809 15.5999 11.1384 15.5322 11.2518 15.4126L16.936 9.41255Z" fill="#71717A"/>
</svg>
