<svg width="24" height="24" viewBox="0 0 24 24" fill="none" xmlns="http://www.w3.org/2000/svg">
<path fill-rule="evenodd" clip-rule="evenodd" d="M16.1128 3.06211C16.9861 2.91764 17.8792 3.12596 18.5987 3.641L18.5987 3.64101C19.3182 4.15607 19.8036 4.93579 19.9484 5.80869C20.0932 6.68159 19.8855 7.57627 19.3708 8.29604L19.3706 8.29636L11.5252 19.2509C11.2082 19.6937 10.807 20.0697 10.3446 20.3574C9.88221 20.6451 9.36764 20.8388 8.83032 20.9275C8.293 21.0162 7.74347 20.9981 7.21315 20.8742C6.68282 20.7504 6.18211 20.5232 5.73964 20.2057C5.29692 19.889 4.92092 19.4882 4.63311 19.0262C4.34515 18.564 4.15111 18.0495 4.06209 17.5122C3.97307 16.9749 3.99081 16.4253 4.1143 15.8949C4.23778 15.3645 4.46458 14.8636 4.78174 14.4209C4.78175 14.4209 4.78176 14.4209 4.78177 14.4209L10.4835 6.46026C10.6443 6.23576 10.9567 6.18412 11.1812 6.34491C11.4057 6.50571 11.4573 6.81805 11.2965 7.04255L5.59471 15.0032L5.59468 15.0032C5.35404 15.3391 5.18195 15.7192 5.08825 16.1216C4.99456 16.5241 4.9811 16.9411 5.04864 17.3487C5.11619 17.7564 5.26341 18.1467 5.48189 18.4975C5.70037 18.8482 5.98584 19.1524 6.32196 19.3928L6.32263 19.3933C6.65832 19.6341 7.0382 19.8065 7.44055 19.9004C7.8429 19.9944 8.25982 20.0081 8.66748 19.9408C9.07513 19.8736 9.46553 19.7266 9.81634 19.5083C10.1672 19.29 10.4715 19.0048 10.712 18.6688L10.7121 18.6687L18.5574 7.71442C18.9178 7.21031 19.0633 6.58369 18.9619 5.97233C18.8605 5.36096 18.5205 4.81486 18.0166 4.45413C17.5125 4.09325 16.8874 3.94756 16.276 4.0487C15.6645 4.14987 15.1182 4.48976 14.7573 4.99364C14.7573 4.99364 14.7573 4.99365 14.7573 4.99365L7.59905 14.987L7.59177 14.9972L7.59165 14.9971C7.46896 15.1596 7.38004 15.3451 7.33013 15.5425C7.28023 15.74 7.27034 15.9454 7.30106 16.1467C7.33178 16.3481 7.40248 16.5412 7.509 16.7148C7.61552 16.8884 7.7557 17.0389 7.92128 17.1574C8.08686 17.276 8.2745 17.3602 8.47314 17.4052C8.67178 17.4501 8.8774 17.4548 9.07789 17.419C9.27838 17.3833 9.46968 17.3077 9.64053 17.1969C9.81138 17.086 9.95831 16.9421 10.0727 16.7736L10.0798 16.7631L10.0799 16.7632L15.1341 9.70786C15.295 9.48338 15.6073 9.43176 15.8318 9.59257C16.0563 9.75339 16.1079 10.0657 15.9471 10.2902L10.8963 17.3407C10.7076 17.6172 10.4657 17.8535 10.1848 18.0358L9.91268 17.6163L10.1848 18.0358C9.90204 18.2192 9.58539 18.3443 9.25353 18.4035C8.92168 18.4627 8.58133 18.4549 8.25254 18.3805C7.92375 18.3062 7.61317 18.1667 7.33909 17.9705C7.06502 17.7742 6.83299 17.5251 6.65668 17.2378C6.48037 16.9505 6.36335 16.6308 6.3125 16.2976C6.26165 15.9643 6.27802 15.6243 6.36062 15.2975C6.44269 14.9728 6.5885 14.6677 6.78954 14.3999L13.9443 4.41132L13.9443 4.41131C14.4597 3.69187 15.2397 3.20656 16.1128 3.06211Z" fill="#71717A"/>
</svg>
