<svg width="24" height="24" viewBox="0 0 24 24" fill="none" xmlns="http://www.w3.org/2000/svg">
<path fill-rule="evenodd" clip-rule="evenodd" d="M6.75639 6.55787C5.40126 7.20511 4.81865 7.98238 4.81865 8.6445C4.81865 9.30661 5.40126 10.0839 6.75639 10.7311C8.06735 11.3573 9.9206 11.7611 12.0001 11.7611C14.0797 11.7611 15.9329 11.3573 17.2439 10.7311C18.599 10.0839 19.1816 9.30661 19.1816 8.6445C19.1816 7.98238 18.599 7.20511 17.2439 6.55787C15.9329 5.93172 14.0797 5.52788 12.0001 5.52788C9.9206 5.52788 8.06735 5.93172 6.75639 6.55787ZM3.61865 8.59072C3.61865 8.573 3.61942 8.55546 3.62093 8.53814C3.67831 7.19879 4.81546 6.15505 6.23921 5.47504C7.74459 4.75603 9.7821 4.32788 12.0001 4.32788C14.2182 4.32788 16.2557 4.75603 17.7611 5.47504C19.1848 6.15505 20.322 7.19879 20.3794 8.53814C20.3809 8.55546 20.3816 8.573 20.3816 8.59072V8.6445V11.9965V11.9966V15.4024C20.3816 16.7929 19.2223 17.8739 17.7611 18.5718C16.2557 19.2908 14.2182 19.719 12.0001 19.719C9.78209 19.719 7.74459 19.2908 6.23921 18.5718C4.77799 17.8739 3.61865 16.7929 3.61865 15.4024V11.9966V11.9965V8.6445V8.59072ZM4.81865 11.9965V11.9966C4.81865 12.6587 5.40126 13.436 6.75639 14.0833C8.06735 14.7094 9.9206 15.1132 12.0001 15.1132C14.0797 15.1132 15.9329 14.7094 17.2439 14.0833C18.599 13.436 19.1816 12.6587 19.1816 11.9966V11.9965V10.9148C18.7739 11.2619 18.287 11.5627 17.7611 11.814C16.2557 12.533 14.2182 12.9611 12.0001 12.9611C9.7821 12.9611 7.74459 12.533 6.23921 11.814C5.71325 11.5627 5.2264 11.2619 4.81865 10.9148V11.9965ZM19.1816 14.267C18.7739 14.614 18.287 14.9149 17.7611 15.1661C16.2557 15.8851 14.2182 16.3132 12.0001 16.3132C9.78209 16.3132 7.74459 15.8851 6.23921 15.1661C5.71325 14.9149 5.2264 14.614 4.81865 14.267V15.4024C4.81865 16.0645 5.40126 16.8418 6.75639 17.489C8.06735 18.1152 9.9206 18.519 12.0001 18.519C14.0797 18.519 15.9329 18.1152 17.2439 17.489C18.599 16.8418 19.1816 16.0645 19.1816 15.4024V14.267Z" fill="#71717A"/>
</svg>
