<svg width="24" height="24" viewBox="0 0 24 24" fill="none" xmlns="http://www.w3.org/2000/svg">
<path fill-rule="evenodd" clip-rule="evenodd" d="M21 12C21 16.9706 16.9706 21 12 21C7.02944 21 3 16.9706 3 12C3 7.02944 7.02944 3 12 3C16.9706 3 21 7.02944 21 12ZM22 12C22 17.5228 17.5228 22 12 22C6.47715 22 2 17.5228 2 12C2 6.47715 6.47715 2 12 2C17.5228 2 22 6.47715 22 12ZM11.5 18.9824V17.5C11.5 17.2239 11.7239 17 12 17C12.2761 17 12.5 17.2239 12.5 17.5V18.9824C15.9675 18.7377 18.7377 15.9675 18.9824 12.5H17.5C17.2239 12.5 17 12.2761 17 12C17 11.7239 17.2239 11.5 17.5 11.5H18.9824C18.7377 8.03251 15.9675 5.2623 12.5 5.01758V6.5C12.5 6.77614 12.2761 7 12 7C11.7239 7 11.5 6.77614 11.5 6.5V5.01758C8.03251 5.2623 5.2623 8.03251 5.01758 11.5H6.5C6.77614 11.5 7 11.7239 7 12C7 12.2761 6.77614 12.5 6.5 12.5H5.01758C5.2623 15.9675 8.03251 18.7377 11.5 18.9824ZM12 20C7.58172 20 4 16.4183 4 12C4 7.58172 7.58172 4 12 4C16.4183 4 20 7.58172 20 12C20 16.4183 16.4183 20 12 20ZM10.6826 12.6103L12.6103 10.6826L9.39753 9.39753L10.6826 12.6103ZM13.3174 11.3897L11.3897 13.3174L14.6025 14.6025L13.3174 11.3897ZM8.07909 8.79402C7.8995 8.34505 8.34504 7.8995 8.79402 8.07909L13.6658 10.0278C13.8056 10.0837 13.9163 10.1944 13.9722 10.3342L15.9209 15.206C16.1005 15.6549 15.655 16.1005 15.206 15.9209L10.3342 13.9722C10.1944 13.9163 10.0837 13.8056 10.0278 13.6658L8.07909 8.79402Z" fill="#71717A"/>
</svg>
