<svg width="24" height="24" viewBox="0 0 24 24" fill="none" xmlns="http://www.w3.org/2000/svg">
<path fill-rule="evenodd" clip-rule="evenodd" d="M6.4624 14.7767V14.835H5.4624H5.02686C3.92229 14.835 3.02686 13.9395 3.02686 12.835V10.5625C3.02686 9.45793 3.92229 8.5625 5.02686 8.5625H5.4624H5.50445C5.73473 5.1758 8.55488 2.5 12 2.5C15.4451 2.5 18.2653 5.1758 18.4956 8.5625H18.561H18.9966C20.1012 8.5625 20.9966 9.45793 20.9966 10.5625V12.835C20.9966 13.9395 20.1012 14.835 18.9966 14.835H18.561H18.5044C18.3814 17.3088 16.4963 19.3188 14.0783 19.6355C13.8612 20.2408 13.2822 20.6738 12.6022 20.6738H11.3978C10.532 20.6738 9.83008 19.9719 9.83008 19.1061C9.83008 18.2402 10.532 17.5383 11.3978 17.5383H12.6022C13.2991 17.5383 13.8898 17.9931 14.0938 18.6221C16.0331 18.2963 17.5107 16.6095 17.5107 14.5776V9.01074C17.5107 5.96724 15.0435 3.5 12 3.5C8.9565 3.5 6.48926 5.96725 6.48926 9.01075V14.7767H6.4624ZM5.02686 9.5625H5.4624V13.835H5.02686C4.47457 13.835 4.02686 13.3872 4.02686 12.835V10.5625C4.02686 10.0102 4.47457 9.5625 5.02686 9.5625ZM11.3978 18.5383C11.0843 18.5383 10.8301 18.7925 10.8301 19.1061C10.8301 19.4196 11.0843 19.6738 11.3978 19.6738H12.6022C12.9157 19.6738 13.1699 19.4196 13.1699 19.1061C13.1699 18.7925 12.9157 18.5383 12.6022 18.5383H11.3978ZM18.9966 9.5625H18.561V13.835H18.9966C19.5489 13.835 19.9966 13.3872 19.9966 12.835V10.5625C19.9966 10.0102 19.5489 9.5625 18.9966 9.5625Z" fill="#71717A"/>
</svg>
