<svg width="24" height="24" viewBox="0 0 24 24" fill="none" xmlns="http://www.w3.org/2000/svg">
<path fill-rule="evenodd" clip-rule="evenodd" d="M10.2541 4.80295C11.9563 4.41202 13.7404 4.60367 15.3207 5.34721C16.7823 6.03486 17.9913 7.15776 18.7849 8.55722L17.2931 8.1575C16.973 8.07173 16.644 8.26168 16.5583 8.58176C16.4725 8.90184 16.6625 9.23084 16.9825 9.31661L19.8803 10.0931C20.2004 10.1788 20.5294 9.98888 20.6152 9.6688L21.3916 6.77102C21.4774 6.45094 21.2874 6.12194 20.9674 6.03618C20.6473 5.95041 20.3183 6.14036 20.2325 6.46044L19.8291 7.96591C18.9134 6.35084 17.5183 5.05494 15.8316 4.26139C14.0082 3.40346 11.9496 3.18233 9.98552 3.6334C8.02147 4.08447 6.26563 5.18165 4.99923 6.74919C3.73284 8.31674 3.02917 10.264 3.00093 12.2789C2.99629 12.6103 3.26113 12.8826 3.59247 12.8873C3.92381 12.8919 4.19617 12.6271 4.20082 12.2958C4.22529 10.5494 4.83513 8.86185 5.93268 7.50331C7.03022 6.14477 8.55195 5.19388 10.2541 4.80295ZM13.746 19.6021C12.0438 19.993 10.2597 19.8014 8.67935 19.0578C7.21781 18.3702 6.00881 17.2473 5.21519 15.8478L6.70698 16.2475C7.02706 16.3333 7.35606 16.1434 7.44183 15.8233C7.52759 15.5032 7.33765 15.1742 7.01757 15.0884L4.11979 14.312C3.79971 14.2262 3.47071 14.4162 3.38494 14.7362L2.60848 17.634C2.52272 17.9541 2.71267 18.2831 3.03275 18.3689C3.35283 18.4546 3.68183 18.2647 3.7676 17.9446L4.17099 16.4391C5.0867 18.0542 6.48185 19.3501 8.16848 20.1437C9.99191 21.0016 12.0505 21.2227 14.0146 20.7716C15.9786 20.3206 17.7345 19.2234 19.0009 17.6559C20.2673 16.0883 20.9709 14.1411 20.9992 12.1261C21.0038 11.7948 20.739 11.5224 20.4076 11.5178C20.0763 11.5131 19.8039 11.778 19.7993 12.1093C19.7748 13.8556 19.165 15.5432 18.0674 16.9017C16.9699 18.2603 15.4482 19.2112 13.746 19.6021Z" fill="#71717A"/>
</svg>
