<svg width="24" height="24" viewBox="0 0 24 24" fill="none" xmlns="http://www.w3.org/2000/svg">
<path fill-rule="evenodd" clip-rule="evenodd" d="M12 4.2C16.3078 4.2 19.8 7.69218 19.8 12C19.8 16.3078 16.3078 19.8 12 19.8C7.69218 19.8 4.2 16.3078 4.2 12C4.2 7.69218 7.69218 4.2 12 4.2ZM12 3C16.9706 3 21 7.02944 21 12C21 16.9706 16.9706 21 12 21C7.02944 21 3 16.9706 3 12C3 7.02944 7.02944 3 12 3ZM12.5828 15.6627C12.5828 15.3313 12.3142 15.0627 11.9828 15.0627C11.6514 15.0627 11.3828 15.3313 11.3828 15.6627C11.3828 15.9941 11.6514 16.2627 11.9828 16.2627C12.3142 16.2627 12.5828 15.9941 12.5828 15.6627ZM12.5502 13.1299C12.5502 13.4337 12.304 13.6799 12.0002 13.6799C11.6964 13.6799 11.4502 13.4337 11.4502 13.1299V8.03838C11.4502 7.73462 11.6964 7.48838 12.0002 7.48838C12.304 7.48838 12.5502 7.73462 12.5502 8.03838V13.1299Z" fill="#71717A"/>
</svg>
