<svg width="24" height="24" viewBox="0 0 24 24" fill="none" xmlns="http://www.w3.org/2000/svg">
<path fill-rule="evenodd" clip-rule="evenodd" d="M12 3C16.9706 3 21 7.02944 21 12C21 16.9706 16.9706 21 12 21C7.02944 21 3 16.9706 3 12C3 7.02944 7.02944 3 12 3ZM12.0002 13.6798C12.304 13.6798 12.5502 13.4336 12.5502 13.1298V8.03828C12.5502 7.73452 12.304 7.48828 12.0002 7.48828C11.6964 7.48828 11.4502 7.73452 11.4502 8.03828V13.1298C11.4502 13.4336 11.6964 13.6798 12.0002 13.6798ZM12.5828 15.6626C12.5828 15.3312 12.3142 15.0626 11.9828 15.0626C11.6514 15.0626 11.3828 15.3312 11.3828 15.6626C11.3828 15.994 11.6514 16.2626 11.9828 16.2626C12.3142 16.2626 12.5828 15.994 12.5828 15.6626Z" fill="#71717A"/>
</svg>
