<svg width="24" height="24" viewBox="0 0 24 24" fill="none" xmlns="http://www.w3.org/2000/svg">
<path fill-rule="evenodd" clip-rule="evenodd" d="M6.42417 9.57576C6.18985 9.34145 5.80995 9.34145 5.57564 9.57576C5.34132 9.81008 5.34132 10.19 5.57564 10.4243L11.9999 16.8486L18.4242 10.4243C18.6585 10.19 18.6585 9.81008 18.4242 9.57576C18.1899 9.34145 17.81 9.34145 17.5756 9.57576L12.5999 14.5515L12.5999 4.00003C12.5999 3.66865 12.3313 3.40002 11.9999 3.40002C11.6685 3.40002 11.3999 3.66865 11.3999 4.00003L11.3999 14.5515L6.42417 9.57576ZM4.9999 21.6C4.66853 21.6 4.3999 21.3314 4.3999 21C4.3999 20.6686 4.66853 20.4 4.9999 20.4H18.9999C19.3313 20.4 19.5999 20.6686 19.5999 21C19.5999 21.3314 19.3313 21.6 18.9999 21.6H4.9999Z" fill="#71717A"/>
</svg>
