<svg width="24" height="24" viewBox="0 0 24 24" fill="none" xmlns="http://www.w3.org/2000/svg">
<path d="M9.09619 8.25C8.40584 8.25 7.84619 7.69036 7.84619 7C7.84619 6.30964 8.40584 5.75 9.09619 5.75C9.78655 5.75 10.3462 6.30964 10.3462 7C10.3462 7.69036 9.78655 8.25 9.09619 8.25ZM9.09619 13.25C8.40583 13.25 7.84619 12.6904 7.84619 12C7.84619 11.3096 8.40583 10.75 9.09619 10.75C9.78655 10.75 10.3462 11.3096 10.3462 12C10.3462 12.6904 9.78655 13.25 9.09619 13.25ZM7.84619 17C7.84619 17.6904 8.40583 18.25 9.09619 18.25C9.78655 18.25 10.3462 17.6904 10.3462 17C10.3462 16.3096 9.78655 15.75 9.09619 15.75C8.40583 15.75 7.84619 16.3096 7.84619 17Z" fill="#71717A"/>
<path d="M14.9038 8.25C14.2135 8.25 13.6538 7.69036 13.6538 7C13.6538 6.30964 14.2135 5.75 14.9038 5.75C15.5942 5.75 16.1538 6.30964 16.1538 7C16.1538 7.69036 15.5942 8.25 14.9038 8.25ZM14.9038 13.25C14.2135 13.25 13.6538 12.6904 13.6538 12C13.6538 11.3096 14.2135 10.75 14.9038 10.75C15.5942 10.75 16.1538 11.3096 16.1538 12C16.1538 12.6904 15.5942 13.25 14.9038 13.25ZM13.6538 17C13.6538 17.6904 14.2135 18.25 14.9038 18.25C15.5942 18.25 16.1538 17.6904 16.1538 17C16.1538 16.3096 15.5942 15.75 14.9038 15.75C14.2135 15.75 13.6538 16.3096 13.6538 17Z" fill="#71717A"/>
</svg>
