<svg width="24" height="24" viewBox="0 0 24 24" fill="none" xmlns="http://www.w3.org/2000/svg">
<path fill-rule="evenodd" clip-rule="evenodd" d="M14.7516 6.64122C14.5727 6.77773 14.3555 6.99314 14.0102 7.33847L6.8161 14.5325C6.59892 14.7497 6.57257 14.7831 6.555 14.8142C6.53743 14.8452 6.52234 14.885 6.44785 15.1829L5.82474 17.6754L8.31717 17.0523C8.61513 16.9778 8.65491 16.9627 8.68595 16.9451C8.71698 16.9275 8.75039 16.9012 8.96757 16.684L16.1616 9.48994C16.507 9.14462 16.7224 8.9274 16.8589 8.74848C16.9848 8.58341 16.9859 8.52317 16.9859 8.5C16.9859 8.47682 16.9848 8.41658 16.8589 8.25151C16.7224 8.07259 16.507 7.85537 16.1616 7.51005L15.9901 7.33847C15.6447 6.99315 15.4275 6.77773 15.2486 6.64122C15.0835 6.51528 15.0233 6.51421 15.0001 6.51421C14.9769 6.51421 14.9167 6.51528 14.7516 6.64122ZM5.32636 17.7901C5.32638 17.7901 5.32715 17.7901 5.32861 17.79L5.32636 17.7901ZM5.7101 18.1715C5.71006 18.173 5.71 18.1737 5.70998 18.1738L5.7101 18.1715ZM14.0237 5.6872C14.2955 5.47981 14.6091 5.31421 15.0001 5.31421C15.3912 5.31421 15.7047 5.47981 15.9765 5.6872C16.2273 5.87853 16.5015 6.15279 16.8118 6.46313L17.037 6.68835C17.3473 6.99863 17.6216 7.27284 17.8129 7.52361C18.0203 7.79542 18.1859 8.10895 18.1859 8.5C18.1859 8.89104 18.0203 9.20457 17.8129 9.47638C17.6216 9.72715 17.3473 10.0014 17.037 10.3116L9.8161 17.5325C9.80429 17.5443 9.79254 17.5561 9.78082 17.5679C9.62165 17.7275 9.46864 17.881 9.27719 17.9894C9.08574 18.0977 8.87543 18.15 8.65666 18.2044C8.64055 18.2084 8.6244 18.2124 8.60821 18.2164L5.95409 18.88C5.94446 18.8824 5.93473 18.8848 5.92492 18.8873C5.77085 18.9259 5.59658 18.9696 5.44831 18.9841C5.28319 19.0002 4.98395 18.9987 4.74267 18.7574C4.50138 18.5162 4.4999 18.2169 4.51605 18.0518C4.53056 17.9035 4.57423 17.7293 4.61284 17.5752C4.6153 17.5654 4.61774 17.5557 4.62015 17.546L5.28368 14.8919C5.28772 14.8757 5.29174 14.8596 5.29574 14.8435C5.3501 14.6247 5.40237 14.4144 5.51076 14.2229C5.61916 14.0315 5.7726 13.8785 5.93223 13.7193C5.94398 13.7076 5.95577 13.6958 5.96757 13.684L13.1885 6.46312C13.4988 6.15278 13.773 5.87852 14.0237 5.6872Z" fill="#71717A"/>
<path d="M13 7.66667L15.5 6L18 8.5L16.3333 11L13 7.66667Z" fill="#71717A"/>
</svg>
