<svg width="24" height="24" viewBox="0 0 24 24" fill="none" xmlns="http://www.w3.org/2000/svg">
<path fill-rule="evenodd" clip-rule="evenodd" d="M9.57057 4.23687C11.1703 3.75158 12.8818 3.77957 14.4648 4.31691C16.0478 4.85425 17.4227 5.87395 18.3964 7.23279C19.3701 8.59163 19.8937 10.2213 19.8937 11.893C19.8937 11.8985 19.8936 11.9039 19.8934 11.9093V13.1263C19.8934 13.8306 19.6136 14.5061 19.1156 15.0041C18.6176 15.5022 17.9421 15.782 17.2377 15.782C16.5334 15.782 15.8579 15.5022 15.3599 15.0041C15.1711 14.8154 15.0137 14.6012 14.891 14.3696C14.1777 15.2322 13.0993 15.7818 11.8925 15.7818C9.74464 15.7818 8.00342 14.0406 8.00342 11.8927C8.00342 9.74474 9.74464 8.00351 11.8925 8.00351C12.97 8.00351 13.9451 8.44165 14.6494 9.14947C14.7494 8.95726 14.9504 8.82599 15.182 8.82599C15.5134 8.82599 15.782 9.09462 15.782 9.42599V13.1263C15.782 13.5124 15.9354 13.8826 16.2084 14.1556C16.4814 14.4286 16.8517 14.582 17.2377 14.582C17.6238 14.582 17.9941 14.4286 18.2671 14.1556C18.5401 13.8826 18.6934 13.5124 18.6934 13.1263V11.8928C18.6934 11.8876 18.6935 11.8824 18.6936 11.8772C18.6904 10.4618 18.2455 9.08251 17.4209 7.93176C16.5933 6.77673 15.4246 5.90997 14.0791 5.45323C12.7335 4.99648 11.2787 4.97269 9.91893 5.38519C8.55916 5.7977 7.36277 6.62577 6.49778 7.75312C5.63279 8.88046 5.14265 10.2504 5.09621 11.6706C5.04977 13.0908 5.44937 14.4899 6.23887 15.6714C7.02836 16.8528 8.16811 17.7573 9.49802 18.2577C10.8279 18.7582 12.2812 18.8295 13.6537 18.4616C13.9738 18.3758 14.3028 18.5657 14.3886 18.8858C14.4744 19.2059 14.2844 19.5349 13.9644 19.6207C12.3497 20.0535 10.64 19.9696 9.07539 19.3808C7.5108 18.7921 6.16995 17.728 5.24113 16.3381C4.31232 14.9482 3.84222 13.3022 3.89685 11.6314C3.95149 9.96062 4.52811 8.3489 5.54573 7.02263C6.56336 5.69636 7.97086 4.72216 9.57057 4.23687ZM11.8925 9.20351C10.4074 9.20351 9.20342 10.4075 9.20342 11.8927C9.20342 13.3778 10.4074 14.5818 11.8925 14.5818C13.3777 14.5818 14.5817 13.3778 14.5817 11.8927C14.5817 10.4075 13.3777 9.20351 11.8925 9.20351Z" fill="#71717A"/>
</svg>
