<svg width="24" height="24" viewBox="0 0 24 24" fill="none" xmlns="http://www.w3.org/2000/svg">
<path fill-rule="evenodd" clip-rule="evenodd" d="M20.8273 16.5194C21.0625 16.286 21.4424 16.2875 21.6758 16.5227C21.9092 16.7579 21.9077 17.1378 21.6725 17.3712L17.3344 21.6759C17.2205 21.789 17.066 21.8517 16.9055 21.85C16.7451 21.8483 16.592 21.7824 16.4804 21.6671L12.3185 17.3624C12.0882 17.1242 12.0946 16.7443 12.3329 16.514C12.5711 16.2836 12.9509 16.2901 13.1813 16.5283L16.3118 19.7662V12.75V3.25002C16.3118 2.91865 16.5804 2.65002 16.9118 2.65002C17.2431 2.65002 17.5118 2.91865 17.5118 3.25002V12.75V19.8094L20.8273 16.5194ZM11.0773 7.98062C11.3125 8.21402 11.6924 8.21255 11.9258 7.97733C12.1592 7.74211 12.1577 7.36222 11.9225 7.12881L7.58439 2.82412C7.47047 2.71108 7.31602 2.64839 7.15555 2.65006C6.99507 2.65172 6.84196 2.7176 6.73041 2.83298L2.56854 7.13766C2.33821 7.3759 2.34462 7.75574 2.58286 7.98607C2.82109 8.2164 3.20093 8.20999 3.43126 7.97176L6.56177 4.73382V11.75V21.25C6.56177 21.5814 6.8304 21.85 7.16177 21.85C7.49314 21.85 7.76177 21.5814 7.76177 21.25V11.75V4.69066L11.0773 7.98062Z" fill="#71717A"/>
</svg>
