<svg width="24" height="24" viewBox="0 0 24 24" fill="none" xmlns="http://www.w3.org/2000/svg">
<path fill-rule="evenodd" clip-rule="evenodd" d="M16.2693 12.0774C16.0359 12.3126 16.0374 12.6925 16.2726 12.9259C16.5078 13.1593 16.8877 13.1579 17.1211 12.9226L21.4258 8.58451C21.5388 8.47059 21.6015 8.31614 21.5999 8.15567C21.5982 7.9952 21.5323 7.84208 21.417 7.73053L17.1123 3.56867C16.874 3.33834 16.4942 3.34474 16.2639 3.58298C16.0335 3.82121 16.0399 4.20106 16.2782 4.43138L19.5161 7.56189H12.4999H2.9999C2.66853 7.56189 2.3999 7.83052 2.3999 8.16189C2.3999 8.49326 2.66853 8.76189 2.9999 8.76189H12.4999H19.5593L16.2693 12.0774ZM7.73049 20.0774C7.9639 20.3126 7.96243 20.6925 7.72721 20.9259C7.49199 21.1593 7.11209 21.1579 6.87869 20.9226L2.574 16.5845C2.46096 16.4706 2.39827 16.3161 2.39993 16.1557C2.4016 15.9952 2.46748 15.8421 2.58285 15.7305L6.88754 11.5687C7.12578 11.3383 7.50562 11.3447 7.73595 11.583C7.96628 11.8212 7.95987 12.2011 7.72164 12.4314L4.4837 15.5619H11.4999H20.9999C21.3313 15.5619 21.5999 15.8305 21.5999 16.1619C21.5999 16.4933 21.3313 16.7619 20.9999 16.7619H11.4999H4.44054L7.73049 20.0774Z" fill="#71717A"/>
</svg>
