<svg width="24" height="24" viewBox="0 0 24 24" fill="none" xmlns="http://www.w3.org/2000/svg">
<path fill-rule="evenodd" clip-rule="evenodd" d="M5.57613 17.5756C5.34181 17.81 5.34181 18.1899 5.57613 18.4242C5.81044 18.6585 6.19034 18.6585 6.42465 18.4242L12.4247 12.4242L12.8489 11.9999L12.4247 11.5756L6.42466 5.57564C6.19034 5.34132 5.81044 5.34132 5.57613 5.57564C5.34181 5.80995 5.34181 6.18985 5.57613 6.42417L11.1519 11.9999L5.57613 17.5756ZM11.5761 17.5756C11.3418 17.81 11.3418 18.1899 11.5761 18.4242C11.8104 18.6585 12.1903 18.6585 12.4247 18.4242L18.4247 12.4242L18.8489 11.9999L18.4247 11.5756L12.4247 5.57564C12.1903 5.34132 11.8104 5.34132 11.5761 5.57564C11.3418 5.80995 11.3418 6.18985 11.5761 6.42417L17.1519 11.9999L11.5761 17.5756Z" fill="#71717A"/>
</svg>
