<svg width="24" height="24" viewBox="0 0 24 24" fill="none" xmlns="http://www.w3.org/2000/svg">
<path fill-rule="evenodd" clip-rule="evenodd" d="M12.4242 17.5756C12.6585 17.81 12.6585 18.1899 12.4242 18.4242C12.1898 18.6585 11.8099 18.6585 11.5756 18.4242L5.57563 12.4242L5.15137 11.9999L5.57563 11.5756L11.5756 5.57564C11.8099 5.34132 12.1898 5.34132 12.4242 5.57564C12.6585 5.80995 12.6585 6.18985 12.4242 6.42417L6.84842 11.9999L12.4242 17.5756ZM18.4242 17.5756C18.6585 17.81 18.6585 18.1899 18.4242 18.4242C18.1898 18.6585 17.8099 18.6585 17.5756 18.4242L11.5756 12.4242L11.1514 11.9999L11.5756 11.5756L17.5756 5.57564C17.8099 5.34132 18.1898 5.34132 18.4242 5.57564C18.6585 5.80995 18.6585 6.18985 18.4242 6.42417L12.8484 11.9999L18.4242 17.5756Z" fill="#71717A"/>
</svg>
