<svg width="24" height="24" viewBox="0 0 24 24" fill="none" xmlns="http://www.w3.org/2000/svg">
<path fill-rule="evenodd" clip-rule="evenodd" d="M17.5752 5.57588C17.8095 5.34157 18.1894 5.34157 18.4237 5.57588C18.658 5.8102 18.658 6.1901 18.4237 6.42441L11.9994 12.8487L5.57515 6.42441C5.34084 6.1901 5.34084 5.8102 5.57515 5.57588C5.80947 5.34157 6.18936 5.34157 6.42368 5.57588L11.9994 11.1516L17.5752 5.57588ZM17.5752 11.5759C17.8095 11.3416 18.1894 11.3416 18.4237 11.5759C18.658 11.8102 18.658 12.1901 18.4237 12.4244L11.9994 18.8487L5.57515 12.4244C5.34084 12.1901 5.34084 11.8102 5.57515 11.5759C5.80947 11.3416 6.18936 11.3416 6.42368 11.5759L11.9994 17.1516L17.5752 11.5759Z" fill="#71717A"/>
</svg>
