<svg width="24" height="24" viewBox="0 0 24 24" fill="none" xmlns="http://www.w3.org/2000/svg">
<path fill-rule="evenodd" clip-rule="evenodd" d="M17.5756 12.4242C17.81 12.6585 18.1899 12.6585 18.4242 12.4242C18.6585 12.1898 18.6585 11.8099 18.4242 11.5756L11.9999 5.15137L5.57564 11.5756C5.34132 11.8099 5.34132 12.1898 5.57564 12.4242C5.80995 12.6585 6.18985 12.6585 6.42417 12.4242L11.9999 6.84842L17.5756 12.4242ZM17.5756 18.4242C17.81 18.6585 18.1899 18.6585 18.4242 18.4242C18.6585 18.1898 18.6585 17.8099 18.4242 17.5756L11.9999 11.1514L5.57564 17.5756C5.34132 17.8099 5.34132 18.1898 5.57564 18.4242C5.80995 18.6585 6.18985 18.6585 6.42417 18.4242L11.9999 12.8484L17.5756 18.4242Z" fill="#71717A"/>
</svg>
