<svg width="24" height="24" viewBox="0 0 24 24" fill="none" xmlns="http://www.w3.org/2000/svg">
<path fill-rule="evenodd" clip-rule="evenodd" d="M7.35355 10.3536C7.15829 10.5489 6.84171 10.5489 6.64645 10.3536C6.45118 10.1584 6.45118 9.84178 6.64645 9.64652L11.6464 4.64652L12 4.29297L12.3536 4.64652L17.3536 9.64652C17.5488 9.84178 17.5488 10.1584 17.3536 10.3536C17.1583 10.5489 16.8417 10.5489 16.6464 10.3536L12.5 6.20718V14.0001C12.5 14.2762 12.2761 14.5001 12 14.5001C11.7239 14.5001 11.5 14.2762 11.5 14.0001L11.5 6.20718L7.35355 10.3536ZM5.5 16.0001C5.5 15.7239 5.27614 15.5001 5 15.5001C4.72386 15.5001 4.5 15.7239 4.5 16.0001V17.0001C4.5 18.3808 5.61929 19.5001 7 19.5001L17 19.5001C18.3807 19.5001 19.5 18.3808 19.5 17.0001V16.0001C19.5 15.7239 19.2761 15.5001 19 15.5001C18.7239 15.5001 18.5 15.7239 18.5 16.0001V17.0001C18.5 17.8285 17.8284 18.5001 17 18.5001L7 18.5001C6.17157 18.5001 5.5 17.8285 5.5 17.0001V16.0001Z" fill="#71717A"/>
</svg>
