<svg width="24" height="24" viewBox="0 0 24 24" fill="none" xmlns="http://www.w3.org/2000/svg">
<path fill-rule="evenodd" clip-rule="evenodd" d="M20.2626 6.15958C18.0462 3.30283 13.6226 3.74403 12.0001 6.94384C10.3777 3.74403 5.95406 3.30284 3.73762 6.15958L3.42826 6.55831C1.59331 8.92336 1.85825 12.296 4.04 14.3456L11.0081 20.8914C11.1143 20.9911 11.2231 21.0934 11.3244 21.1714C11.4387 21.2594 11.5898 21.3545 11.7883 21.3934C11.9282 21.4209 12.0721 21.4209 12.212 21.3934C12.4104 21.3545 12.5616 21.2594 12.6759 21.1714C12.7772 21.0934 12.8859 20.9912 12.9921 20.8914L12.9921 20.8914L19.9603 14.3456C22.142 12.296 22.4069 8.92335 20.572 6.5583L20.2626 6.15958Z" fill="#71717A"/>
</svg>
