<svg width="24" height="24" viewBox="0 0 24 24" fill="none" xmlns="http://www.w3.org/2000/svg">
<path fill-rule="evenodd" clip-rule="evenodd" d="M11.1893 8.02763C9.89896 5.32398 6.21279 4.92702 4.37637 7.29396C2.92084 9.16998 3.131 11.8453 4.86161 13.471L11.8142 20.0022C11.8753 20.0596 11.9232 20.1046 11.9653 20.1427C11.9781 20.1543 11.9897 20.1646 12.0001 20.1737C12.0106 20.1646 12.0221 20.1543 12.035 20.1427C12.077 20.1046 12.125 20.0596 12.186 20.0022L19.1386 13.471C20.8693 11.8453 21.0794 9.16998 19.6239 7.29397C17.7875 4.92702 14.1013 5.32398 12.8109 8.02763L12.6511 8.36241C12.3898 8.90993 11.6104 8.90993 11.3491 8.36241L11.1893 8.02763ZM12.0001 7.00961C10.1274 3.95872 5.69365 3.63854 3.42826 6.55837C1.59331 8.92342 1.85825 12.2961 4.03999 14.3456L11.0082 20.8915C11.1143 20.9912 11.2231 21.0934 11.3244 21.1715C11.4387 21.2595 11.5898 21.3545 11.7883 21.3935C11.9282 21.4209 12.0721 21.4209 12.212 21.3935C12.4104 21.3545 12.5616 21.2595 12.6759 21.1715C12.7772 21.0934 12.886 20.9912 12.9921 20.8915L19.9603 14.3456C22.142 12.2961 22.4069 8.92342 20.572 6.55837C18.3066 3.63854 13.8728 3.95872 12.0001 7.00961Z" fill="#71717A"/>
</svg>
