<svg width="24" height="24" viewBox="0 0 24 24" fill="none" xmlns="http://www.w3.org/2000/svg">
<path fill-rule="evenodd" clip-rule="evenodd" d="M6.47885 4.40004C6.48603 4.40004 6.49306 4.40005 6.49993 4.40005H16.7928C16.8046 4.40005 16.8164 4.40005 16.8283 4.40004C17.0538 4.39997 17.2835 4.3999 17.4628 4.42525C17.628 4.44862 18.0169 4.52695 18.1817 4.92477C18.3465 5.32259 18.1269 5.65294 18.0265 5.78632C17.9177 5.93101 17.7552 6.09337 17.5957 6.2528C17.5874 6.26116 17.579 6.26952 17.5706 6.27787L13.8485 10L17.5706 13.7222C17.579 13.7306 17.5873 13.7389 17.5957 13.7473C17.7552 13.9067 17.9177 14.0691 18.0265 14.2138C18.1269 14.3472 18.3465 14.6775 18.1817 15.0753C18.0169 15.4732 17.628 15.5515 17.4628 15.5748C17.2835 15.6002 17.0538 15.6001 16.8283 15.6001C16.8164 15.6001 16.8046 15.6 16.7928 15.6H6.59993V19C6.59993 19.3314 6.3313 19.6 5.99993 19.6C5.66856 19.6 5.39993 19.3314 5.39993 19V15V5.50005C5.39993 5.49318 5.39992 5.48615 5.39992 5.47897C5.39983 5.38072 5.39973 5.25514 5.41443 5.14578C5.43253 5.01117 5.48221 4.81568 5.64889 4.64901C5.81556 4.48234 6.01105 4.43265 6.14566 4.41455C6.25502 4.39985 6.3806 4.39995 6.47885 4.40004ZM6.59993 14.4H16.5514L12.8585 10.7072C12.8544 10.7031 12.8502 10.6988 12.8458 10.6945C12.7913 10.6401 12.7145 10.5635 12.6558 10.4865C12.5817 10.3894 12.4828 10.2254 12.4828 10C12.4828 9.77469 12.5817 9.61067 12.6558 9.51361C12.7145 9.43661 12.7913 9.35997 12.8458 9.30564C12.8502 9.30126 12.8544 9.29702 12.8585 9.29294L16.5514 5.60005H6.59993V14.4ZM17.3138 5.6168C17.3138 5.61681 17.3131 5.61666 17.3117 5.6163L17.3138 5.6168ZM17.0776 5.05091C17.0783 5.0497 17.0787 5.04909 17.0787 5.04908C17.0787 5.04907 17.0784 5.04968 17.0776 5.05091ZM17.0787 14.951C17.0787 14.951 17.0783 14.9504 17.0776 14.9492C17.0784 14.9504 17.0787 14.951 17.0787 14.951ZM17.3117 14.3838C17.3131 14.3834 17.3138 14.3833 17.3138 14.3833L17.3117 14.3838Z" fill="#71717A"/>
</svg>
