<svg width="24" height="24" viewBox="0 0 24 24" fill="none" xmlns="http://www.w3.org/2000/svg">
<path fill-rule="evenodd" clip-rule="evenodd" d="M6.97934 4.90004C6.98651 4.90004 6.99355 4.90005 7.00042 4.90005H9.88238C9.88929 4.90005 9.89622 4.90005 9.90318 4.90005C10.0353 4.90001 10.1757 4.89997 10.2975 4.91256C10.4395 4.92725 10.6052 4.96266 10.7697 5.06433C10.9342 5.16601 11.04 5.29835 11.1166 5.41883C11.1824 5.52213 11.2451 5.64775 11.3042 5.7659C11.3073 5.77213 11.3104 5.77833 11.3135 5.78451L11.7607 6.67893C11.7951 6.74773 11.8216 6.80072 11.8453 6.84592C11.856 6.86628 11.8652 6.88312 11.873 6.89715C11.8891 6.89791 11.9082 6.89854 11.9312 6.899C11.9823 6.90002 12.0415 6.90005 12.1184 6.90005H17.0004C17.0073 6.90005 17.0143 6.90004 17.0215 6.90004C17.1197 6.89995 17.2453 6.89985 17.3547 6.91455C17.4893 6.93265 17.6848 6.98234 17.8515 7.14901C18.0181 7.31568 18.0678 7.51117 18.0859 7.64578C18.1006 7.75514 18.1005 7.88072 18.1004 7.97897C18.1004 7.98615 18.1004 7.99318 18.1004 8.00005V15C18.1004 15.0069 18.1004 15.0139 18.1004 15.0211C18.1005 15.1194 18.1006 15.245 18.0859 15.3543C18.0678 15.4889 18.0181 15.6844 17.8515 15.8511C17.6848 16.0178 17.4893 16.0674 17.3547 16.0855C17.2453 16.1002 17.1197 16.1001 17.0215 16.1001C17.0143 16.1001 17.0073 16.1 17.0004 16.1H12.1184C12.1115 16.1 12.1046 16.1001 12.0977 16.1001C11.9656 16.1001 11.8251 16.1001 11.7033 16.0875C11.5613 16.0728 11.3956 16.0374 11.2311 15.9358C11.0666 15.8341 10.9609 15.7017 10.8842 15.5813C10.8185 15.478 10.7557 15.3524 10.6967 15.2342C10.6936 15.228 10.6905 15.2218 10.6874 15.2156L10.2402 14.3212C10.2058 14.2524 10.1792 14.1994 10.1555 14.1542C10.1448 14.1338 10.1357 14.117 10.1278 14.1029C10.1117 14.1022 10.0926 14.1016 10.0696 14.1011C10.0186 14.1001 9.9593 14.1 9.88238 14.1H7.10042V19.5C7.10042 19.8314 6.83179 20.1 6.50042 20.1C6.16904 20.1 5.90042 19.8314 5.90042 19.5V6.00005C5.90042 5.99318 5.90041 5.98615 5.9004 5.97897C5.90032 5.88072 5.90022 5.75514 5.91492 5.64578C5.93302 5.51117 5.9827 5.31568 6.14937 5.14901C6.31605 4.98234 6.51154 4.93265 6.64615 4.91455C6.75551 4.89985 6.88109 4.89995 6.97934 4.90004ZM7.10042 12.9H9.88238C9.88929 12.9 9.89623 12.9 9.90319 12.9C10.0353 12.9 10.1757 12.9 10.2975 12.9126C10.4395 12.9272 10.6052 12.9627 10.7697 13.0643C10.9342 13.166 11.04 13.2984 11.1166 13.4188C11.1824 13.5221 11.2451 13.6478 11.3042 13.7659C11.3073 13.7721 11.3104 13.7783 11.3135 13.7845L11.7607 14.6789C11.7951 14.7477 11.8216 14.8007 11.8453 14.8459C11.856 14.8663 11.8652 14.8831 11.873 14.8971C11.8891 14.8979 11.9082 14.8985 11.9312 14.899C11.9823 14.9 12.0415 14.9 12.1184 14.9H16.9004V8.10005H12.1184C12.1115 8.10005 12.1046 8.10005 12.0976 8.10005C11.9656 8.10009 11.8251 8.10013 11.7033 8.08753C11.5613 8.07285 11.3956 8.03744 11.2311 7.93577C11.0666 7.83409 10.9609 7.70175 10.8842 7.58127C10.8185 7.47797 10.7557 7.35234 10.6967 7.23419C10.6936 7.22797 10.6905 7.22177 10.6874 7.21559L10.2402 6.32116C10.2058 6.25237 10.1792 6.19938 10.1555 6.15418C10.1448 6.13382 10.1357 6.11698 10.1278 6.10295C10.1117 6.10219 10.0926 6.10156 10.0696 6.1011C10.0186 6.10007 9.9593 6.10005 9.88238 6.10005H7.10042V12.9Z" fill="#71717A"/>
</svg>
