<svg width="24" height="24" viewBox="0 0 24 24" fill="none" xmlns="http://www.w3.org/2000/svg">
<path fill-rule="evenodd" clip-rule="evenodd" d="M17.221 17.795C15.8385 19.0413 14.0079 19.8 12 19.8C7.69218 19.8 4.2 16.3078 4.2 12C4.2 10.0232 4.93535 8.2182 6.14743 6.84356L17.221 17.795ZM18.0483 16.9256L7.00773 6.00664C8.36045 4.87865 10.101 4.2 12 4.2C16.3078 4.2 19.8 7.69218 19.8 12C19.8 13.868 19.1434 15.5826 18.0483 16.9256ZM21 12C21 16.9706 16.9706 21 12 21C7.02944 21 3 16.9706 3 12C3 7.02944 7.02944 3 12 3C16.9706 3 21 7.02944 21 12Z" fill="#71717A"/>
</svg>
