<svg width="24" height="24" viewBox="0 0 24 24" fill="none" xmlns="http://www.w3.org/2000/svg">
<path fill-rule="evenodd" clip-rule="evenodd" d="M7.93903 15.418C8.53842 17.2867 9.54548 18.6236 10.4791 19.4675C8.12822 19.0028 6.15703 17.4818 5.08072 15.4196L7.93903 15.418ZM12 19.1271C11.1832 18.615 9.94297 17.4156 9.20785 15.4173L14.7933 15.4141C14.0584 17.4143 12.8173 18.6148 12 19.1271ZM15.145 14.2139L8.85579 14.2175C8.69473 13.4982 8.6 12.6987 8.6 11.8157C8.6 10.9632 8.6883 10.1885 8.83932 9.48877L15.1599 9.48515C15.3114 10.1859 15.4 10.9617 15.4 11.8157C15.4 12.6973 15.3056 13.4955 15.145 14.2139ZM16.0625 15.4133L18.9234 15.4117C17.848 17.4779 15.8748 19.0022 13.5209 19.4675C14.4553 18.6229 15.4633 17.2845 16.0625 15.4133ZM16.3717 14.2132C16.517 13.481 16.6 12.6824 16.6 11.8157C16.6 10.975 16.5219 10.1984 16.3847 9.48445L19.4451 9.4827C19.6757 10.2193 19.8 11.003 19.8 11.8157C19.8 12.6515 19.6685 13.4566 19.4252 14.2114L16.3717 14.2132ZM16.0836 8.28462L18.956 8.28298C17.8882 6.18459 15.8988 4.63384 13.5209 4.16387C14.4664 5.01846 15.4871 6.37859 16.0836 8.28462ZM14.818 8.28535L9.18081 8.28858C9.91223 6.24555 11.1731 5.02264 12 4.50425C12.8265 5.02237 14.0864 6.24427 14.818 8.28535ZM5.03994 8.29095L7.91498 8.2893C8.51122 6.38082 9.53287 5.01916 10.4791 4.16387C8.09821 4.63444 6.10677 6.18852 5.03994 8.29095ZM7.61437 9.48948L4.55222 9.49123C4.32333 10.2254 4.2 11.0061 4.2 11.8157C4.2 12.6546 4.33245 13.4626 4.57757 14.2199L7.62928 14.2182C7.4834 13.4847 7.4 12.6844 7.4 11.8157C7.4 10.977 7.47774 10.2021 7.61437 9.48948ZM12 20.8157C16.9706 20.8157 21 16.7862 21 11.8157C21 6.84511 16.9706 2.81567 12 2.81567C7.02944 2.81567 3 6.84511 3 11.8157C3 16.7862 7.02944 20.8157 12 20.8157Z" fill="#71717A"/>
</svg>
