<svg width="24" height="24" viewBox="0 0 24 24" fill="none" xmlns="http://www.w3.org/2000/svg">
<path fill-rule="evenodd" clip-rule="evenodd" d="M15.8227 7.47272C14.7864 6.48182 13.4682 5.97727 12 5.97727C9.39545 5.97727 7.1909 7.73636 6.40454 10.1L6.40453 10.1C6.20454 10.7 6.09091 11.3409 6.09091 11.9999C6.09091 12.659 6.20455 13.2999 6.40455 13.8999L6.40454 13.9C7.1909 16.2637 9.39545 18.0227 12 18.0227C13.3454 18.0227 14.4909 17.6682 15.3864 17.0682L15.3864 17.0682V17.0682C16.4455 16.3591 17.15 15.3 17.3818 14.05H12V10.1818H21.4182C21.5364 10.8364 21.6 11.5182 21.6 12.2273C21.6 15.2727 20.5091 17.8364 18.6182 19.5773H18.6181L18.6182 19.5773C16.9636 21.1046 14.7 22 12 22C8.0909 22 4.70908 19.7591 3.06363 16.4909V16.4908C2.38636 15.1408 2 13.6136 2 11.9999C1.99938 10.4405 2.36364 8.90254 3.06364 7.50903H3.06366C4.70912 4.24088 8.09092 2 12 2C14.6954 2 16.9591 2.99091 18.6909 4.60454L15.8227 7.47272Z" fill="#71717A"/>
</svg>
