<svg width="24" height="24" viewBox="0 0 24 24" fill="none" xmlns="http://www.w3.org/2000/svg">
<path fill-rule="evenodd" clip-rule="evenodd" d="M12.3902 3.40002C11.4523 3.40002 10.7163 4.14686 10.6545 5.05461C10.4613 4.99446 10.2763 4.97145 10.1252 4.97145C9.12508 4.97145 8.40024 5.82318 8.40024 6.76574V11.9998L7.71724 11.1518C7.48603 10.8417 7.16732 10.6075 6.79901 10.4879C6.42566 10.3666 6.0254 10.371 5.65481 10.5004C4.52728 10.8916 4.07081 12.2376 4.65698 13.2572L5.85634 15.3848L5.85666 15.3854C6.99873 17.4217 7.87744 18.7519 8.8943 19.5513C9.95839 20.3879 11.1116 20.6 12.6472 20.6C14.2298 20.6 15.7171 20.1623 16.8195 19.2312C17.9358 18.2885 18.6002 16.8872 18.6002 15.0913C18.6002 15.076 18.5997 15.0608 18.5985 15.0457C18.5997 15.0306 18.6002 15.0154 18.6002 15V9.10717C18.6002 8.16564 17.8899 7.3286 16.8902 7.3286C16.7362 7.3286 16.5473 7.35178 16.3502 7.41302V6.75002C16.3502 5.8085 15.6399 4.97145 14.6402 4.97145C14.486 4.97145 14.2954 4.99544 14.0964 5.0584C14.0389 4.16699 13.3471 3.40002 12.3902 3.40002ZM17.4019 15.0457C17.4008 15.0306 17.4002 15.0154 17.4002 15V9.10717C17.4002 8.74755 17.1491 8.5286 16.8902 8.5286C16.7938 8.5286 16.6436 8.56231 16.5335 8.6447C16.4525 8.70532 16.3502 8.81996 16.3502 9.10717V11.0715C16.3502 11.4028 16.0816 11.6715 15.7502 11.6715C15.4189 11.6715 15.1502 11.4028 15.1502 11.0715V9.10717V6.75002C15.1502 6.39041 14.8991 6.17145 14.6402 6.17145C14.5502 6.17145 14.3988 6.20443 14.2859 6.28844C14.2025 6.35057 14.1002 6.46579 14.1002 6.75002V11.0715C14.1002 11.4028 13.8316 11.6715 13.5002 11.6715C13.1689 11.6715 12.9002 11.4028 12.9002 11.0715V6.75002V5.1786C12.9002 4.81898 12.6491 4.60002 12.3902 4.60002C12.1105 4.60002 11.8502 4.84017 11.8502 5.1786V6.75002V11.0715C11.8502 11.4028 11.5816 11.6715 11.2502 11.6715C10.9189 11.6715 10.6502 11.4028 10.6502 11.0715V6.75002C10.6502 6.46104 10.5478 6.34576 10.4684 6.28569C10.3603 6.20393 10.2144 6.17145 10.1252 6.17145C9.86539 6.17145 9.60024 6.40559 9.60024 6.76574V13.4286C9.60024 13.7315 9.3758 13.9819 9.08417 14.0228C8.83851 14.1414 8.53486 14.08 8.3564 13.8585L6.77498 11.895C6.76932 11.888 6.76383 11.8808 6.75849 11.8736C6.66945 11.7522 6.55266 11.6695 6.42828 11.6291C6.30451 11.5889 6.17326 11.5904 6.04997 11.6334L6.04845 11.634C5.66653 11.7663 5.46701 12.2601 5.69795 12.6602L5.701 12.6655L5.70097 12.6655L6.90234 14.7967L6.90298 14.7978C8.0549 16.8518 8.83172 17.9757 9.63593 18.608C10.393 19.2031 11.2265 19.4 12.6472 19.4C14.0211 19.4 15.2103 19.0196 16.0452 18.3145C16.8664 17.6209 17.4002 16.568 17.4002 15.0913C17.4002 15.076 17.4008 15.0608 17.4019 15.0457Z" fill="#71717A"/>
</svg>
