<svg width="24" height="24" viewBox="0 0 24 24" fill="none" xmlns="http://www.w3.org/2000/svg">
<path fill-rule="evenodd" clip-rule="evenodd" d="M16.2044 12.6365C16.0148 14.1108 14.755 15.2501 13.229 15.2501H12.4688V19.9865C16.4577 19.756 19.6628 16.603 19.9751 12.6365H16.2044ZM11.4688 15.2501H10.8218C9.29583 15.2501 8.03598 14.1108 7.84642 12.6365H4.02495C4.33553 16.5822 7.50888 19.723 11.4688 19.9826V15.2501ZM7.82178 11.6365H4.00811C4.19816 7.38692 7.70355 4 12 4C16.2964 4 19.8018 7.38692 19.9919 11.6365H16.229V11.4407C16.229 10.8884 15.7813 10.4407 15.229 10.4407H8.82178C8.26949 10.4407 7.82178 10.8884 7.82178 11.4407V11.6365ZM12 21C16.9706 21 21 16.9706 21 12C21 7.02944 16.9706 3 12 3C7.02944 3 3 7.02944 3 12C3 16.9706 7.02944 21 12 21ZM8.82178 11.4407L15.229 11.4407V12.2501C15.229 13.3547 14.3336 14.2501 13.229 14.2501H10.8218C9.71721 14.2501 8.82178 13.3547 8.82178 12.2501V11.4407Z" fill="#71717A"/>
</svg>
