<svg width="24" height="24" viewBox="0 0 24 24" fill="none" xmlns="http://www.w3.org/2000/svg">
<path fill-rule="evenodd" clip-rule="evenodd" d="M12 19.8C16.3078 19.8 19.8 16.3078 19.8 12C19.8 7.69218 16.3078 4.2 12 4.2C7.69218 4.2 4.2 7.69218 4.2 12C4.2 16.3078 7.69218 19.8 12 19.8ZM12 21C16.9706 21 21 16.9706 21 12C21 7.02944 16.9706 3 12 3C7.02944 3 3 7.02944 3 12C3 16.9706 7.02944 21 12 21ZM9.26562 9.53077C9.26562 8.06052 10.4575 6.86865 11.9277 6.86865H12.0807C13.4665 6.86865 14.5899 7.99204 14.5899 9.37782C14.5899 10.1579 14.227 10.8936 13.6081 11.3685L12.9672 11.8603C12.6728 12.0862 12.5002 12.4361 12.5002 12.8072V13.6181C12.5002 13.8942 12.2764 14.1181 12.0002 14.1181C11.7241 14.1181 11.5002 13.8942 11.5002 13.6181V12.8072C11.5002 12.1252 11.8174 11.4821 12.3584 11.067L12.9994 10.5751C13.3716 10.2895 13.5899 9.84701 13.5899 9.37782C13.5899 8.54433 12.9142 7.86865 12.0807 7.86865H11.9277C11.0098 7.86865 10.2656 8.61281 10.2656 9.53077V9.68399C10.2656 9.96014 10.0418 10.184 9.76562 10.184C9.48948 10.184 9.26562 9.96014 9.26562 9.68399V9.53077ZM11.9828 15.4313C12.3142 15.4313 12.5828 15.7 12.5828 16.0313C12.5828 16.3627 12.3142 16.6313 11.9828 16.6313C11.6514 16.6313 11.3828 16.3627 11.3828 16.0313C11.3828 15.7 11.6514 15.4313 11.9828 15.4313Z" fill="#71717A"/>
</svg>
