<svg width="24" height="24" viewBox="0 0 24 24" fill="none" xmlns="http://www.w3.org/2000/svg">
<path fill-rule="evenodd" clip-rule="evenodd" d="M15.7982 18.5961L19.0015 21.9879L19.8535 21.2167L2.85355 3.21667L2.00153 3.98792L4.56757 6.7049C2.82967 8.01838 1.54999 9.71718 0.728516 11.8013C1.62852 14.0846 3.07852 15.9055 5.07852 17.2638C7.07852 18.6221 9.29518 19.3013 11.7285 19.3013C13.16 19.3013 14.5166 19.0662 15.7982 18.5961ZM13.3596 16.0141L11.925 14.4951C11.8604 14.4992 11.7949 14.5013 11.7285 14.5013C10.9785 14.5013 10.341 14.2388 9.81602 13.7138C9.29102 13.1888 9.02852 12.5513 9.02852 11.8013C9.02852 11.6812 9.03525 11.564 9.04871 11.4496L7.61512 9.93173C7.35738 10.4997 7.22852 11.1229 7.22852 11.8013C7.22852 13.0513 7.66602 14.1138 8.54102 14.9888C9.41602 15.8638 10.4785 16.3013 11.7285 16.3013C12.3132 16.3013 12.8569 16.2056 13.3596 16.0141ZM22.7285 11.8013C21.9092 13.88 20.6339 15.5754 18.9029 16.8875L15.8493 13.6544C16.1021 13.0908 16.2285 12.4732 16.2285 11.8013C16.2285 10.5513 15.791 9.48879 14.916 8.61379C14.041 7.73879 12.9785 7.30129 11.7285 7.30129C11.1504 7.30129 10.6123 7.39488 10.1144 7.58207L7.67597 5.00021C8.95249 4.53426 10.3033 4.30128 11.7285 4.30128C14.1618 4.30128 16.3785 4.98045 18.3785 6.33879C20.3785 7.69712 21.8285 9.51795 22.7285 11.8013ZM14.4285 11.8013C14.4285 11.9138 14.4226 12.0238 14.4108 12.1312L11.5538 9.10615C11.6113 9.10291 11.6696 9.10129 11.7285 9.10129C12.4785 9.10129 13.116 9.36379 13.641 9.88879C14.166 10.4138 14.4285 11.0513 14.4285 11.8013Z" fill="#71717A"/>
</svg>
