<svg width="24" height="24" viewBox="0 0 24 24" fill="none" xmlns="http://www.w3.org/2000/svg">
<path fill-rule="evenodd" clip-rule="evenodd" d="M8.48569 7.80232C9.42913 6.99366 10.095 6.42437 10.6608 6.05066C11.2126 5.68621 11.6072 5.55107 12 5.55107C12.3927 5.55107 12.7873 5.68621 13.3391 6.05066C13.9049 6.42437 14.5708 6.99366 15.5142 7.80232L16.5142 8.65946C17.5868 9.57882 17.9737 9.9273 18.1804 10.3768C18.3871 10.8263 18.4 11.3468 18.4 12.7595V16.9998C18.4 17.9596 18.3987 18.6191 18.3321 19.1144C18.2678 19.5925 18.1527 19.827 17.9899 19.9898C17.8271 20.1526 17.5927 20.2677 17.1146 20.332C16.6366 20.3962 16.0058 20.3997 15.1 20.3998V15.9999C15.1 15.1162 14.3836 14.3999 13.5 14.3999H10.5C9.61631 14.3999 8.89996 15.1162 8.89996 15.9999V20.3998C7.99408 20.3997 7.36333 20.3962 6.88537 20.332C6.40728 20.2677 6.17285 20.1526 6.01002 19.9898C5.84718 19.827 5.73212 19.5925 5.66784 19.1144C5.60124 18.6191 5.59996 17.9596 5.59996 16.9998V12.7594C5.59996 11.3468 5.6128 10.8263 5.81953 10.3768C6.02627 9.9273 6.41312 9.57882 7.48569 8.65946L8.48569 7.80232ZM9.49132 21.5998C9.4942 21.5999 9.49708 21.5999 9.49996 21.5999C9.50285 21.5999 9.50573 21.5999 9.50861 21.5998H14.4913C14.4942 21.5999 14.4971 21.5999 14.5 21.5999C14.5029 21.5999 14.5057 21.5999 14.5086 21.5998H15H15.0429H15.043C15.9492 21.5999 16.6898 21.5999 17.2745 21.5213C17.8856 21.4391 18.4155 21.2613 18.8384 20.8383C19.2614 20.4154 19.4392 19.8855 19.5214 19.2743C19.6 18.6896 19.6 17.9491 19.6 17.0428V16.9998V12.7595L19.6 12.6231C19.6004 11.3976 19.6007 10.5931 19.2706 9.87536C18.9405 9.15765 18.3295 8.6343 17.3987 7.83704L17.2952 7.74836L16.2952 6.89121L16.2642 6.86464C15.3589 6.08862 14.6364 5.4694 14.0004 5.04934C13.3431 4.61522 12.717 4.35107 12 4.35107C11.2829 4.35107 10.6568 4.61522 9.9995 5.04934C9.36349 5.4694 8.64108 6.08862 7.73575 6.86464L7.70474 6.89121L6.70474 7.74836L6.60122 7.83705C5.67043 8.6343 5.05942 9.15765 4.72932 9.87536C4.39922 10.5931 4.3995 11.3976 4.39993 12.6231L4.39996 12.7594V16.9998L4.39996 17.0428C4.39994 17.9491 4.39993 18.6896 4.47854 19.2743C4.56071 19.8855 4.73853 20.4154 5.16149 20.8383C5.58444 21.2613 6.11431 21.4391 6.72547 21.5213C7.31015 21.5999 8.05072 21.5999 8.95696 21.5998H8.95702H8.99996H9.49132ZM13.9 20.3998H10.1V15.9999C10.1 15.779 10.2791 15.5999 10.5 15.5999H13.5C13.7209 15.5999 13.9 15.779 13.9 15.9999V20.3998Z" fill="#71717A"/>
</svg>
