<svg width="24" height="24" viewBox="0 0 24 24" fill="none" xmlns="http://www.w3.org/2000/svg">
<path fill-rule="evenodd" clip-rule="evenodd" d="M18 3.2H6C4.4536 3.2 3.2 4.4536 3.2 6V12.2491L5.3063 9.9807C6.46173 8.73638 8.48041 8.91553 9.39864 10.3439L11.2462 13.2179C11.7097 13.9389 12.7064 14.0779 13.3494 13.5113L15.6414 11.4918C16.6989 10.5599 18.3064 10.6405 19.2655 11.6734L20.8 13.326V6C20.8 4.4536 19.5464 3.2 18 3.2ZM3.2 18V14.0126L6.18566 10.7972C6.80781 10.1272 7.8948 10.2237 8.38923 10.9928L10.2368 13.8668C11.0976 15.2058 12.9485 15.4639 14.1428 14.4116L16.4347 12.3922C17.0042 11.8904 17.8697 11.9338 18.3862 12.49L20.8 15.0896V18C20.8 19.5464 19.5464 20.8 18 20.8H6C4.4536 20.8 3.2 19.5464 3.2 18ZM6 2C3.79086 2 2 3.79086 2 6V18C2 20.2091 3.79086 22 6 22H18C20.2091 22 22 20.2091 22 18V6C22 3.79086 20.2091 2 18 2H6ZM16 8.5C16.8284 8.5 17.5 7.82843 17.5 7C17.5 6.17157 16.8284 5.5 16 5.5C15.1716 5.5 14.5 6.17157 14.5 7C14.5 7.82843 15.1716 8.5 16 8.5Z" fill="#71717A"/>
</svg>
