<svg width="24" height="24" viewBox="0 0 24 24" fill="none" xmlns="http://www.w3.org/2000/svg">
<path fill-rule="evenodd" clip-rule="evenodd" d="M7.35355 8.64645C7.15829 8.45118 6.84171 8.45118 6.64645 8.64645C6.45118 8.84171 6.45118 9.15829 6.64645 9.35355L11.6464 14.3536L12 14.7071L12.3536 14.3536L17.3536 9.35355C17.5488 9.15829 17.5488 8.84171 17.3536 8.64645C17.1583 8.45118 16.8417 8.45118 16.6464 8.64645L12.5 12.7929V5C12.5 4.72386 12.2761 4.5 12 4.5C11.7239 4.5 11.5 4.72386 11.5 5L11.5 12.7929L7.35355 8.64645ZM5.5 16C5.5 15.7239 5.27614 15.5 5 15.5C4.72386 15.5 4.5 15.7239 4.5 16V17C4.5 18.3807 5.61929 19.5 7 19.5L17 19.5C18.3807 19.5 19.5 18.3807 19.5 17V16C19.5 15.7239 19.2761 15.5 19 15.5C18.7239 15.5 18.5 15.7239 18.5 16V17C18.5 17.8284 17.8284 18.5 17 18.5L7 18.5C6.17157 18.5 5.5 17.8284 5.5 17V16Z" fill="#71717A"/>
</svg>
