<svg width="24" height="24" viewBox="0 0 24 24" fill="none" xmlns="http://www.w3.org/2000/svg">
<path fill-rule="evenodd" clip-rule="evenodd" d="M11.7636 3.44854C11.9145 3.38385 12.0853 3.38385 12.2363 3.44854L19.2363 6.44854C19.4569 6.54309 19.5999 6.76001 19.5999 7.00002C19.5999 7.24004 19.4569 7.45696 19.2363 7.55151L12.2363 10.5515C12.0853 10.6162 11.9145 10.6162 11.7636 10.5515L4.76355 7.55151C4.54294 7.45696 4.3999 7.24004 4.3999 7.00002C4.3999 6.76001 4.54294 6.54309 4.76355 6.44854L11.7636 3.44854ZM6.52306 7.00002L11.9999 9.34724L17.4767 7.00002L11.9999 4.65281L6.52306 7.00002ZM7.53307 10.2615L4.76355 11.4485C4.54294 11.543 4.3999 11.76 4.3999 12C4.3999 12.24 4.54294 12.4569 4.76355 12.5515L11.7636 15.5515C11.9145 15.6161 12.0853 15.6161 12.2363 15.5515L19.2363 12.5515C19.4569 12.4569 19.5999 12.24 19.5999 12C19.5999 11.76 19.4569 11.543 19.2363 11.4485L16.4667 10.2615L14.9436 10.9143L17.4767 12L11.9999 14.3472L6.52306 12L9.05622 10.9143L7.53307 10.2615ZM4.76355 16.4485L7.53307 15.2615L9.05622 15.9143L6.52306 17L11.9999 19.3472L17.4767 17L14.9436 15.9143L16.4667 15.2615L19.2363 16.4485C19.4569 16.543 19.5999 16.76 19.5999 17C19.5999 17.24 19.4569 17.4569 19.2363 17.5515L12.2363 20.5515C12.0853 20.6161 11.9145 20.6161 11.7636 20.5515L4.76355 17.5515C4.54294 17.4569 4.3999 17.24 4.3999 17C4.3999 16.76 4.54294 16.543 4.76355 16.4485Z" fill="#71717A"/>
</svg>
