<svg width="24" height="24" viewBox="0 0 24 24" fill="none" xmlns="http://www.w3.org/2000/svg">
<path fill-rule="evenodd" clip-rule="evenodd" d="M18.4241 5.57577C16.809 3.96075 14.1906 3.96074 12.5755 5.57577L10.5755 7.57577C10.3412 7.81009 10.3412 8.18999 10.5755 8.4243C10.8098 8.65862 11.1897 8.65862 11.4241 8.4243L13.4241 6.4243C14.5705 5.2779 16.4291 5.2779 17.5755 6.4243C18.7219 7.5707 18.7219 9.42938 17.5755 10.5758L15.5755 12.5758C15.3412 12.8101 15.3412 13.19 15.5755 13.4243C15.8098 13.6586 16.1897 13.6586 16.4241 13.4243L18.4241 11.4243C20.0391 9.80928 20.0391 7.1908 18.4241 5.57577ZM8.42406 11.4243C8.65837 11.19 8.65837 10.8101 8.42406 10.5758C8.18974 10.3415 7.80984 10.3415 7.57553 10.5758L5.57553 12.5758C3.9605 14.1908 3.9605 16.8093 5.57553 18.4243C7.19055 20.0393 9.80903 20.0393 11.4241 18.4243L13.4241 16.4243C13.6584 16.19 13.6584 15.8101 13.4241 15.5758C13.1897 15.3415 12.8098 15.3415 12.5755 15.5758L10.5755 17.5758C9.42913 18.7222 7.57045 18.7222 6.42406 17.5758C5.27766 16.4294 5.27766 14.5707 6.42406 13.4243L8.42406 11.4243ZM9.57563 13.5757C9.34132 13.8101 9.34132 14.1899 9.57563 14.4243C9.80995 14.6586 10.1898 14.6586 10.4242 14.4243L14.4242 10.4243C14.6585 10.1899 14.6585 9.81005 14.4242 9.57574C14.1898 9.34142 13.8099 9.34142 13.5756 9.57574L9.57563 13.5757Z" fill="#71717A"/>
</svg>
