<svg width="24" height="24" viewBox="0 0 24 24" fill="none" xmlns="http://www.w3.org/2000/svg">
<path fill-rule="evenodd" clip-rule="evenodd" d="M6.9999 8.60002C5.12213 8.60002 3.5999 10.1223 3.5999 12C3.5999 13.8778 5.12213 15.4 6.9999 15.4H9.9999C10.3313 15.4 10.5999 15.6687 10.5999 16C10.5999 16.3314 10.3313 16.6 9.9999 16.6H6.9999C4.45939 16.6 2.3999 14.5405 2.3999 12C2.3999 9.45951 4.45939 7.40002 6.9999 7.40002H9.9999C10.3313 7.40002 10.5999 7.66865 10.5999 8.00002C10.5999 8.3314 10.3313 8.60002 9.9999 8.60002H6.9999ZM7.3999 12C7.3999 11.6687 7.66853 11.4 7.9999 11.4H15.9999C16.3313 11.4 16.5999 11.6687 16.5999 12C16.5999 12.3314 16.3313 12.6 15.9999 12.6H7.9999C7.66853 12.6 7.3999 12.3314 7.3999 12ZM20.4001 12C20.4001 10.1223 18.8779 8.60002 17.0001 8.60002H14.0001C13.6687 8.60002 13.4001 8.3314 13.4001 8.00002C13.4001 7.66865 13.6687 7.40002 14.0001 7.40002H17.0001C19.5406 7.40002 21.6001 9.45951 21.6001 12C21.6001 14.5405 19.5406 16.6 17.0001 16.6H14.0001C13.6687 16.6 13.4001 16.3314 13.4001 16C13.4001 15.6687 13.6687 15.4 14.0001 15.4H17.0001C18.8779 15.4 20.4001 13.8778 20.4001 12Z" fill="#71717A"/>
</svg>
