<svg width="24" height="24" viewBox="0 0 24 24" fill="none" xmlns="http://www.w3.org/2000/svg">
<path d="M4.8 19C4.305 19 3.88125 18.8286 3.52875 18.4859C3.17625 18.1432 3 17.7312 3 17.25V6.75C3 6.26875 3.17625 5.85677 3.52875 5.51406C3.88125 5.17135 4.305 5 4.8 5H19.2C19.695 5 20.1187 5.17135 20.4713 5.51406C20.8238 5.85677 21 6.26875 21 6.75V17.25C21 17.7312 20.8238 18.1432 20.4713 18.4859C20.1187 18.8286 19.695 19 19.2 19H4.8ZM12 12.7219C12.075 12.7219 12.1537 12.7109 12.2362 12.6891C12.3188 12.6672 12.3975 12.6344 12.4725 12.5906L18.84 8.71875C18.96 8.64583 19.05 8.55469 19.11 8.44531C19.17 8.33594 19.2 8.21563 19.2 8.08438C19.2 7.79271 19.0725 7.57396 18.8175 7.42813C18.5625 7.28229 18.3 7.28958 18.03 7.45L12 11.125L5.97 7.45C5.7 7.28958 5.4375 7.28594 5.1825 7.43906C4.9275 7.59219 4.8 7.80729 4.8 8.08438C4.8 8.23021 4.83 8.35781 4.89 8.46719C4.95 8.57656 5.04 8.66042 5.16 8.71875L11.5275 12.5906C11.6025 12.6344 11.6812 12.6672 11.7638 12.6891C11.8463 12.7109 11.925 12.7219 12 12.7219Z" fill="#71717A"/>
</svg>
