<svg width="24" height="24" viewBox="0 0 24 24" fill="none" xmlns="http://www.w3.org/2000/svg">
<path fill-rule="evenodd" clip-rule="evenodd" d="M5.10039 11.9999C5.10039 7.86393 8.43214 5.0999 12.0004 5.0999C15.6956 5.0999 18.9004 7.85727 18.9004 11.9999C18.9004 14.282 17.6509 16.2389 16.132 17.7696C14.6188 19.2946 12.9056 20.3269 12.1359 20.7507C12.048 20.7991 11.9528 20.7991 11.8649 20.7507C11.0952 20.3269 9.382 19.2946 7.8688 17.7696C6.34989 16.2389 5.10039 14.282 5.10039 11.9999ZM12.0004 3.8999C7.83665 3.8999 3.90039 7.13588 3.90039 11.9999C3.90039 14.7358 5.39504 16.9803 7.01699 18.6148C8.64464 20.2551 10.469 21.352 11.2861 21.8019C11.7343 22.0487 12.2664 22.0487 12.7147 21.8019C13.5317 21.352 15.3561 20.2551 16.9838 18.6148C18.6057 16.9803 20.1004 14.7358 20.1004 11.9999C20.1004 7.14253 16.3052 3.8999 12.0004 3.8999ZM14.8004 11.9999C14.8004 13.5463 13.5468 14.7999 12.0004 14.7999C10.454 14.7999 9.20039 13.5463 9.20039 11.9999C9.20039 10.4535 10.454 9.1999 12.0004 9.1999C13.5468 9.1999 14.8004 10.4535 14.8004 11.9999ZM16.0004 11.9999C16.0004 14.209 14.2095 15.9999 12.0004 15.9999C9.79125 15.9999 8.00039 14.209 8.00039 11.9999C8.00039 9.79076 9.79125 7.9999 12.0004 7.9999C14.2095 7.9999 16.0004 9.79076 16.0004 11.9999Z" fill="#71717A"/>
</svg>
