<svg width="24" height="24" viewBox="0 0 24 24" fill="none" xmlns="http://www.w3.org/2000/svg">
<path fill-rule="evenodd" clip-rule="evenodd" d="M3.4502 6.00002C3.4502 5.66865 3.71882 5.40002 4.0502 5.40002H20C20.3314 5.40002 20.6 5.66865 20.6 6.00002C20.6 6.3314 20.3314 6.60002 20 6.60002H4.0502C3.71882 6.60002 3.4502 6.3314 3.4502 6.00002ZM3.4502 18C3.4502 17.6687 3.71882 17.4 4.0502 17.4H20C20.3314 17.4 20.6 17.6687 20.6 18C20.6 18.3314 20.3314 18.6 20 18.6H4.0502C3.71882 18.6 3.4502 18.3314 3.4502 18ZM8.97646 11.4C8.64509 11.4 8.37646 11.6687 8.37646 12C8.37646 12.3314 8.64509 12.6 8.97646 12.6L20 12.6C20.3314 12.6 20.6 12.3314 20.6 12C20.6 11.6687 20.3314 11.4 20 11.4L8.97646 11.4Z" fill="#71717A"/>
</svg>
