<svg width="24" height="24" viewBox="0 0 24 24" fill="none" xmlns="http://www.w3.org/2000/svg">
<path d="M8.25 12C8.25 12.6904 7.69036 13.25 7 13.25C6.30964 13.25 5.75 12.6904 5.75 12C5.75 11.3096 6.30964 10.75 7 10.75C7.69036 10.75 8.25 11.3096 8.25 12ZM13.25 12C13.25 12.6904 12.6904 13.25 12 13.25C11.3096 13.25 10.75 12.6904 10.75 12C10.75 11.3096 11.3096 10.75 12 10.75C12.6904 10.75 13.25 11.3096 13.25 12ZM17 13.25C17.6904 13.25 18.25 12.6904 18.25 12C18.25 11.3096 17.6904 10.75 17 10.75C16.3096 10.75 15.75 11.3096 15.75 12C15.75 12.6904 16.3096 13.25 17 13.25Z" fill="#71717A"/>
</svg>
