<svg width="24" height="24" viewBox="0 0 24 24" fill="none" xmlns="http://www.w3.org/2000/svg">
<path fill-rule="evenodd" clip-rule="evenodd" d="M19.4 8.0001C19.4 8.33147 19.6686 8.60012 19.9999 8.60014C20.3313 8.60016 20.6 8.33155 20.6 8.00018L20.6002 4.00397C20.6003 3.84483 20.537 3.69221 20.4245 3.57968C20.312 3.46715 20.1594 3.40393 20.0002 3.40393L16.0003 3.40399C15.6689 3.404 15.4003 3.67263 15.4003 4.004C15.4003 4.33537 15.6689 4.604 16.0003 4.60399L18.4773 4.60395L12.0906 10.5613C11.8483 10.7873 11.8351 11.167 12.0611 11.4093C12.2872 11.6516 12.6668 11.6648 12.9092 11.4388L19.4002 5.38418L19.4 8.0001ZM7.6999 3.90006L7.67477 3.90006C7.13607 3.90005 6.6955 3.90005 6.33745 3.9293C5.96684 3.95958 5.63212 4.02417 5.31953 4.18344C4.83031 4.43271 4.43256 4.83046 4.18329 5.31968C4.02401 5.63228 3.95942 5.967 3.92914 6.3376C3.89989 6.69565 3.8999 7.13621 3.8999 7.67491V7.67492V7.70006V16.3001V16.3252V16.3252C3.8999 16.8639 3.89989 17.3045 3.92914 17.6625C3.95942 18.0331 4.02401 18.3678 4.18329 18.6804C4.43256 19.1697 4.83031 19.5674 5.31953 19.8167C5.63212 19.976 5.96684 20.0405 6.33745 20.0708C6.6955 20.1001 7.13607 20.1001 7.67478 20.1001H7.6999H16.2999H16.325C16.8637 20.1001 17.3043 20.1001 17.6624 20.0708C18.033 20.0405 18.3677 19.976 18.6803 19.8167C19.1695 19.5674 19.5672 19.1697 19.8165 18.6804C19.9758 18.3678 20.0404 18.0331 20.0707 17.6625C20.0999 17.3045 20.0999 16.8639 20.0999 16.3252V16.3001V11.0001C20.0999 10.6687 19.8313 10.4001 19.4999 10.4001C19.1685 10.4001 18.8999 10.6687 18.8999 11.0001V16.3001C18.8999 16.87 18.8994 17.2614 18.8746 17.5648C18.8504 17.8612 18.806 18.0204 18.7473 18.1356C18.6131 18.3991 18.3989 18.6132 18.1355 18.7475C18.0203 18.8062 17.861 18.8506 17.5646 18.8748C17.2612 18.8996 16.8699 18.9001 16.2999 18.9001H7.6999C7.12995 18.9001 6.73857 18.8996 6.43517 18.8748C6.13877 18.8506 5.97955 18.8062 5.86432 18.7475C5.60089 18.6132 5.38672 18.3991 5.25249 18.1356C5.19378 18.0204 5.14938 17.8612 5.12516 17.5648C5.10037 17.2614 5.0999 16.87 5.0999 16.3001V7.70006C5.0999 7.13011 5.10037 6.73873 5.12516 6.43532C5.14938 6.13892 5.19378 5.9797 5.25249 5.86447C5.38672 5.60105 5.60089 5.38687 5.86432 5.25265C5.97955 5.19394 6.13877 5.14953 6.43517 5.12532C6.73857 5.10053 7.12995 5.10006 7.6999 5.10006H12.9999C13.3313 5.10006 13.5999 4.83143 13.5999 4.50006C13.5999 4.16869 13.3313 3.90006 12.9999 3.90006H7.6999Z" fill="#71717A"/>
</svg>
