<svg width="24" height="24" viewBox="0 0 24 24" fill="none" xmlns="http://www.w3.org/2000/svg">
<path fill-rule="evenodd" clip-rule="evenodd" d="M17.0001 16.4142V16V11C17.0001 8.27963 15.5763 6.20153 13.2687 5.65288L12.5001 5.47011V4.68V4C12.5001 3.72228 12.2778 3.5 12.0001 3.5C11.7223 3.5 11.5001 3.72228 11.5001 4V4.68V5.47075L10.7306 5.65306C8.41442 6.20184 7.00005 8.26874 7.00005 11V16V16.4142L6.70716 16.7071L5.41716 17.9971C5.41619 17.9981 5.41534 17.999 5.41461 17.9998C5.41463 17.9998 5.41466 17.9999 5.41468 18H18.5801C18.5817 18 18.5831 18 18.5844 17.9999C18.5845 17.9996 18.5846 17.9993 18.5847 17.9989C18.5842 17.9984 18.5836 17.9978 18.5829 17.9971L17.2929 16.7071L17.0001 16.4142ZM10.5001 4.68V4C10.5001 3.17 11.1701 2.5 12.0001 2.5C12.8301 2.5 13.5001 3.17 13.5001 4V4.68C16.3601 5.36 18.0001 7.93 18.0001 11V16L19.2901 17.29C19.9201 17.92 19.4801 19 18.5801 19H15.0001H14.0001H10.0001H9.00005H5.41005C4.52005 19 4.08005 17.92 4.71005 17.29L6.00005 16V11C6.00005 7.92 7.63005 5.36 10.5001 4.68ZM10.2676 21C10.0973 20.7054 10.0001 20.3636 10.0001 20H11.0001H13.0001H14.0001C14.0001 20.3636 13.9017 20.7054 13.7303 21C13.3832 21.5967 12.7364 22 12.0001 22C11.257 22 10.6125 21.5967 10.2676 21Z" fill="#71717A"/>
</svg>
