<svg width="24" height="24" viewBox="0 0 24 24" fill="none" xmlns="http://www.w3.org/2000/svg">
<path fill-rule="evenodd" clip-rule="evenodd" d="M11.8999 4.09995H7.8999C7.46996 4.09995 7.18359 4.10042 6.96357 4.11839C6.75054 4.1358 6.65306 4.16658 6.59131 4.19804C6.42197 4.28433 6.28428 4.42201 6.198 4.59136C6.16653 4.65311 6.13575 4.75059 6.11835 4.96361C6.10037 5.18364 6.0999 5.47001 6.0999 5.89995V18.0999C6.0999 18.5299 6.10037 18.8163 6.11835 19.0363C6.13575 19.2493 6.16653 19.3468 6.198 19.4085C6.28428 19.5779 6.42197 19.7156 6.59131 19.8019C6.65306 19.8333 6.75054 19.8641 6.96357 19.8815C7.18359 19.8995 7.46996 19.9 7.8999 19.9H16.0999C16.5298 19.9 16.8162 19.8995 17.0362 19.8815C17.2493 19.8641 17.3467 19.8333 17.4085 19.8019C17.5778 19.7156 17.7155 19.5779 17.8018 19.4085C17.8333 19.3468 17.8641 19.2493 17.8815 19.0363C17.8994 18.8163 17.8999 18.5299 17.8999 18.0999V10.1H14.8758C14.4763 10.1 14.1406 10.1 13.8658 10.0776C13.5786 10.0541 13.3056 10.0031 13.0465 9.87111C12.6514 9.66978 12.3301 9.34852 12.1288 8.95338C11.9968 8.69427 11.9458 8.42129 11.9223 8.13406C11.8999 7.85933 11.8999 7.52362 11.8999 7.12409L11.8999 4.09995ZM17.8723 8.9C17.85 8.81222 17.8146 8.72828 17.7673 8.65102C17.7203 8.57428 17.6523 8.50089 17.3727 8.22127L13.7786 4.62716C13.499 4.34754 13.4256 4.2796 13.3488 4.23257C13.2716 4.18524 13.1877 4.14985 13.0999 4.12759V7.1C13.0999 7.52994 13.1004 7.81631 13.1183 8.03634C13.1358 8.24936 13.1665 8.34684 13.198 8.40859C13.2843 8.57794 13.422 8.71562 13.5913 8.80191C13.6531 8.83337 13.7505 8.86415 13.9636 8.88156C14.1836 8.89953 14.47 8.9 14.8999 8.9H17.8723ZM13.3688 2.95797C13.1255 2.89956 12.874 2.89972 12.562 2.89993L12.5058 2.89995L7.87581 2.89995C7.47628 2.89994 7.14057 2.89993 6.86585 2.92238C6.57861 2.94585 6.30564 2.99681 6.04652 3.12884C5.65138 3.33017 5.33012 3.65143 5.12879 4.04657C4.99676 4.30568 4.9458 4.57866 4.92233 4.86589C4.89989 5.14061 4.89989 5.47633 4.8999 5.87585V5.87585V18.124V18.1241C4.89989 18.5236 4.89989 18.8593 4.92233 19.134C4.9458 19.4212 4.99676 19.6942 5.12879 19.9533C5.33012 20.3485 5.65138 20.6697 6.04652 20.8711C6.30564 21.0031 6.57861 21.0541 6.86585 21.0775C7.14058 21.1 7.47632 21.1 7.87587 21.1H16.1239C16.5235 21.1 16.8592 21.1 17.134 21.0775C17.4212 21.0541 17.6942 21.0031 17.9533 20.8711C18.3484 20.6697 18.6697 20.3485 18.871 19.9533C19.003 19.6942 19.054 19.4212 19.0775 19.134C19.0999 18.8593 19.0999 18.5236 19.0999 18.124V9.49406L19.0999 9.43785C19.1001 9.12585 19.1003 8.87434 19.0419 8.63103C18.9904 8.41676 18.9056 8.21192 18.7904 8.02402C18.6597 7.81068 18.4818 7.63295 18.261 7.41248L18.2212 7.37274L14.6271 3.77863L14.5874 3.73886L14.5874 3.73885C14.3669 3.5181 14.1892 3.34014 13.9758 3.20941C13.7879 3.09427 13.5831 3.00942 13.3688 2.95797Z" fill="#71717A"/>
</svg>
