<svg width="24" height="24" viewBox="0 0 24 24" fill="none" xmlns="http://www.w3.org/2000/svg">
<path d="M6.17978 3.82047L6.79306 3.2072C7.18358 2.81668 7.81675 2.81668 8.20727 3.2072L10.7931 5.79299C11.1836 6.18351 11.1836 6.81668 10.7931 7.2072L9.00065 8.99961C8.70176 9.29849 8.62767 9.7551 8.8167 10.1332C9.90945 12.3187 11.6816 14.0908 13.8671 15.1836C14.2452 15.3726 14.7018 15.2985 15.0006 14.9996L16.7931 13.2072C17.1836 12.8167 17.8167 12.8167 18.2073 13.2072L20.7931 15.793C21.1836 16.1835 21.1836 16.8167 20.7931 17.2072L20.1798 17.8205C18.0684 19.9318 14.7259 20.1694 12.3371 18.3778L11.1287 17.4715C9.3852 16.1639 7.83638 14.6151 6.52873 12.8715L5.62243 11.6631C3.83089 9.27439 4.06843 5.93182 6.17978 3.82047Z" fill="#71717A"/>
</svg>
