<svg width="24" height="24" viewBox="0 0 24 24" fill="none" xmlns="http://www.w3.org/2000/svg">
<path fill-rule="evenodd" clip-rule="evenodd" d="M7.2206 4.06892C7.09882 3.94714 6.90137 3.94714 6.77959 4.06892C5.06551 5.78301 4.87266 8.49664 6.32711 10.4359L7.50867 12.0113C8.7822 13.7094 10.2906 15.2178 11.9887 16.4913L13.5641 17.6729C15.5033 19.1273 18.217 18.9345 19.9311 17.2204C20.0528 17.0986 20.0528 16.9012 19.9311 16.7794L17.2829 14.1313C17.1267 13.9751 16.8735 13.9751 16.7173 14.1313L15.6961 15.1524C15.3512 15.4973 14.8243 15.5828 14.388 15.3647C11.8986 14.12 9.88003 12.1014 8.63531 9.61195C8.41717 9.17568 8.50268 8.64878 8.84758 8.30388L9.86873 7.28273C10.0249 7.12652 10.0249 6.87326 9.86873 6.71705L7.2206 4.06892ZM5.93106 3.2204C6.52147 2.62999 7.47872 2.62998 8.06913 3.2204L10.7173 5.86852C11.3421 6.49336 11.3421 7.50642 10.7173 8.13126L9.73023 9.11829C10.8533 11.3414 12.6586 13.1467 14.8817 14.2698L15.8687 13.2827C16.4936 12.6579 17.5066 12.6579 18.1315 13.2827L20.7796 15.9309C21.37 16.5213 21.37 17.4785 20.7796 18.0689C18.6432 20.2053 15.2611 20.4456 12.8441 18.6329L11.2687 17.4513C9.47966 16.1096 7.89043 14.5203 6.54867 12.7313L5.36711 11.1559C3.55435 8.7389 3.79471 5.35675 5.93106 3.2204Z" fill="#71717A"/>
</svg>
