<svg width="24" height="24" viewBox="0 0 24 24" fill="none" xmlns="http://www.w3.org/2000/svg">
<path fill-rule="evenodd" clip-rule="evenodd" d="M14.9685 4.40876C15.3076 4.1827 15.5171 4.04428 15.6843 3.9602C15.8368 3.88355 15.8895 3.88656 15.9119 3.88878C15.9343 3.891 15.9866 3.89838 16.121 4.00345C16.2685 4.11869 16.4469 4.29552 16.735 4.58368L19.4163 7.26493C19.7044 7.55309 19.8813 7.73141 19.9965 7.8789C20.1016 8.01338 20.1089 8.06564 20.1112 8.08804C20.1134 8.11044 20.1164 8.16314 20.0397 8.31561C19.9557 8.48284 19.8172 8.69237 19.5912 9.03145L17.9425 11.5044L17.9173 11.5423C17.3793 12.3492 17.079 12.7997 16.8378 13.2834C16.6591 13.6418 16.5056 14.0123 16.3785 14.3922C16.2071 14.9047 16.1009 15.4356 15.9107 16.3866L15.9018 16.4312L15.7108 17.3862L15.71 17.3899L15.7098 17.391C15.6529 17.6721 15.3272 17.8037 15.0909 17.641L15.09 17.6404L15.0869 17.6382L15.0606 17.62C11.67 15.2703 8.72962 12.33 6.37997 8.93937L6.36173 8.91302L6.35957 8.90991L6.35894 8.909C6.19625 8.67273 6.32781 8.34708 6.60895 8.29011L6.61004 8.28989L6.61375 8.28915L7.56871 8.09816L7.61332 8.08924C8.56433 7.89905 9.09525 7.79288 9.60777 7.6214C9.98761 7.49432 10.3581 7.34085 10.7165 7.16213C11.2002 6.92098 11.6507 6.62064 12.4576 6.08266L12.4577 6.08265L12.4955 6.05742L14.9685 4.40876ZM16.0301 2.69462C15.6968 2.66161 15.4083 2.75585 15.1453 2.88807C14.9044 3.00921 14.6333 3.18997 14.3305 3.39189L14.3304 3.39191L14.3028 3.4103L11.8299 5.05895C10.9752 5.62874 10.5894 5.88463 10.1811 6.08822C9.87266 6.242 9.55386 6.37405 9.22703 6.4834C8.79435 6.62817 8.34062 6.72001 7.33337 6.92146L6.37842 7.11245L6.37064 7.11401C5.24607 7.34188 4.71984 8.6445 5.37059 9.58955L5.37509 9.59607L5.39365 9.62287C6.49508 11.2123 7.72193 12.706 9.06069 14.0907L4.57564 18.5758C4.34132 18.8101 4.34132 19.19 4.57564 19.4243C4.80995 19.6586 5.18985 19.6586 5.42417 19.4243L9.90922 14.9392C11.2939 16.278 12.7877 17.5049 14.3771 18.6063L14.4039 18.6248L14.4104 18.6294C15.3554 19.2801 16.6581 18.7539 16.8859 17.6293L16.8875 17.6215L17.0785 16.6666C17.2799 15.6593 17.3718 15.2056 17.5165 14.7729C17.6259 14.4461 17.7579 14.1273 17.9117 13.8188C18.1153 13.4105 18.3712 13.0248 18.941 12.1701L20.5896 9.69709L20.608 9.66952L20.608 9.6695C20.81 9.36668 20.9907 9.09557 21.1119 8.85462C21.2441 8.59162 21.3383 8.30316 21.3053 7.9698C21.2723 7.63643 21.1233 7.37206 20.9421 7.14009C20.7761 6.92758 20.5456 6.69719 20.2882 6.43985L20.2882 6.43983L20.2648 6.4164L17.5835 3.73515L17.5601 3.7117C17.3027 3.45431 17.0724 3.22388 16.8598 3.05785C16.6279 2.87661 16.3635 2.72763 16.0301 2.69462Z" fill="#71717A"/>
</svg>
