<svg width="24" height="24" viewBox="0 0 24 24" fill="none" xmlns="http://www.w3.org/2000/svg">
<path fill-rule="evenodd" clip-rule="evenodd" d="M12.6004 5.00002C12.6004 4.66865 12.3318 4.40002 12.0004 4.40002C11.669 4.40002 11.4004 4.66865 11.4004 5.00002L11.4004 11.4H5.00039C4.66902 11.4 4.40039 11.6687 4.40039 12C4.40039 12.3314 4.66902 12.6 5.00039 12.6H11.4004L11.4004 19C11.4004 19.3314 11.669 19.6 12.0004 19.6C12.3318 19.6 12.6004 19.3314 12.6004 19V12.6H19.0004C19.3318 12.6 19.6004 12.3314 19.6004 12C19.6004 11.6687 19.3318 11.4 19.0004 11.4H12.6004V5.00002Z" fill="#71717A"/>
</svg>
