<svg width="24" height="24" viewBox="0 0 24 24" fill="none" xmlns="http://www.w3.org/2000/svg">
<path fill-rule="evenodd" clip-rule="evenodd" d="M12.0004 5.40002C10.5279 5.40002 9.07508 5.73877 7.75442 6.39005C6.43375 7.04133 5.28061 7.98768 4.3842 9.15591C3.48778 10.3241 2.87213 11.6829 2.58485 13.1272C2.29758 14.5714 2.34639 16.0623 2.7275 17.4847C2.81327 17.8048 3.14227 17.9947 3.46235 17.909C3.46819 17.9074 3.47398 17.9057 3.47973 17.904L5.39417 17.391C5.71425 17.3053 5.9042 16.9763 5.81844 16.6562C5.73267 16.3361 5.40367 16.1462 5.08359 16.2319L3.752 16.5887C3.54697 15.5243 3.54957 14.4282 3.76179 13.3613C4.01316 12.0976 4.55186 10.9086 5.33622 9.88643C5.37687 9.83345 5.41813 9.78099 5.45998 9.72907C5.40042 9.94461 5.4088 10.1884 5.51343 10.441C6.05844 11.757 6.78078 13.4812 7.43252 14.9724C7.75823 15.7177 8.06784 16.4082 8.32973 16.9619C8.58357 17.4986 8.8131 17.9517 8.97519 18.1876C9.72436 19.2777 11.2789 19.2234 12.3405 18.4939C13.402 17.7645 14.01 16.3327 13.2608 15.2425C13.0987 15.0066 12.7581 14.6299 12.3481 14.2006C11.9251 13.7576 11.3914 13.221 10.8124 12.6498C9.65397 11.5068 8.30325 10.2144 7.27016 9.23383C6.91577 8.89747 6.47751 8.85808 6.11682 9.00472C6.75158 8.3818 7.48306 7.86185 8.28517 7.46629C9.26089 6.98512 10.319 6.69892 11.4004 6.62148V8.00002C11.4004 8.3314 11.669 8.60002 12.0004 8.60002C12.3318 8.60002 12.6004 8.3314 12.6004 8.00002V6.62148C13.6818 6.69892 14.7399 6.98512 15.7156 7.46629C16.3609 7.78449 16.9604 8.18319 17.5007 8.65123L16.5262 9.62572C16.2919 9.86003 16.2919 10.2399 16.5262 10.4742C16.7605 10.7086 17.1404 10.7086 17.3747 10.4742L18.3492 9.49976C18.458 9.62531 18.5631 9.75425 18.6646 9.88643C19.4489 10.9086 19.9876 12.0976 20.239 13.3613C20.4512 14.4282 20.4538 15.5243 20.2488 16.5887L18.9172 16.2319C18.5971 16.1462 18.2681 16.3361 18.1823 16.6562C18.0966 16.9763 18.2865 17.3053 18.6066 17.391L20.521 17.904L20.5384 17.909C20.8585 17.9947 21.1875 17.8048 21.2733 17.4847C21.6544 16.0623 21.7032 14.5714 21.4159 13.1272C21.1287 11.6829 20.513 10.3241 19.6166 9.15591C19.3656 8.8288 19.0944 8.51907 18.8051 8.22835C18.7999 8.22266 18.7945 8.21704 18.7889 8.2115C18.7834 8.20596 18.7778 8.20056 18.7721 8.19528C18.0357 7.46248 17.1832 6.85203 16.2464 6.39005C14.9257 5.73877 13.4729 5.40002 12.0004 5.40002ZM8.53208 14.4919C7.96145 13.1862 7.33499 11.6976 6.82185 10.4632C7.79019 11.3848 8.95531 12.5032 9.96962 13.504C10.545 14.0717 11.0691 14.5988 11.4802 15.0293C11.9043 15.4735 12.1742 15.78 12.2718 15.9221C12.4976 16.2507 12.42 16.9832 11.6608 17.5049C10.9017 18.0266 10.1899 17.8365 9.96419 17.5079C9.86653 17.3658 9.67708 17.004 9.41451 16.4489C9.15999 15.9107 8.85579 15.2325 8.53208 14.4919Z" fill="#71717A"/>
</svg>
