<svg width="24" height="24" viewBox="0 0 24 24" fill="none" xmlns="http://www.w3.org/2000/svg">
<path fill-rule="evenodd" clip-rule="evenodd" d="M7.46342 6H16.5366C17.4483 5.99999 18.1832 5.99998 18.7612 6.07768C19.3612 6.15836 19.8665 6.33096 20.2678 6.73223C20.6691 7.13351 20.8416 7.63876 20.9223 8.23883C21 8.81681 21 9.55168 21 10.4634V11.5329C21 11.9762 21.0001 12.3581 20.9589 12.6639C20.9149 12.9917 20.8155 13.3058 20.5607 13.5607C20.3058 13.8155 19.9917 13.9149 19.6639 13.9589C19.3581 14 18.9762 14 18.5329 14L18 14V13H18.5C18.9855 13 19.2994 12.9989 19.5307 12.9678C19.7475 12.9387 19.8155 12.8916 19.8536 12.8536C19.8916 12.8155 19.9387 12.7475 19.9679 12.5306C19.9989 12.2994 20 11.9855 20 11.5V10.5C20 9.54306 19.9989 8.87565 19.9312 8.37208C19.8655 7.8829 19.7452 7.62385 19.5607 7.43934C19.3762 7.25483 19.1171 7.13453 18.6279 7.06877C18.1244 7.00106 17.457 7 16.5 7H7.50001C6.54306 7 5.87565 7.00106 5.37209 7.06877C4.8829 7.13453 4.62386 7.25483 4.43935 7.43934C4.25484 7.62385 4.13454 7.8829 4.06877 8.37208C4.00107 8.87565 4.00001 9.54306 4.00001 10.5V12.5C4.00001 12.7498 4.00107 12.8869 4.01385 12.982C4.01402 12.9833 4.01419 12.9845 4.01435 12.9857C4.01554 12.9858 4.01676 12.986 4.01799 12.9862C4.11309 12.9989 4.25017 13 4.50001 13H6.00001V14H4.50001C4.49093 14 4.48186 14 4.4728 14C4.26077 14 4.0547 14.0001 3.88475 13.9772C3.69315 13.9515 3.47451 13.8887 3.2929 13.7071C3.11129 13.5255 3.04853 13.3069 3.02277 13.1153C2.99992 12.9453 2.99996 12.7392 3 12.5272C3.00001 12.5181 3.00001 12.5091 3.00001 12.5L3.00001 10.4634C2.99999 9.55169 2.99998 8.81681 3.07769 8.23883C3.15837 7.63876 3.33096 7.13351 3.73224 6.73223C4.13352 6.33096 4.63877 6.15836 5.23884 6.07768C5.81682 5.99998 6.5517 5.99999 7.46342 6Z" fill="#71717A"/>
<path fill-rule="evenodd" clip-rule="evenodd" d="M6.00001 19.831C6.00001 19.8227 6.00002 19.8145 6.00002 19.8063L6.00002 11.4671C5.99999 11.0238 5.99997 10.6419 6.04109 10.3361C6.08515 10.0083 6.18453 9.69414 6.43936 9.43931C6.69419 9.18448 7.00836 9.08511 7.33612 9.04104C7.64195 8.99992 8.02387 8.99994 8.46711 8.99997L15.5329 8.99997C15.9762 8.99994 16.3581 8.99992 16.6639 9.04104C16.9917 9.08511 17.3058 9.18448 17.5607 9.43931C17.8155 9.69414 17.9149 10.0083 17.9589 10.3361C18.0001 10.6419 18 11.0238 18 11.4671L18 19.8063C18 19.8145 18 19.8227 18 19.831C18.0001 19.967 18.0002 20.1186 17.9817 20.2443C17.9605 20.3893 17.9005 20.6087 17.6885 20.7615C17.4766 20.9143 17.2494 20.9018 17.1051 20.8761C16.9801 20.8539 16.8363 20.8059 16.7073 20.7628C16.6994 20.7602 16.6916 20.7575 16.6838 20.7549L14.5157 20.0322L12.3714 20.8899C12.3663 20.892 12.3604 20.8944 12.3537 20.8972C12.2884 20.9241 12.1514 20.9807 12 20.9807C11.8486 20.9807 11.7116 20.9241 11.6463 20.8972C11.6396 20.8944 11.6337 20.892 11.6286 20.8899L9.48438 20.0322L7.31625 20.7549C7.30847 20.7575 7.30063 20.7602 7.29273 20.7628C7.16375 20.8059 7.01994 20.8539 6.89491 20.8761C6.75066 20.9018 6.52348 20.9143 6.31148 20.7615C6.09949 20.6087 6.03955 20.3893 6.01829 20.2443C5.99986 20.1186 5.99994 19.967 6.00001 19.831ZM9.55387 20.0098C9.55391 20.0098 9.55391 20.0098 9.55387 20.0098V20.0098ZM9.41632 20.0058C9.41629 20.0058 9.41628 20.0058 9.41632 20.0058V20.0058ZM7.00002 19.8063L7.00002 11.5C7.00002 11.0144 7.00108 10.7006 7.03217 10.4693C7.06133 10.2525 7.1084 10.1845 7.14646 10.1464C7.18453 10.1084 7.2525 10.0613 7.46937 10.0321C7.70062 10.001 8.01448 9.99997 8.50002 9.99997L15.5 9.99997C15.9856 9.99997 16.2994 10.001 16.5307 10.0321C16.7475 10.0613 16.8155 10.1084 16.8536 10.1464C16.8916 10.1845 16.9387 10.2525 16.9679 10.4693C16.999 10.7006 17 11.0144 17 11.5L17 19.8063L14.8319 19.0835C14.8271 19.0819 14.8215 19.08 14.8153 19.0779C14.7538 19.0567 14.6251 19.0123 14.4858 19.0164C14.3465 19.0205 14.2207 19.0723 14.1605 19.0971C14.1544 19.0996 14.149 19.1019 14.1443 19.1038L12 19.9615L9.85577 19.1038C9.85106 19.1019 9.84563 19.0996 9.83951 19.0971C9.77935 19.0723 9.65356 19.0205 9.51423 19.0164C9.3749 19.0123 9.24628 19.0567 9.18477 19.0779C9.17851 19.08 9.17295 19.0819 9.16815 19.0835L7.00002 19.8063ZM11.9255 19.9903C11.9255 19.9903 11.9255 19.9903 11.9255 19.9903V19.9903ZM12.0745 19.9903C12.0746 19.9903 12.0746 19.9903 12.0745 19.9903V19.9903Z" fill="#71717A"/>
<path fill-rule="evenodd" clip-rule="evenodd" d="M9 13.5C9 13.2239 9.22386 13 9.5 13L13.5 13C13.7761 13 14 13.2239 14 13.5C14 13.7761 13.7761 14 13.5 14L9.5 14C9.22386 14 9 13.7761 9 13.5Z" fill="#71717A"/>
<path fill-rule="evenodd" clip-rule="evenodd" d="M9 16.5C9 16.2239 9.22386 16 9.5 16L14.5 16C14.7761 16 15 16.2239 15 16.5C15 16.7761 14.7761 17 14.5 17L9.5 17C9.22386 17 9 16.7761 9 16.5Z" fill="#71717A"/>
<path fill-rule="evenodd" clip-rule="evenodd" d="M10.0639 2H13.9361C14.7539 1.99999 15.4182 1.99997 15.9417 2.07036C16.4873 2.14372 16.9544 2.30167 17.3263 2.67366C17.6983 3.04564 17.8563 3.51268 17.9296 4.05829C18 4.58183 18 5.24607 18 6.06387V6.5H17V6.1C17 5.23734 16.9989 4.64064 16.9386 4.19154C16.8801 3.75681 16.7745 3.53598 16.6192 3.38076C16.464 3.22554 16.2432 3.11989 15.8085 3.06144C15.3594 3.00106 14.7627 3 13.9 3H10.1C9.23734 3 8.64064 3.00106 8.19154 3.06144C7.75681 3.11989 7.53598 3.22554 7.38076 3.38076C7.22554 3.53598 7.11989 3.75681 7.06144 4.19154C7.00106 4.64064 7 5.23734 7 6.1V6.5H6L6 6.06386C5.99999 5.24606 5.99997 4.58182 6.07036 4.05829C6.14372 3.51268 6.30167 3.04564 6.67366 2.67366C7.04564 2.30167 7.51268 2.14372 8.05829 2.07036C8.58182 1.99997 9.24606 1.99999 10.0639 2Z" fill="#71717A"/>
</svg>
