<svg width="24" height="24" viewBox="0 0 24 24" fill="none" xmlns="http://www.w3.org/2000/svg">
<path fill-rule="evenodd" clip-rule="evenodd" d="M6.97128 15.4L7.87757 13.5874C7.91722 13.5957 7.9583 13.6 8.00039 13.6H16.0004C16.0425 13.6 16.0836 13.5957 16.1233 13.5874L17.0296 15.4H6.97128ZM14.1233 9.58742L15.5296 12.4H8.47128L9.87757 9.58744C9.91722 9.59569 9.9583 9.60002 10.0004 9.60002H14.0004C14.0425 9.60002 14.0836 9.59568 14.1233 9.58742ZM13.5296 8.40002L12.0005 5.34168L10.4713 8.40002H13.5296ZM5.47034 15.7186C5.46562 15.7275 5.4611 15.7365 5.45682 15.7457L3.57233 19.5146C3.323 20.0133 3.68562 20.6 4.24316 20.6H19.7577C20.3153 20.6 20.6779 20.0133 20.4286 19.5146L18.5418 15.7411C18.5402 15.7379 18.5386 15.7346 18.537 15.7313C18.5356 15.7286 18.5342 15.7258 18.5328 15.723L12.6713 4.00004C12.3949 3.44726 11.606 3.44725 11.3296 4.00004L5.47034 15.7186ZM17.6296 16.6L19.0296 19.4H4.97127L6.37128 16.6H17.6296Z" fill="#71717A"/>
</svg>
