<svg width="24" height="24" viewBox="0 0 24 24" fill="none" xmlns="http://www.w3.org/2000/svg">
<path fill-rule="evenodd" clip-rule="evenodd" d="M19.8152 4.39385L19.8152 15C19.8152 15.0056 19.8151 15.0112 19.8149 15.0167V16.6808C19.8149 17.5893 19.454 18.4606 18.8116 19.103C18.1692 19.7454 17.2979 20.1063 16.3894 20.1063H7.61054C6.88917 20.1063 6.28837 19.9886 5.79854 19.7422C5.30074 19.4918 4.9468 19.123 4.70361 18.6744C4.23818 17.8159 4.18512 16.666 4.18506 15.5125L4.18506 15.4256C4.18506 14.8733 4.63277 14.4256 5.18506 14.4256H5.27203H7.11326V3.58483L8.78345 4.41993L9.95385 3.83472L11.1231 4.42046L12.3077 3.83493L13.4646 4.41901L14.6262 3.83434L15.7956 4.42029L16.9757 3.83533L18.1453 4.41993L19.8152 3.58472V4.39385ZM8.11326 14.4256V5.20286L8.78345 5.53796L9.95343 4.95297L11.1202 5.53742L12.303 4.95276L13.4639 5.53888L14.6272 4.95336L15.7932 5.5376L16.9739 4.95236L18.1454 5.53796L18.8152 5.20298L18.8152 14.9089C18.815 14.9145 18.8149 14.92 18.8149 14.9256V16.6808C18.8149 17.3241 18.5594 17.9411 18.1045 18.3959C17.6496 18.8508 17.0327 19.1063 16.3894 19.1063C15.7462 19.1063 15.1292 18.8508 14.6744 18.3959C14.2195 17.9411 13.964 17.3241 13.964 16.6808V14.9256V14.4256H13.464H8.11326ZM7.60863 15.4256L7.61326 15.4256L7.61789 15.4256H12.964V16.6808C12.964 17.5893 13.3248 18.4606 13.9673 19.103L13.9706 19.1063H7.61054C6.99241 19.1063 6.55776 19.0047 6.24791 18.8488C5.94603 18.697 5.73604 18.4806 5.58273 18.1978C5.25543 17.5941 5.18506 16.697 5.18506 15.5107L5.18504 15.5062C5.18494 15.4956 5.18697 15.4851 5.19099 15.4752C5.19501 15.4654 5.20095 15.4565 5.20846 15.449C5.21597 15.4415 5.2249 15.4355 5.23473 15.4315C5.24456 15.4275 5.2551 15.4254 5.26572 15.4255L5.27015 15.4256H7.60863ZM9.45408 7.90405C9.45408 7.62791 9.67794 7.40405 9.95408 7.40405H16.9752C17.2514 7.40405 17.4752 7.62791 17.4752 7.90405C17.4752 8.1802 17.2514 8.40405 16.9752 8.40405H9.95408C9.67794 8.40405 9.45408 8.1802 9.45408 7.90405ZM11.7945 10.8295C11.7945 10.5534 12.0183 10.3295 12.2945 10.3295H16.9752C17.2514 10.3295 17.4752 10.5534 17.4752 10.8295C17.4752 11.1057 17.2514 11.3295 16.9752 11.3295H12.2945C12.0183 11.3295 11.7945 11.1057 11.7945 10.8295Z" fill="#71717A"/>
</svg>
