<svg width="24" height="24" viewBox="0 0 24 24" fill="none" xmlns="http://www.w3.org/2000/svg">
<path fill-rule="evenodd" clip-rule="evenodd" d="M12 3C11.6686 3 11.4 3.26863 11.4 3.6C11.4 3.93137 11.6686 4.2 12 4.2C13.8701 4.2 15.678 4.8719 17.0941 6.09326C18.5103 7.31463 19.4406 9.00415 19.7153 10.854C19.9901 12.7038 19.5911 14.5907 18.5911 16.171C17.5911 17.7513 16.0565 18.9197 14.2672 19.4632C12.4778 20.0068 10.5527 19.8894 8.84267 19.1324C7.13262 18.3754 5.75146 17.0292 4.95088 15.3391C4.1503 13.6491 3.98358 11.7276 4.4811 9.92488C4.91698 8.34554 5.83726 6.94946 7.10366 5.92826L7.0031 7.53456C6.98239 7.86528 7.23371 8.15017 7.56444 8.17087C7.89516 8.19158 8.18005 7.94026 8.20075 7.60953L8.38819 4.61539C8.4089 4.28467 8.15758 3.99978 7.82685 3.97908L4.83271 3.79164C4.50199 3.77093 4.2171 4.02225 4.1964 4.35298C4.17569 4.6837 4.42702 4.96859 4.75774 4.98929L6.24281 5.08226C4.83703 6.25217 3.81486 7.82834 3.32435 9.60563C2.75028 11.6857 2.94265 13.9028 3.8664 15.8529C4.79015 17.8029 6.38379 19.3562 8.35692 20.2297C10.3301 21.1032 12.5513 21.2386 14.616 20.6114C16.6806 19.9842 18.4512 18.6361 19.6051 16.8127C20.759 14.9893 21.2193 12.8121 20.9023 10.6777C20.5853 8.54325 19.5119 6.5938 17.8779 5.18453C16.2438 3.77527 14.1578 3 12 3Z" fill="#71717A"/>
</svg>
