<svg width="24" height="24" viewBox="0 0 24 24" fill="none" xmlns="http://www.w3.org/2000/svg">
<path fill-rule="evenodd" clip-rule="evenodd" d="M6.00039 6.40002C4.56445 6.40002 3.40039 7.56408 3.40039 9.00002V14C3.40039 15.436 4.56445 16.6 6.00039 16.6H18.0004C19.4363 16.6 20.6004 15.436 20.6004 14V9.00002C20.6004 7.56408 19.4363 6.40002 18.0004 6.40002H17.8189H14.9098H12.0006H6.00039ZM14.3098 7.60002V11C14.3098 11.3314 14.5784 11.6 14.9098 11.6C15.2411 11.6 15.5098 11.3314 15.5098 11V7.60002H17.2189V9.66669C17.2189 9.99806 17.4876 10.2667 17.8189 10.2667C18.1503 10.2667 18.4189 9.99806 18.4189 9.66669V7.66366C18.9877 7.84161 19.4004 8.37262 19.4004 9.00002V14C19.4004 14.7732 18.7736 15.4 18.0004 15.4H6.00039C5.22719 15.4 4.60039 14.7732 4.60039 14V9.00002C4.60039 8.37248 5.01328 7.84137 5.58223 7.66354L5.58223 9.66693C5.58223 9.99831 5.85086 10.2669 6.18223 10.2669C6.5136 10.2669 6.78223 9.99831 6.78223 9.66693L6.78223 7.60002H8.49141V11.0003C8.49141 11.3316 8.76004 11.6003 9.09141 11.6003C9.42278 11.6003 9.69141 11.3316 9.69141 11.0003V7.60002H11.4006V9.66669C11.4006 9.99806 11.6692 10.2667 12.0006 10.2667C12.332 10.2667 12.6006 9.99806 12.6006 9.66669V7.60002H14.3098Z" fill="#71717A"/>
</svg>
