<svg width="24" height="24" viewBox="0 0 24 24" fill="none" xmlns="http://www.w3.org/2000/svg">
<path fill-rule="evenodd" clip-rule="evenodd" d="M4.5999 10.9999C4.5999 7.46528 7.46528 4.5999 10.9999 4.5999C14.5345 4.5999 17.3999 7.46528 17.3999 10.9999C17.3999 14.5345 14.5345 17.3999 10.9999 17.3999C7.46528 17.3999 4.5999 14.5345 4.5999 10.9999ZM10.9999 3.3999C6.80254 3.3999 3.3999 6.80254 3.3999 10.9999C3.3999 15.1973 6.80254 18.5999 10.9999 18.5999C12.8826 18.5999 14.6054 17.9153 15.933 16.7815L19.5756 20.4242C19.81 20.6585 20.1899 20.6585 20.4242 20.4242C20.6585 20.1899 20.6585 19.81 20.4242 19.5756L16.7815 15.933C17.9153 14.6054 18.5999 12.8826 18.5999 10.9999C18.5999 6.80254 15.1973 3.3999 10.9999 3.3999Z" fill="#71717A"/>
</svg>
