<svg width="24" height="24" viewBox="0 0 24 24" fill="none" xmlns="http://www.w3.org/2000/svg">
<path fill-rule="evenodd" clip-rule="evenodd" d="M12.6472 1.5H11.3527H11.3527C11.148 1.49999 10.9703 1.49999 10.8225 1.50986C10.6659 1.52032 10.5097 1.54331 10.3536 1.60501C10.016 1.73847 9.73818 1.98986 9.57179 2.31256C9.49485 2.46177 9.45643 2.61489 9.43046 2.76962C9.40592 2.91578 9.38825 3.09252 9.36789 3.29622L9.36635 3.31155C9.32448 3.73026 9.29566 4.01475 9.25799 4.22413C9.21945 4.43828 9.1828 4.49938 9.17149 4.51422C9.06252 4.6571 8.88526 4.73052 8.70718 4.70654C8.6887 4.70405 8.61957 4.68676 8.44085 4.56255C8.26613 4.44111 8.04455 4.26029 7.71882 3.99378L7.70689 3.98402L7.70688 3.98402C7.54837 3.85432 7.41083 3.74178 7.29008 3.65575C7.16225 3.56467 7.02675 3.48354 6.86678 3.43243C6.52105 3.32199 6.14701 3.34065 5.81398 3.48494C5.65989 3.55171 5.53315 3.64591 5.41502 3.74925C5.30343 3.84687 5.17779 3.97252 5.03299 4.11733L4.1179 5.03242L4.11789 5.03243C3.97303 5.17728 3.84734 5.30296 3.74969 5.41459C3.64632 5.53277 3.55209 5.65956 3.48532 5.81371C3.34112 6.14663 3.32247 6.52052 3.43283 6.86614C3.48393 7.02617 3.56508 7.16171 3.65618 7.28959C3.74223 7.41038 3.8548 7.54795 3.98452 7.70649L3.98454 7.70652L3.9943 7.71844C4.26093 8.04432 4.44182 8.26599 4.5633 8.4408C4.68756 8.61959 4.70484 8.68875 4.70732 8.70725C4.73124 8.88524 4.65786 9.06238 4.5151 9.17132C4.50026 9.18265 4.43914 9.21933 4.22487 9.25789C4.01538 9.2956 3.73074 9.32443 3.3118 9.36633L3.29645 9.36786L3.29644 9.36786C3.09264 9.38824 2.91581 9.40591 2.76958 9.43047C2.61476 9.45647 2.46156 9.49492 2.31229 9.57193C1.98981 9.73829 1.73858 10.0159 1.60513 10.3533C1.54335 10.5095 1.52034 10.6658 1.50987 10.8224C1.49999 10.9704 1.49999 11.1481 1.5 11.3529V11.3529V12.6472V12.6472C1.49999 12.852 1.49999 13.0296 1.50987 13.1776C1.52033 13.3341 1.54333 13.4904 1.60507 13.6465C1.73852 13.9841 1.98984 14.2618 2.31242 14.4281C2.46166 14.5051 2.61482 14.5435 2.7696 14.5695C2.9158 14.5941 3.0926 14.6118 3.29636 14.6321L3.31168 14.6337C3.73051 14.6755 4.01507 14.7044 4.2245 14.7421C4.43872 14.7806 4.49983 14.8173 4.51466 14.8286C4.65749 14.9376 4.73089 15.1148 4.70694 15.2928C4.70445 15.3113 4.68717 15.3804 4.56295 15.5592C4.4415 15.7339 4.26067 15.9555 3.99413 16.2813L3.9844 16.2932L3.98438 16.2932C3.85469 16.4517 3.74217 16.5892 3.65614 16.71C3.56507 16.8378 3.48395 16.9733 3.43285 17.1332C3.3224 17.479 3.34106 17.853 3.48536 18.186C3.55212 18.3401 3.64632 18.4669 3.74966 18.585C3.84729 18.6966 3.97296 18.8223 4.1178 18.9671L5.03294 19.8822C5.17774 20.027 5.30339 20.1527 5.41498 20.2503C5.5331 20.3536 5.65985 20.4479 5.81394 20.5146C6.14696 20.6589 6.521 20.6776 6.86673 20.5671C7.0267 20.516 7.16219 20.4349 7.29001 20.3438C7.41077 20.2578 7.5483 20.1453 7.70681 20.0156L7.7187 20.0058C8.04448 19.7393 8.26609 19.5584 8.44084 19.437C8.61958 19.3128 8.68873 19.2955 8.70722 19.293C8.88525 19.2691 9.06244 19.3425 9.17139 19.4853C9.18271 19.5001 9.21938 19.5612 9.25793 19.7754C9.29563 19.9849 9.32445 20.2695 9.36634 20.6883L9.36787 20.7036C9.38824 20.9074 9.40591 21.0842 9.43047 21.2304C9.45645 21.3852 9.49489 21.5384 9.57187 21.6876C9.73825 22.0102 10.0159 22.2615 10.3534 22.3949C10.5096 22.4567 10.6658 22.4797 10.8224 22.4901C10.9704 22.5 11.148 22.5 11.3528 22.5H11.3528H12.6471H12.6471C12.8519 22.5 13.0296 22.5 13.1776 22.4901C13.3342 22.4797 13.4905 22.4566 13.6467 22.3949C13.9841 22.2614 14.2617 22.0102 14.4281 21.6877C14.5051 21.5385 14.5435 21.3852 14.5695 21.2304C14.5941 21.0841 14.6118 20.9073 14.6322 20.7034L14.6337 20.6881C14.6756 20.2692 14.7044 19.9846 14.7421 19.7751C14.7807 19.5608 14.8173 19.4997 14.8286 19.4849C14.9376 19.3421 15.1148 19.2687 15.2928 19.2926C15.3113 19.2951 15.3805 19.3124 15.5592 19.4366C15.7339 19.558 15.9555 19.7389 16.2813 20.0054L16.2932 20.0152C16.4517 20.1448 16.5892 20.2573 16.7099 20.3434C16.8378 20.4344 16.9732 20.5156 17.1332 20.5667C17.4789 20.6771 17.853 20.6585 18.1861 20.5141C18.3401 20.4474 18.4669 20.3532 18.585 20.2499C18.6966 20.1522 18.8223 20.0266 18.9671 19.8817L19.8824 18.9664C20.0272 18.8217 20.1527 18.6961 20.2503 18.5846C20.3536 18.4665 20.4478 18.3398 20.5145 18.1858C20.6589 17.8526 20.6776 17.4784 20.5671 17.1326C20.5159 16.9727 20.4348 16.8372 20.3438 16.7095C20.2578 16.5888 20.1454 16.4513 20.0158 16.2929L20.006 16.281C19.7395 15.9553 19.5588 15.7338 19.4373 15.5591C19.3132 15.3805 19.2959 15.3113 19.2934 15.2929C19.2694 15.1148 19.3428 14.9375 19.4857 14.8285C19.5006 14.8172 19.5617 14.7806 19.7758 14.742C19.9852 14.7043 20.2697 14.6755 20.6884 14.6337L20.7037 14.6321L20.7037 14.6321C20.9074 14.6118 21.0842 14.5941 21.2304 14.5695C21.3851 14.5436 21.5383 14.5051 21.6875 14.4282C22.0101 14.2618 22.2615 13.984 22.395 13.6464C22.4567 13.4903 22.4797 13.3341 22.4901 13.1775C22.5 13.0297 22.5 12.8521 22.5 12.6474V12.6473V11.3528V11.3528C22.5 11.148 22.5 10.9704 22.4901 10.8224C22.4797 10.6658 22.4567 10.5096 22.3949 10.3534C22.2615 10.0159 22.0102 9.73825 21.6876 9.57187C21.5384 9.49489 21.3852 9.45645 21.2304 9.43047C21.0842 9.40592 20.9074 9.38824 20.7037 9.36788L20.7037 9.36787L20.6883 9.36634C20.2694 9.32445 19.9849 9.29562 19.7754 9.25793C19.5612 9.21938 19.5001 9.18271 19.4853 9.1714C19.3424 9.06244 19.2691 8.88524 19.293 8.70721C19.2955 8.68872 19.3128 8.61958 19.437 8.44084C19.5584 8.2661 19.7393 8.0445 20.0058 7.71872L20.0156 7.70679L20.0156 7.70678C20.1452 7.5483 20.2578 7.4108 20.3438 7.29006C20.4348 7.16224 20.516 7.02676 20.5671 6.8668C20.6775 6.52106 20.6589 6.147 20.5146 5.81396C20.4478 5.65988 20.3536 5.53314 20.2503 5.41502C20.1526 5.30343 20.027 5.17779 19.8822 5.03299L18.967 4.11781L18.967 4.11778C18.8222 3.97297 18.6965 3.84732 18.5849 3.74971C18.4668 3.64638 18.3401 3.55218 18.186 3.48541C17.853 3.3411 17.4789 3.32244 17.1332 3.4329C16.9732 3.484 16.8377 3.56512 16.7099 3.65619C16.5892 3.74221 16.4516 3.85473 16.2932 3.98441L16.2813 3.99415C15.9555 4.26069 15.7339 4.44152 15.5592 4.56296C15.3804 4.68717 15.3113 4.70446 15.2928 4.70694C15.1148 4.73089 14.9376 4.65749 14.8286 4.51467C14.8173 4.49983 14.7806 4.43872 14.7421 4.22451C14.7044 4.01507 14.6755 3.73051 14.6337 3.31169L14.6321 3.29637C14.6118 3.09261 14.5941 2.9158 14.5695 2.7696C14.5435 2.61482 14.5051 2.46166 14.4281 2.31242C14.2618 1.98984 13.9841 1.73853 13.6465 1.60507C13.4904 1.54333 13.3341 1.52033 13.1776 1.50987C13.0296 1.49999 12.852 1.49999 12.6472 1.5H12.6472ZM10.7212 2.53501C10.7422 2.5267 10.7835 2.51469 10.8891 2.50764C10.9997 2.50026 11.1436 2.5 11.3681 2.5H12.6318C12.8563 2.5 13.0003 2.50026 13.1109 2.50765C13.2165 2.5147 13.2578 2.52672 13.2789 2.53502C13.3914 2.57951 13.4839 2.66328 13.5394 2.77081C13.5497 2.79088 13.5658 2.8308 13.5833 2.93519C13.6017 3.0445 13.6163 3.18775 13.6386 3.41119L13.6407 3.43215L13.6407 3.43217C13.68 3.82476 13.7124 4.14881 13.7579 4.40162C13.8033 4.65413 13.8731 4.91083 14.0335 5.12119C14.3604 5.54967 14.892 5.76987 15.4261 5.69802C15.6883 5.66274 15.9192 5.53055 16.1298 5.38412C16.3408 5.23753 16.5928 5.03131 16.8982 4.78146L16.9145 4.76811C17.0883 4.62591 17.1999 4.53494 17.2902 4.47062C17.3764 4.4092 17.416 4.39234 17.4375 4.38547C17.5527 4.34865 17.6774 4.35487 17.7884 4.40297C17.8092 4.41195 17.8469 4.43267 17.9265 4.50236C18.01 4.57534 18.112 4.67697 18.2707 4.83575L19.1642 5.72922C19.323 5.88801 19.4246 5.99001 19.4976 6.07343C19.5673 6.1531 19.588 6.19082 19.597 6.21154C19.6451 6.32256 19.6513 6.44724 19.6145 6.56249C19.6076 6.58401 19.5908 6.6236 19.5293 6.70981C19.465 6.80008 19.374 6.91168 19.2318 7.08548L19.2185 7.10179C18.9686 7.40716 18.7624 7.65922 18.6158 7.87015C18.4694 8.08085 18.3372 8.31168 18.3019 8.5739C18.2301 9.108 18.4503 9.63959 18.8787 9.96646C19.0891 10.1269 19.3458 10.1967 19.5983 10.2421C19.8511 10.2876 20.1752 10.32 20.5678 10.3593L20.5678 10.3593L20.5888 10.3614C20.8122 10.3837 20.9555 10.3983 21.0648 10.4167C21.1692 10.4342 21.2091 10.4503 21.2292 10.4606C21.3367 10.5161 21.4205 10.6086 21.465 10.7211C21.4733 10.7421 21.4853 10.7835 21.4924 10.8891C21.4997 10.9997 21.5 11.1437 21.5 11.3682V12.6319C21.5 12.8564 21.4997 13.0003 21.4924 13.1109C21.4853 13.2165 21.4733 13.2578 21.465 13.2788C21.4205 13.3914 21.3367 13.4839 21.2292 13.5394C21.2091 13.5498 21.1692 13.5658 21.0648 13.5833C20.9555 13.6017 20.8123 13.6163 20.5889 13.6386L20.5679 13.6407L20.5679 13.6407C20.1754 13.68 19.8515 13.7123 19.5987 13.7578C19.3463 13.8032 19.0897 13.8729 18.8794 14.0333C18.4507 14.3602 18.2304 14.8921 18.3023 15.4264C18.3377 15.6885 18.4698 15.9192 18.6162 16.1298C18.7627 16.3407 18.9689 16.5926 19.2186 16.8979L19.2186 16.8979L19.232 16.9142C19.3741 17.0879 19.4651 17.1995 19.5294 17.2897C19.5908 17.3759 19.6076 17.4155 19.6145 17.437C19.6514 17.5523 19.6451 17.677 19.597 17.7881C19.588 17.8088 19.5673 17.8465 19.4976 17.9261C19.4247 18.0095 19.3231 18.1115 19.1644 18.2702L18.2708 19.1638C18.112 19.3226 18.01 19.4242 17.9266 19.4972C17.8469 19.5669 17.8092 19.5876 17.7885 19.5966C17.6775 19.6447 17.5528 19.6509 17.4375 19.6141C17.416 19.6072 17.3764 19.5904 17.2902 19.5289C17.1999 19.4646 17.0883 19.3736 16.9145 19.2314L16.8983 19.2181L16.8982 19.2181C16.5928 18.9682 16.3408 18.762 16.1299 18.6154C15.9192 18.469 15.6884 18.3368 15.4262 18.3015C14.892 18.2297 14.3604 18.4499 14.0336 18.8784C13.8731 19.0887 13.8034 19.3455 13.7579 19.598C13.7124 19.8508 13.68 20.1749 13.6407 20.5676L13.6387 20.5886C13.6163 20.8121 13.6017 20.9554 13.5833 21.0648C13.5658 21.1692 13.5497 21.2092 13.5394 21.2292C13.4839 21.3367 13.3914 21.4205 13.2789 21.465C13.2579 21.4733 13.2166 21.4853 13.1109 21.4924C13.0003 21.4997 12.8563 21.5 12.6316 21.5H11.3682C11.1437 21.5 10.9997 21.4997 10.8891 21.4924C10.7835 21.4853 10.7421 21.4733 10.7211 21.465C10.6086 21.4205 10.5161 21.3367 10.4606 21.2292C10.4503 21.2091 10.4342 21.1692 10.4167 21.0648C10.3983 20.9555 10.3837 20.8122 10.3614 20.5888L10.3593 20.5679L10.3593 20.5678C10.32 20.1752 10.2876 19.8511 10.2421 19.5983C10.1967 19.3458 10.1269 19.0891 9.96644 18.8787C9.63958 18.4503 9.10801 18.2301 8.57392 18.3019C8.3117 18.3372 8.08085 18.4694 7.87015 18.6158C7.65921 18.7624 7.40714 18.9687 7.10176 19.2185L7.08546 19.2319C6.91165 19.3741 6.80004 19.4651 6.70976 19.5294C6.62355 19.5908 6.58396 19.6077 6.56244 19.6145C6.44719 19.6514 6.32251 19.6451 6.21151 19.597C6.19078 19.5881 6.15306 19.5673 6.07339 19.4977C5.98996 19.4247 5.88796 19.323 5.72916 19.1642L4.83572 18.2708C4.67693 18.112 4.5753 18.01 4.50232 17.9266C4.43262 17.8469 4.41191 17.8092 4.40292 17.7885C4.35482 17.6775 4.34861 17.5528 4.38542 17.4375C4.3923 17.416 4.40915 17.3764 4.47058 17.2902C4.5349 17.1999 4.62588 17.0883 4.76808 16.9145L4.78143 16.8982L4.78144 16.8982C5.03129 16.5928 5.23752 16.3408 5.38411 16.1298C5.53054 15.9192 5.66274 15.6883 5.69801 15.4261C5.76986 14.892 5.54966 14.3604 5.12119 14.0335C4.91083 13.8731 4.65413 13.8033 4.40161 13.7579C4.14881 13.7124 3.82476 13.68 3.43217 13.6407L3.43214 13.6407L3.41118 13.6386C3.18774 13.6163 3.04449 13.6017 2.93519 13.5833C2.8308 13.5658 2.79088 13.5497 2.77081 13.5394C2.66328 13.4839 2.57951 13.3914 2.53502 13.2789C2.52672 13.2578 2.5147 13.2165 2.50765 13.1109C2.50026 13.0003 2.5 12.8563 2.5 12.6318V11.3683C2.5 11.1437 2.50026 10.9997 2.50765 10.8891C2.51471 10.7834 2.52673 10.7421 2.53504 10.7211C2.57953 10.6086 2.66327 10.5161 2.77076 10.4606C2.79084 10.4503 2.83077 10.4342 2.93518 10.4167C3.04452 10.3983 3.18781 10.3837 3.41131 10.3614L3.4323 10.3593C3.825 10.32 4.14913 10.2876 4.402 10.2421C4.65458 10.1966 4.91135 10.1268 5.12174 9.9663C5.55004 9.63946 5.77016 9.10804 5.69841 8.57408C5.66317 8.31178 5.53094 8.08087 5.38448 7.87012C5.23784 7.65912 5.03155 7.40699 4.78162 7.10153L4.76826 7.0852C4.62599 6.91132 4.53497 6.79966 4.47063 6.70935C4.40918 6.6231 4.39232 6.58349 4.38545 6.56197C4.34866 6.44676 4.35488 6.32213 4.40294 6.21116C4.41192 6.19042 4.43264 6.15269 4.50236 6.07299C4.57537 5.98953 4.67704 5.88749 4.83589 5.72864L5.72921 4.83532C5.888 4.67653 5.99001 4.57489 6.07343 4.50191C6.15311 4.43221 6.19082 4.4115 6.21155 4.40252C6.32256 4.35442 6.44724 4.3482 6.56248 4.38501C6.58399 4.39188 6.62359 4.40874 6.70982 4.47018C6.80011 4.53451 6.91175 4.62551 7.08558 4.76774L7.10188 4.78108C7.40722 5.03091 7.65924 5.23711 7.87013 5.38369C8.08078 5.5301 8.31157 5.66229 8.57371 5.69759C9.10797 5.76954 9.63975 5.54927 9.96665 5.12062C10.127 4.9103 10.1968 4.65367 10.2422 4.40122C10.2877 4.14849 10.32 3.82454 10.3593 3.43208V3.43207L10.3614 3.41106C10.3837 3.18768 10.3983 3.04447 10.4167 2.93519C10.4342 2.83083 10.4502 2.79092 10.4606 2.77085C10.5161 2.66329 10.6086 2.57949 10.7212 2.53501ZM8.5 12C8.5 10.067 10.067 8.5 12 8.5C13.933 8.5 15.5 10.067 15.5 12C15.5 13.933 13.933 15.5 12 15.5C10.067 15.5 8.5 13.933 8.5 12ZM12 7.5C9.51472 7.5 7.5 9.51472 7.5 12C7.5 14.4853 9.51472 16.5 12 16.5C14.4853 16.5 16.5 14.4853 16.5 12C16.5 9.51472 14.4853 7.5 12 7.5Z" fill="#71717A"/>
</svg>
