<svg width="24" height="24" viewBox="0 0 24 24" fill="none" xmlns="http://www.w3.org/2000/svg">
<path fill-rule="evenodd" clip-rule="evenodd" d="M17.2411 7.49878C18.0782 7.49878 18.7568 6.82016 18.7568 5.98305C18.7568 5.14595 18.0782 4.46733 17.2411 4.46733C16.404 4.46733 15.7254 5.14595 15.7254 5.98305C15.7254 6.82016 16.404 7.49878 17.2411 7.49878ZM17.2411 8.69878C18.741 8.69878 19.9568 7.48291 19.9568 5.98305C19.9568 4.4832 18.741 3.26733 17.2411 3.26733C15.7413 3.26733 14.5254 4.4832 14.5254 5.98305C14.5254 6.26626 14.5687 6.53934 14.6492 6.79602L8.78802 10.1948C8.29061 9.63625 7.56598 9.28442 6.75918 9.28442C5.25933 9.28442 4.04346 10.5003 4.04346 12.0001C4.04346 13.5 5.25933 14.7159 6.75918 14.7159C7.64143 14.7159 8.42543 14.2952 8.92149 13.6434L14.7198 17.0058C14.5944 17.3183 14.5254 17.6594 14.5254 18.0167C14.5254 19.5166 15.7413 20.7325 17.2411 20.7325C18.741 20.7325 19.9568 19.5166 19.9568 18.0167C19.9568 16.5169 18.741 15.301 17.2411 15.301C16.5331 15.301 15.8883 15.572 15.4049 16.0159L9.42014 12.5454C9.45605 12.3693 9.4749 12.1869 9.4749 12.0001C9.4749 11.7382 9.43782 11.485 9.36862 11.2453L15.253 7.83305C15.7488 8.36565 16.456 8.69878 17.2411 8.69878ZM17.2411 19.5325C18.0782 19.5325 18.7568 18.8539 18.7568 18.0167C18.7568 17.1796 18.0782 16.501 17.2411 16.501C16.404 16.501 15.7254 17.1796 15.7254 18.0167C15.7254 18.8539 16.404 19.5325 17.2411 19.5325ZM8.2749 12.0001C8.2749 12.8373 7.59629 13.5159 6.75918 13.5159C5.92207 13.5159 5.24346 12.8373 5.24346 12.0001C5.24346 11.163 5.92207 10.4844 6.75918 10.4844C7.59629 10.4844 8.2749 11.163 8.2749 12.0001Z" fill="#71717A"/>
</svg>
