<svg width="24" height="24" viewBox="0 0 24 24" fill="none" xmlns="http://www.w3.org/2000/svg">
<path fill-rule="evenodd" clip-rule="evenodd" d="M12.6831 2.90645C12.4 2.36452 11.6125 2.36452 11.3295 2.90645L8.82933 7.68673C8.75655 7.82587 8.62264 7.92274 8.46772 7.94832L3.13448 8.82885C2.53351 8.92406 2.2833 9.66809 2.72172 10.1134C2.72155 10.1132 2.72189 10.1135 2.72172 10.1134L6.5112 13.9328C6.62273 14.0453 6.67442 14.2039 6.65054 14.3604L5.84083 19.6685C5.84079 19.6687 5.84087 19.6682 5.84083 19.6685C5.75098 20.2777 6.37615 20.739 6.9355 20.4664C6.93585 20.4662 6.93621 20.466 6.93656 20.4659L11.7838 18.0572C11.9239 17.9876 12.0886 17.9876 12.2288 18.0572L17.076 20.4659C17.0763 20.466 17.0767 20.4662 17.0771 20.4664C17.6364 20.739 18.2617 20.2785 18.1718 19.6692C18.1718 19.6689 18.1718 19.6694 18.1718 19.6692L17.362 14.3604C17.3381 14.2039 17.3898 14.0453 17.5013 13.9328L21.2913 10.1128L21.2927 10.1114C21.7216 9.68252 21.4878 8.93204 20.874 8.82818C20.8738 8.82814 20.8742 8.82822 20.874 8.82818L15.5448 7.94832C15.3899 7.92274 15.256 7.82587 15.1832 7.68673L12.6831 2.90645ZM13.5695 2.44355C12.9125 1.18548 11.1001 1.18548 10.4431 2.44355L8.05878 7.0023L2.97628 7.84143C1.55877 8.06734 1.0098 9.80175 2.01026 10.8161L5.62401 14.4585L4.85198 19.5196L4.85168 19.5215C4.64229 20.9315 6.09583 21.9903 7.37595 21.3642L7.37875 21.3628L12.0063 19.0633L16.6338 21.3628L16.6366 21.3642C17.9167 21.9903 19.3702 20.9315 19.1608 19.5215L18.3885 14.4585L21.9998 10.8186C22.0001 10.8183 22.0003 10.8181 22.0005 10.8178C23.0105 9.80683 22.4446 8.07848 21.0393 7.84193L15.9537 7.0023L13.5695 2.44355Z" fill="#71717A"/>
</svg>
