<svg width="24" height="24" viewBox="0 0 24 24" fill="none" xmlns="http://www.w3.org/2000/svg">
<path fill-rule="evenodd" clip-rule="evenodd" d="M9.67445 3.60006C10.1922 3.60006 10.3533 3.60391 10.4983 3.63874C10.6412 3.67303 10.7777 3.7296 10.903 3.80636C11.0302 3.88431 11.1468 3.99548 11.5129 4.36158L18.3129 11.1616C18.7159 11.5646 18.9924 11.8417 19.1894 12.0737C19.3818 12.3005 19.463 12.4444 19.503 12.5674C19.5943 12.8486 19.5943 13.1515 19.503 13.4327C19.463 13.5557 19.3818 13.6997 19.1894 13.9264C18.9924 14.1584 18.716 14.4355 18.3129 14.8385L14.8384 18.3131C14.4354 18.7161 14.1583 18.9925 13.9263 19.1895C13.6995 19.382 13.5556 19.4631 13.4326 19.5031C13.1514 19.5945 12.8485 19.5945 12.5673 19.5031C12.4443 19.4631 12.3003 19.382 12.0736 19.1895C11.8416 18.9925 11.5645 18.7161 11.1615 18.3131L4.36146 11.5131C3.99536 11.147 3.88419 11.0303 3.80624 10.9031C3.72948 10.7779 3.67291 10.6413 3.63862 10.4985C3.60379 10.3534 3.59994 10.1923 3.59994 9.67457V6.20006C3.59994 5.6301 3.6004 5.23872 3.62519 4.93532C3.64941 4.63892 3.69381 4.4797 3.75253 4.36447C3.88675 4.10104 4.10092 3.88687 4.36435 3.75265C4.47958 3.69394 4.6388 3.64953 4.9352 3.62531C5.2386 3.60052 5.62998 3.60006 6.19994 3.60006H9.67445ZM10.7785 2.4719C10.4779 2.39975 10.1658 2.39987 9.73831 2.40004L9.67445 2.40006H6.19994L6.1748 2.40006H6.1748C5.6361 2.40005 5.19553 2.40004 4.83748 2.4293C4.46687 2.45958 4.13215 2.52417 3.81956 2.68344C3.33034 2.93271 2.93259 3.33046 2.68332 3.81968C2.52404 4.13227 2.45946 4.46699 2.42918 4.8376C2.39992 5.19565 2.39993 5.63622 2.39993 6.17492V6.17492L2.39994 6.20006V9.67457L2.39992 9.73844C2.39975 10.1659 2.39962 10.4781 2.47177 10.7786C2.53546 11.0439 2.64052 11.2975 2.78307 11.5301C2.94456 11.7936 3.16538 12.0143 3.46776 12.3164L3.51293 12.3616L10.3129 19.1616L10.3307 19.1793C10.7116 19.5603 11.0231 19.8718 11.297 20.1043C11.5805 20.345 11.8628 20.536 12.1965 20.6444C12.7187 20.814 13.2812 20.814 13.8034 20.6444C14.137 20.536 14.4194 20.345 14.7029 20.1043C14.9767 19.8718 15.2883 19.5603 15.6692 19.1793L15.6869 19.1616L19.1615 15.6871L19.1792 15.6693L19.1792 15.6693C19.5601 15.2884 19.8717 14.9769 20.1042 14.703C20.3448 14.4195 20.5358 14.1372 20.6443 13.8035C20.8139 13.2813 20.8139 12.7188 20.6443 12.1966C20.5358 11.863 20.3448 11.5806 20.1042 11.2971C19.8717 11.0233 19.5602 10.7118 19.1793 10.3309L19.1792 10.3308L19.1615 10.3131L12.3615 3.51305L12.3163 3.46788C12.0142 3.1655 11.7935 2.94468 11.53 2.78319C11.2974 2.64064 11.0438 2.53559 10.7785 2.4719ZM7.01458 8.51471C7.84301 8.51471 8.51458 7.84313 8.51458 7.01471C8.51458 6.18628 7.84301 5.51471 7.01458 5.51471C6.18616 5.51471 5.51458 6.18628 5.51458 7.01471C5.51458 7.84313 6.18616 8.51471 7.01458 8.51471Z" fill="#71717A"/>
</svg>
