<svg width="24" height="24" viewBox="0 0 24 24" fill="none" xmlns="http://www.w3.org/2000/svg">
<path fill-rule="evenodd" clip-rule="evenodd" d="M10.5167 4.91677C10.5167 4.28164 11.0316 3.76677 11.6667 3.76677C12.3019 3.76677 12.8167 4.28164 12.8167 4.91677V14.0597C12.8167 14.2914 12.9501 14.5023 13.1593 14.6017C14.3375 15.1614 15.1501 16.3615 15.1501 17.7501C15.1501 19.6739 13.5905 21.2334 11.6667 21.2334C9.74294 21.2334 8.1834 19.6739 8.1834 17.7501C8.1834 16.3615 8.99595 15.1614 10.1742 14.6017C10.3834 14.5023 10.5167 14.2914 10.5167 14.0597V4.91677ZM11.6667 2.56677C10.3689 2.56677 9.31673 3.6189 9.31673 4.91677V13.6983C7.92242 14.5086 6.9834 16.0192 6.9834 17.7501C6.9834 20.3366 9.0802 22.4334 11.6667 22.4334C14.2533 22.4334 16.3501 20.3366 16.3501 17.7501C16.3501 16.0192 15.411 14.5086 14.0167 13.6983V4.91677C14.0167 3.6189 12.9646 2.56677 11.6667 2.56677ZM12.2664 16C12.2664 15.6687 11.9978 15.4 11.6664 15.4C11.335 15.4 11.0664 15.6687 11.0664 16V18.3334C11.0664 18.6647 11.335 18.9334 11.6664 18.9334C11.9978 18.9334 12.2664 18.6647 12.2664 18.3334V16ZM15.1499 12.5C15.1499 12.1687 15.4185 11.9 15.7499 11.9H18.0832C18.4146 11.9 18.6832 12.1687 18.6832 12.5C18.6832 12.8314 18.4146 13.1 18.0832 13.1H15.7499C15.4185 13.1 15.1499 12.8314 15.1499 12.5ZM15.7499 9.56677C15.4185 9.56677 15.1499 9.8354 15.1499 10.1668C15.1499 10.4981 15.4185 10.7668 15.7499 10.7668H18.0832C18.4146 10.7668 18.6832 10.4981 18.6832 10.1668C18.6832 9.8354 18.4146 9.56677 18.0832 9.56677H15.7499ZM15.1499 7.83352C15.1499 7.50215 15.4185 7.23352 15.7499 7.23352H18.0832C18.4146 7.23352 18.6832 7.50215 18.6832 7.83352C18.6832 8.16489 18.4146 8.43352 18.0832 8.43352H15.7499C15.4185 8.43352 15.1499 8.16489 15.1499 7.83352ZM15.7499 4.90002C15.4185 4.90002 15.1499 5.16865 15.1499 5.50002C15.1499 5.8314 15.4185 6.10002 15.7499 6.10002H20.4166C20.7479 6.10002 21.0166 5.8314 21.0166 5.50002C21.0166 5.16865 20.7479 4.90002 20.4166 4.90002H15.7499Z" fill="#71717A"/>
</svg>
