<svg width="24" height="24" viewBox="0 0 24 24" fill="none" xmlns="http://www.w3.org/2000/svg">
<path fill-rule="evenodd" clip-rule="evenodd" d="M6 2C3.79086 2 2 3.79086 2 6V18C2 20.2091 3.79086 22 6 22H18C20.2091 22 22 20.2091 22 18V6C22 3.79086 20.2091 2 18 2H6ZM16.3359 8.09359C16.9144 8.50886 17.6347 8.75502 18.4154 8.75502L18.4218 8.75451V10.8677C17.6582 10.868 16.9163 10.7256 16.2165 10.4446C15.7666 10.2638 15.3474 10.0308 14.964 9.74933L14.9755 14.4935C14.9707 15.5618 14.5266 16.5655 13.7229 17.3216C13.0689 17.937 12.2401 18.3283 11.3418 18.455C11.1308 18.4847 10.916 18.5 10.6987 18.5C9.73716 18.5 8.82421 18.2035 8.07745 17.6565C7.93691 17.5535 7.80252 17.4419 7.67454 17.3216C6.80354 16.5022 6.35441 15.3917 6.43002 14.2235C6.48773 13.3342 6.86179 12.4861 7.48538 11.8214C8.31043 10.9417 9.46464 10.4535 10.6987 10.4535C10.916 10.4535 11.1308 10.469 11.3418 10.4987V12.6539C11.1417 12.5911 10.928 12.5565 10.7054 12.5565C9.57793 12.5565 8.66578 13.4321 8.68261 14.506C8.6933 15.1931 9.08765 15.7938 9.6693 16.1249C9.94263 16.2805 10.2571 16.3769 10.5927 16.3944C10.8556 16.4081 11.1081 16.3733 11.3418 16.2998C12.1474 16.0465 12.7285 15.3264 12.7285 14.477L12.7312 11.3V5.5H14.9613C14.9635 5.71031 14.9859 5.91552 15.0276 6.11439C15.1959 6.91924 15.6725 7.61754 16.3359 8.09359Z" fill="#71717A"/>
</svg>
