<svg width="24" height="24" viewBox="0 0 24 24" fill="none" xmlns="http://www.w3.org/2000/svg">
<path fill-rule="evenodd" clip-rule="evenodd" d="M19.8 12C19.8 16.3078 16.3078 19.8 12 19.8C7.69218 19.8 4.2 16.3078 4.2 12C4.2 7.69218 7.69218 4.2 12 4.2C16.3078 4.2 19.8 7.69218 19.8 12ZM21 12C21 16.9706 16.9706 21 12 21C7.02944 21 3 16.9706 3 12C3 7.02944 7.02944 3 12 3C16.9706 3 21 7.02944 21 12ZM12.3412 7.77637C12.3412 7.445 12.0726 7.17637 11.7412 7.17637C11.4098 7.17637 11.1412 7.445 11.1412 7.77637V12.8101C11.1412 13.1414 11.4098 13.4101 11.7412 13.4101H16.9261C17.2575 13.4101 17.5261 13.1414 17.5261 12.8101C17.5261 12.4787 17.2575 12.2101 16.9261 12.2101H12.3412V7.77637Z" fill="#71717A"/>
</svg>
