<svg width="24" height="24" viewBox="0 0 24 24" fill="none" xmlns="http://www.w3.org/2000/svg">
<path d="M5.14286 19.3125C5.14286 19.7601 5.32347 20.1893 5.64496 20.5057C5.96645 20.8222 6.40249 21 6.85714 21H17.1429C17.5975 21 18.0336 20.8222 18.355 20.5057C18.6765 20.1893 18.8571 19.7601 18.8571 19.3125V7.5H5.14286V19.3125ZM14.8571 10.3125C14.8571 10.1633 14.9173 10.0202 15.0245 9.91476C15.1317 9.80927 15.277 9.75 15.4286 9.75C15.5801 9.75 15.7255 9.80927 15.8326 9.91476C15.9398 10.0202 16 10.1633 16 10.3125V18.1875C16 18.3367 15.9398 18.4798 15.8326 18.5852C15.7255 18.6907 15.5801 18.75 15.4286 18.75C15.277 18.75 15.1317 18.6907 15.0245 18.5852C14.9173 18.4798 14.8571 18.3367 14.8571 18.1875V10.3125ZM11.4286 10.3125C11.4286 10.1633 11.4888 10.0202 11.5959 9.91476C11.7031 9.80927 11.8484 9.75 12 9.75C12.1516 9.75 12.2969 9.80927 12.4041 9.91476C12.5112 10.0202 12.5714 10.1633 12.5714 10.3125V18.1875C12.5714 18.3367 12.5112 18.4798 12.4041 18.5852C12.2969 18.6907 12.1516 18.75 12 18.75C11.8484 18.75 11.7031 18.6907 11.5959 18.5852C11.4888 18.4798 11.4286 18.3367 11.4286 18.1875V10.3125ZM8 10.3125C8 10.1633 8.0602 10.0202 8.16737 9.91476C8.27453 9.80927 8.41988 9.75 8.57143 9.75C8.72298 9.75 8.86833 9.80927 8.97549 9.91476C9.08265 10.0202 9.14286 10.1633 9.14286 10.3125V18.1875C9.14286 18.3367 9.08265 18.4798 8.97549 18.5852C8.86833 18.6907 8.72298 18.75 8.57143 18.75C8.41988 18.75 8.27453 18.6907 8.16737 18.5852C8.0602 18.4798 8 18.3367 8 18.1875V10.3125ZM19.4286 4.12501H15.1429L14.8071 3.46758C14.736 3.32703 14.6265 3.20881 14.4908 3.1262C14.3552 3.0436 14.1988 2.99989 14.0393 3.00001H9.95714C9.79799 2.9994 9.64189 3.04295 9.50672 3.12564C9.37154 3.20834 9.26277 3.32684 9.19286 3.46758L8.85714 4.12501H4.57143C4.41988 4.12501 4.27453 4.18427 4.16737 4.28976C4.0602 4.39525 4 4.53832 4 4.68751V5.81251C4 5.96169 4.0602 6.10476 4.16737 6.21025C4.27453 6.31574 4.41988 6.37501 4.57143 6.37501H19.4286C19.5801 6.37501 19.7255 6.31574 19.8326 6.21025C19.9398 6.10476 20 5.96169 20 5.81251V4.68751C20 4.53832 19.9398 4.39525 19.8326 4.28976C19.7255 4.18427 19.5801 4.12501 19.4286 4.12501Z" fill="#71717A"/>
</svg>
