<svg width="24" height="24" viewBox="0 0 24 24" fill="none" xmlns="http://www.w3.org/2000/svg">
<path fill-rule="evenodd" clip-rule="evenodd" d="M12.6 4.79552C12.6 4.68755 12.6875 4.60002 12.7955 4.60002H12.9889C14.0331 4.60002 15.0037 5.13795 15.5571 6.02344C16.1979 7.04878 15.9366 8.39513 14.9588 9.10631L13.2353 10.3597C12.9709 10.552 12.6 10.3632 12.6 10.0363V4.79552ZM12.7955 3.40002C12.0248 3.40002 11.4 4.02481 11.4 4.79552V6.02174C10.7291 5.19833 9.69479 4.69221 8.56018 4.73194C7.10312 4.78296 5.77511 5.58099 5.04613 6.84362L4.94943 7.01111C4.56408 7.67856 4.79277 8.53203 5.46022 8.91739L6.52173 9.53025C5.47363 9.69987 4.51868 10.3424 3.98598 11.3445C3.30164 12.6319 3.32875 14.181 4.05773 15.4436L4.15443 15.6111C4.53978 16.2786 5.39325 16.5072 6.06071 16.1219L7.12214 15.5091C6.74482 16.5017 6.82377 17.6501 7.42533 18.6126C8.19804 19.849 9.55316 20.6 11.0111 20.6H11.2045C11.9752 20.6 12.6 19.9752 12.6 19.2045V17.9789C13.271 18.802 14.305 19.3078 15.4394 19.2681C16.8964 19.2171 18.2244 18.4191 18.9534 17.1564L19.0501 16.9889C19.4355 16.3215 19.2068 15.468 18.5393 15.0827L17.4779 14.4699C18.5262 14.3003 19.4813 13.6577 20.014 12.6555C20.6984 11.3682 20.6713 9.81906 19.9423 8.55643L19.8456 8.38894C19.4602 7.72149 18.6068 7.4928 17.9393 7.87816L16.8779 8.49097C17.2552 7.49839 17.1763 6.34994 16.5747 5.38744C15.802 4.15109 14.4469 3.40002 12.9889 3.40002H12.7955ZM12.6264 11.5931C12.3818 11.5331 12.1528 11.4165 11.9605 11.2538C11.7864 11.4356 11.5711 11.5756 11.3343 11.6609C11.4047 11.9027 11.4182 12.1592 11.3736 12.407C11.6181 12.4669 11.847 12.5835 12.0393 12.746C12.2134 12.5642 12.4288 12.4242 12.6657 12.339C12.5953 12.0973 12.5818 11.8408 12.6264 11.5931ZM5.98866 7.61111C5.93468 7.70461 5.96672 7.82417 6.06022 7.87816L10.5988 10.4985C10.8819 10.662 11.2309 10.4352 11.1966 10.1101L10.9728 7.99081C10.8459 6.78836 9.81057 5.88889 8.60217 5.93121C7.5586 5.96775 6.60747 6.53931 6.08537 7.44362L5.98866 7.61111ZM18.5393 8.91739C18.6328 8.8634 18.7524 8.89544 18.8064 8.98894L18.9031 9.15643C19.4252 10.0607 19.4446 11.1702 18.9545 12.0923C18.3869 13.1599 17.0903 13.6068 15.9854 13.1155L14.0382 12.2497C13.7395 12.1168 13.7176 11.7012 14.0007 11.5378L18.5393 8.91739ZM11.4 19.2045C11.4 19.3125 11.3125 19.4 11.2045 19.4H11.0111C9.96691 19.4 8.99636 18.8621 8.44293 17.9766C7.80209 16.9513 8.06339 15.6049 9.04126 14.8937L10.7647 13.6403C11.0291 13.448 11.4 13.6369 11.4 13.9638V19.2045ZM18.0109 16.3889C18.0649 16.2954 18.0328 16.1759 17.9393 16.1219L13.4007 13.5015C13.1176 13.3381 12.7686 13.5648 12.8029 13.8899L13.0267 16.0092C13.1537 17.2117 14.189 18.1112 15.3974 18.0688C16.4409 18.0323 17.3921 17.4607 17.9142 16.5564L18.0109 16.3889ZM5.46071 15.0827C5.36721 15.1366 5.24764 15.1046 5.19366 15.0111L5.09696 14.8436C4.57485 13.9393 4.55544 12.8298 5.04557 11.9078C5.61313 10.8401 6.90975 10.3933 8.01459 10.8845L9.96184 11.7504C10.2606 11.8832 10.2824 12.2988 9.99932 12.4623L5.46071 15.0827Z" fill="#71717A"/>
</svg>
