<svg width="24" height="24" viewBox="0 0 24 24" fill="none" xmlns="http://www.w3.org/2000/svg">
<path d="M18.8 11.0813C18.9281 10.7469 19 10.3812 19 10C19 8.34375 17.6562 7 16 7C15.3844 7 14.8094 7.1875 14.3344 7.50625C13.4688 6.00625 11.8531 5 10 5C7.2375 5 5 7.2375 5 10C5 10.0844 5.00312 10.1688 5.00625 10.2531C3.25625 10.8688 2 12.5375 2 14.5C2 16.9844 4.01562 19 6.5 19H18C20.2094 19 22 17.2094 22 15C22 13.0656 20.625 11.45 18.8 11.0813ZM14.2937 13H12.25V16.5C12.25 16.775 12.025 17 11.75 17H10.25C9.975 17 9.75 16.775 9.75 16.5V13H7.70625C7.25938 13 7.0375 12.4625 7.35313 12.1469L10.6469 8.85313C10.8406 8.65938 11.1594 8.65938 11.3531 8.85313L14.6469 12.1469C14.9625 12.4625 14.7375 13 14.2937 13Z" fill="#71717A"/>
</svg>
