<svg width="24" height="24" viewBox="0 0 24 24" fill="none" xmlns="http://www.w3.org/2000/svg">
<path fill-rule="evenodd" clip-rule="evenodd" d="M17.5756 11.4243C17.81 11.6586 18.1899 11.6586 18.4242 11.4243C18.6585 11.19 18.6585 10.8101 18.4242 10.5758L12.4242 4.57575L11.9999 4.15149L11.5756 4.57575L5.57564 10.5758C5.34132 10.8101 5.34132 11.19 5.57564 11.4243C5.80995 11.6586 6.18985 11.6586 6.42417 11.4243L11.3999 6.44855L11.3999 17C11.3999 17.3314 11.6685 17.6 11.9999 17.6C12.3313 17.6 12.5999 17.3314 12.5999 17V6.44855L17.5756 11.4243ZM4.9999 21.6C4.66853 21.6 4.3999 21.3314 4.3999 21C4.3999 20.6686 4.66853 20.4 4.9999 20.4H18.9999C19.3313 20.4 19.5999 20.6686 19.5999 21C19.5999 21.3314 19.3313 21.6 18.9999 21.6H4.9999Z" fill="#71717A"/>
</svg>
