<svg width="24" height="24" viewBox="0 0 24 24" fill="none" xmlns="http://www.w3.org/2000/svg">
<path fill-rule="evenodd" clip-rule="evenodd" d="M5.52412 19.2747L5.525 19.2749C9.81292 19.975 14.1871 19.975 18.475 19.2749L18.4757 19.2748C18.5664 19.26 18.6488 19.2135 18.7082 19.1437C18.7675 19.074 18.8 18.9855 18.8 18.8942V17.6687C18.8 16.9612 18.5188 16.2826 18.018 15.7821C17.5171 15.2815 16.8377 15.0002 16.129 15.0002H15.7781C15.717 15.0002 15.6512 15.0101 15.5847 15.031L14.6951 15.3216L14.6947 15.3217C12.9437 15.8929 11.0563 15.8929 9.30527 15.3217L9.30488 15.3216L8.41235 15.0301C8.41218 15.03 8.41202 15.03 8.41186 15.0299C8.35104 15.0102 8.28749 15.0002 8.22354 15.0002H8.22297H7.87097C7.16234 15.0002 6.48288 15.2815 5.98204 15.7821C5.48122 16.2826 5.2 16.9612 5.2 17.6687V18.8942C5.2 19.0832 5.33652 19.2442 5.52412 19.2747ZM8.78348 13.8889L9.67742 14.1809C11.1866 14.6732 12.8134 14.6732 14.3226 14.1809L15.2165 13.8889C15.3972 13.8312 15.5871 13.8002 15.7781 13.8002H16.129C17.1557 13.8002 18.1403 14.2078 18.8662 14.9333C19.5922 15.6587 20 16.6427 20 17.6687V18.8942C20 19.2706 19.866 19.6347 19.6221 19.9214C19.3781 20.2081 19.0401 20.3987 18.6684 20.4592C14.2524 21.1803 9.74761 21.1803 5.33161 20.4592C4.56361 20.3344 4 19.6721 4 18.8942V17.6687C4 16.6427 4.40783 15.6587 5.13378 14.9333C5.85973 14.2078 6.84432 13.8002 7.87097 13.8002H8.22297C8.41331 13.8001 8.60248 13.8301 8.78348 13.8889ZM12 5.2C11.2914 5.2 10.6119 5.48133 10.1111 5.98186C9.61025 6.48236 9.32903 7.16102 9.32903 7.8685C9.32903 8.57598 9.61025 9.25465 10.1111 9.75515C10.6119 10.2557 11.2914 10.537 12 10.537C12.7086 10.537 13.3881 10.2557 13.8889 9.75515C14.3897 9.25465 14.671 8.57598 14.671 7.8685C14.671 7.16102 14.3897 6.48236 13.8889 5.98186C13.3881 5.48133 12.7086 5.2 12 5.2ZM9.26281 5.13306C9.98876 4.40757 10.9734 4 12 4C13.0266 4 14.0112 4.40757 14.7372 5.13306C15.4631 5.85854 15.871 6.84251 15.871 7.8685C15.871 8.89449 15.4631 9.87846 14.7372 10.6039C14.0112 11.3294 13.0266 11.737 12 11.737C10.9734 11.737 9.98876 11.3294 9.26281 10.6039C8.53686 9.87846 8.12903 8.89449 8.12903 7.8685C8.12903 6.84251 8.53686 5.85854 9.26281 5.13306Z" fill="#71717A"/>
</svg>
