<svg width="24" height="24" viewBox="0 0 24 24" fill="none" xmlns="http://www.w3.org/2000/svg">
<path d="M12 4C10.9734 4 9.98876 4.40757 9.26281 5.13306C8.53686 5.85854 8.12903 6.84251 8.12903 7.8685C8.12903 8.89449 8.53686 9.87846 9.26281 10.6039C9.98876 11.3294 10.9734 11.737 12 11.737C13.0266 11.737 14.0112 11.3294 14.7372 10.6039C15.4631 9.87846 15.871 8.89449 15.871 7.8685C15.871 6.84251 15.4631 5.85854 14.7372 5.13306C14.0112 4.40757 13.0266 4 12 4ZM7.87097 13.8002C6.84432 13.8002 5.85973 14.2078 5.13378 14.9333C4.40783 15.6587 4 16.6427 4 17.6687V18.8942C4 19.6721 4.56361 20.3344 5.33161 20.4592C9.74761 21.1803 14.2524 21.1803 18.6684 20.4592C19.0401 20.3987 19.3781 20.2081 19.6221 19.9214C19.866 19.6347 20 19.2706 20 18.8942V17.6687C20 16.6427 19.5922 15.6587 18.8662 14.9333C18.1403 14.2078 17.1557 13.8002 16.129 13.8002H15.7781C15.5871 13.8002 15.3972 13.8312 15.2165 13.8889L14.3226 14.1809C12.8134 14.6732 11.1866 14.6732 9.67742 14.1809L8.78348 13.8889C8.60248 13.8301 8.41331 13.8001 8.22297 13.8002H7.87097Z" fill="#71717A"/>
</svg>
