<svg width="24" height="24" viewBox="0 0 24 24" fill="none" xmlns="http://www.w3.org/2000/svg">
<path fill-rule="evenodd" clip-rule="evenodd" d="M19.8139 5.41924C20.6744 5.64992 21.352 6.32963 21.582 7.19279C22 8.75721 22 12.0213 22 12.0213C22 12.0213 22 15.2853 21.582 16.8499C21.352 17.7129 20.6744 18.3926 19.8139 18.6234C18.2542 19.0426 12 19.0426 12 19.0426C12 19.0426 5.74583 19.0426 4.18613 18.6234C3.32564 18.3926 2.6479 17.7129 2.41792 16.8499C2 15.2853 2 12.0213 2 12.0213C2 12.0213 2 8.75721 2.41792 7.19279C2.6479 6.32963 3.32564 5.64992 4.18613 5.41924C5.74583 5 12 5 12 5C12 5 18.2542 5 19.8139 5.41924ZM15.1818 12.0214L9.95456 14.9848V9.05778L15.1818 12.0214Z" fill="#71717A"/>
</svg>
