<svg width="24" height="24" viewBox="0 0 24 24" fill="none" xmlns="http://www.w3.org/2000/svg">
<path fill-rule="evenodd" clip-rule="evenodd" d="M10.9999 4.60002C7.46528 4.60002 4.5999 7.4654 4.5999 11C4.5999 14.5346 7.46528 17.4 10.9999 17.4C14.5345 17.4 17.3999 14.5346 17.3999 11C17.3999 7.4654 14.5345 4.60002 10.9999 4.60002ZM3.3999 11C3.3999 6.80266 6.80254 3.40002 10.9999 3.40002C15.1973 3.40002 18.5999 6.80266 18.5999 11C18.5999 12.8827 17.9153 14.6055 16.7815 15.9331L20.4242 19.5758C20.6585 19.8101 20.6585 20.19 20.4242 20.4243C20.1899 20.6586 19.81 20.6586 19.5756 20.4243L15.933 16.7816C14.6054 17.9154 12.8826 18.6 10.9999 18.6C6.80254 18.6 3.3999 15.1974 3.3999 11ZM7.9999 11.6C7.66853 11.6 7.3999 11.3314 7.3999 11C7.3999 10.6687 7.66853 10.4 7.9999 10.4H13.9999C14.3313 10.4 14.5999 10.6687 14.5999 11C14.5999 11.3314 14.3313 11.6 13.9999 11.6H7.9999Z" fill="#71717A"/>
</svg>
