<svg width="24" height="24" viewBox="0 0 24 24" fill="none" xmlns="http://www.w3.org/2000/svg">
<path fill-rule="evenodd" clip-rule="evenodd" d="M4.5999 11C4.5999 7.4654 7.46528 4.60002 10.9999 4.60002C14.5345 4.60002 17.3999 7.4654 17.3999 11C17.3999 14.5346 14.5345 17.4 10.9999 17.4C7.46528 17.4 4.5999 14.5346 4.5999 11ZM10.9999 3.40002C6.80254 3.40002 3.3999 6.80266 3.3999 11C3.3999 15.1974 6.80254 18.6 10.9999 18.6C12.8826 18.6 14.6054 17.9154 15.933 16.7816L19.5756 20.4243C19.81 20.6586 20.1899 20.6586 20.4242 20.4243C20.6585 20.19 20.6585 19.8101 20.4242 19.5758L16.7815 15.9331C17.9153 14.6055 18.5999 12.8827 18.5999 11C18.5999 6.80266 15.1973 3.40002 10.9999 3.40002ZM10.9999 7.40002C11.3313 7.40002 11.5999 7.66865 11.5999 8.00002V10.4H13.9999C14.3313 10.4 14.5999 10.6687 14.5999 11C14.5999 11.3314 14.3313 11.6 13.9999 11.6H11.5999V14C11.5999 14.3314 11.3313 14.6 10.9999 14.6C10.6685 14.6 10.3999 14.3314 10.3999 14V11.6H7.9999C7.66853 11.6 7.3999 11.3314 7.3999 11C7.3999 10.6687 7.66853 10.4 7.9999 10.4H10.3999V8.00002C10.3999 7.66865 10.6685 7.40002 10.9999 7.40002Z" fill="#71717A"/>
</svg>
