<svg width="24" height="24" viewBox="0 0 24 24" fill="none" xmlns="http://www.w3.org/2000/svg">
<path d="M19.4675 7.82353C18.0747 8.64706 17.2145 10.0588 17.2145 11.6275C17.2145 13.3922 18.3205 15 20 15.6667C19.6723 16.6863 19.1807 17.6275 18.5663 18.4902C17.6651 19.7059 16.7229 20.9608 15.3301 20.9608C13.9373 20.9608 13.5277 20.1765 11.8892 20.1765C10.2916 20.1765 9.71807 21 8.40723 21C7.09639 21 6.19518 19.8627 5.17108 18.451C3.81928 16.4902 3.04096 14.2157 3 11.8235C3 7.94118 5.62169 5.86274 8.24337 5.86274C9.63614 5.86274 10.7831 6.72549 11.6434 6.72549C12.4627 6.72549 13.7735 5.82353 15.3301 5.82353C16.9687 5.78431 18.5253 6.52941 19.4675 7.82353ZM14.5928 4.17647C15.2892 3.39216 15.6578 2.41176 15.6988 1.39216C15.6988 1.27451 15.6988 1.11765 15.6578 1C14.4699 1.11765 13.3639 1.66667 12.5855 2.52941C11.8892 3.27451 11.4795 4.21569 11.4386 5.23529C11.4386 5.35294 11.4386 5.47059 11.4795 5.58824C11.5614 5.58824 11.6843 5.62745 11.7663 5.62745C12.8723 5.54902 13.8964 5 14.5928 4.17647Z" fill="#71717A"/>
</svg>
