<svg width="24" height="24" viewBox="0 0 24 24" fill="none" xmlns="http://www.w3.org/2000/svg">
<path d="M4.44287 7.00366H19.5571C20.4192 7.00366 21.1181 7.70256 21.1181 8.56469V18.1828C21.1181 19.045 20.4192 19.7439 19.5571 19.7439H4.44287C3.58073 19.7439 2.88184 19.045 2.88184 18.1828V8.56469C2.88184 7.70256 3.58073 7.00366 4.44287 7.00366Z" stroke="#71717A"/>
<path d="M7.19091 6.5039V5.12988C7.19091 4.76547 7.33567 4.41598 7.59335 4.1583C7.85103 3.90062 8.20052 3.75586 8.56493 3.75586H15.435C15.7994 3.75586 16.1489 3.90062 16.4066 4.1583C16.6643 4.41598 16.8091 4.76547 16.8091 5.12988V6.5039M21.6181 11.313H2.38184M14.748 11.313V12.3435C14.748 12.4346 14.7118 12.522 14.6474 12.5864C14.583 12.6508 14.4956 12.687 14.4045 12.687H9.59544C9.50434 12.687 9.41697 12.6508 9.35255 12.5864C9.28813 12.522 9.25194 12.4346 9.25194 12.3435V11.313" stroke="#71717A" stroke-width="1.2"/>
</svg>
