<svg width="24" height="24" viewBox="0 0 24 24" fill="none" xmlns="http://www.w3.org/2000/svg">
<path d="M16.9704 4.31641H7.3859C6.93777 4.31641 6.52698 4.5661 6.32066 4.96391L3.86474 9.69905C3.7762 9.86976 3.72998 10.0592 3.72998 10.2516V16.2574C3.72998 16.9202 4.26724 17.4574 4.92998 17.4574H19.2689C19.9316 17.4574 20.4689 16.9202 20.4689 16.2574V10.2356C20.4689 10.0535 20.4275 9.8738 20.3477 9.71011L18.0492 4.99095C17.8482 4.57827 17.4294 4.31641 16.9704 4.31641Z" stroke="#71717A"/>
<path d="M6.48865 9.18734L7.74107 6.72225C7.82633 6.55444 7.99861 6.44873 8.18684 6.44873H16.1617C16.3538 6.44873 16.5289 6.55879 16.6122 6.73189L17.7987 9.19698C17.9585 9.52893 17.7166 9.91382 17.3482 9.91382H6.93442C6.56132 9.91382 6.31965 9.51997 6.48865 9.18734Z" stroke="#71717A" stroke-linejoin="round"/>
<mask id="path-3-inside-1_3226_6346" fill="white">
<path d="M4.33545 17.6362C4.33545 17.8893 4.3853 18.1399 4.48215 18.3738C4.57901 18.6076 4.72097 18.82 4.89993 18.999C5.07889 19.178 5.29135 19.3199 5.52517 19.4168C5.75899 19.5136 6.00961 19.5635 6.2627 19.5635C6.51578 19.5635 6.7664 19.5136 7.00022 19.4168C7.23404 19.3199 7.4465 19.178 7.62546 18.999C7.80443 18.82 7.94639 18.6076 8.04324 18.3738C8.14009 18.1399 8.18994 17.8893 8.18994 17.6362L7.29772 17.6362C7.29772 17.7722 7.27095 17.9067 7.21894 18.0323C7.16692 18.1579 7.09068 18.272 6.99457 18.3681C6.89846 18.4642 6.78436 18.5405 6.65878 18.5925C6.53321 18.6445 6.39862 18.6713 6.2627 18.6713C6.12677 18.6713 5.99218 18.6445 5.86661 18.5925C5.74103 18.5405 5.62693 18.4642 5.53082 18.3681C5.43471 18.272 5.35847 18.1579 5.30645 18.0323C5.25444 17.9067 5.22767 17.7722 5.22767 17.6362L4.33545 17.6362Z"/>
</mask>
<path d="M4.33545 17.6362C4.33545 17.8893 4.3853 18.1399 4.48215 18.3738C4.57901 18.6076 4.72097 18.82 4.89993 18.999C5.07889 19.178 5.29135 19.3199 5.52517 19.4168C5.75899 19.5136 6.00961 19.5635 6.2627 19.5635C6.51578 19.5635 6.7664 19.5136 7.00022 19.4168C7.23404 19.3199 7.4465 19.178 7.62546 18.999C7.80443 18.82 7.94639 18.6076 8.04324 18.3738C8.14009 18.1399 8.18994 17.8893 8.18994 17.6362L7.29772 17.6362C7.29772 17.7722 7.27095 17.9067 7.21894 18.0323C7.16692 18.1579 7.09068 18.272 6.99457 18.3681C6.89846 18.4642 6.78436 18.5405 6.65878 18.5925C6.53321 18.6445 6.39862 18.6713 6.2627 18.6713C6.12677 18.6713 5.99218 18.6445 5.86661 18.5925C5.74103 18.5405 5.62693 18.4642 5.53082 18.3681C5.43471 18.272 5.35847 18.1579 5.30645 18.0323C5.25444 17.9067 5.22767 17.7722 5.22767 17.6362L4.33545 17.6362Z" stroke="#71717A" stroke-width="2" mask="url(#path-3-inside-1_3226_6346)"/>
<mask id="path-4-inside-2_3226_6346" fill="white">
<path d="M16.2363 17.6362C16.2363 17.8893 16.2862 18.1399 16.383 18.3738C16.4799 18.6076 16.6218 18.82 16.8008 18.999C16.9798 19.178 17.1922 19.3199 17.426 19.4168C17.6599 19.5136 17.9105 19.5635 18.1636 19.5635C18.4167 19.5635 18.6673 19.5136 18.9011 19.4168C19.1349 19.3199 19.3474 19.178 19.5263 18.999C19.7053 18.82 19.8473 18.6076 19.9441 18.3738C20.041 18.1399 20.0908 17.8893 20.0908 17.6362L19.1986 17.6362C19.1986 17.7722 19.1718 17.9067 19.1198 18.0323C19.0678 18.1579 18.9916 18.272 18.8954 18.3681C18.7993 18.4642 18.6852 18.5405 18.5597 18.5925C18.4341 18.6445 18.2995 18.6713 18.1636 18.6713C18.0277 18.6713 17.8931 18.6445 17.7675 18.5925C17.6419 18.5405 17.5278 18.4642 17.4317 18.3681C17.3356 18.272 17.2593 18.1579 17.2073 18.0323C17.1553 17.9067 17.1285 17.7722 17.1285 17.6362L16.2363 17.6362Z"/>
</mask>
<path d="M16.2363 17.6362C16.2363 17.8893 16.2862 18.1399 16.383 18.3738C16.4799 18.6076 16.6218 18.82 16.8008 18.999C16.9798 19.178 17.1922 19.3199 17.426 19.4168C17.6599 19.5136 17.9105 19.5635 18.1636 19.5635C18.4167 19.5635 18.6673 19.5136 18.9011 19.4168C19.1349 19.3199 19.3474 19.178 19.5263 18.999C19.7053 18.82 19.8473 18.6076 19.9441 18.3738C20.041 18.1399 20.0908 17.8893 20.0908 17.6362L19.1986 17.6362C19.1986 17.7722 19.1718 17.9067 19.1198 18.0323C19.0678 18.1579 18.9916 18.272 18.8954 18.3681C18.7993 18.4642 18.6852 18.5405 18.5597 18.5925C18.4341 18.6445 18.2995 18.6713 18.1636 18.6713C18.0277 18.6713 17.8931 18.6445 17.7675 18.5925C17.6419 18.5405 17.5278 18.4642 17.4317 18.3681C17.3356 18.272 17.2593 18.1579 17.2073 18.0323C17.1553 17.9067 17.1285 17.7722 17.1285 17.6362L16.2363 17.6362Z" stroke="#71717A" stroke-width="2" mask="url(#path-4-inside-2_3226_6346)"/>
<circle cx="7.70081" cy="13.3717" r="1.23596" stroke="#71717A"/>
<circle cx="16.6144" cy="13.3717" r="1.23596" stroke="#71717A"/>
</svg>
