<svg width="24" height="24" viewBox="0 0 24 24" fill="none" xmlns="http://www.w3.org/2000/svg">
<path d="M5.01953 9.12207C5.01953 8.56979 5.46725 8.12207 6.01953 8.12207H8.67318C9.22546 8.12207 9.67318 8.56979 9.67318 9.12207V19.1001H6.01953C5.46725 19.1001 5.01953 18.6524 5.01953 18.1001V9.12207Z" stroke="#71717A" stroke-width="1.2" stroke-linecap="round"/>
<path d="M9.67334 5.8999C9.67334 5.34762 10.1211 4.8999 10.6733 4.8999H13.327C13.8793 4.8999 14.327 5.34762 14.327 5.8999V19.0997H9.67334V5.8999Z" stroke="#71717A" stroke-width="1.2" stroke-linecap="round"/>
<path d="M14.3267 12.6135C14.3267 12.0612 14.7744 11.6135 15.3267 11.6135H17.9803C18.5326 11.6135 18.9803 12.0612 18.9803 12.6135V18.1001C18.9803 18.6523 18.5326 19.1001 17.9803 19.1001H14.3267V12.6135Z" stroke="#71717A" stroke-width="1.2" stroke-linecap="round"/>
</svg>
