<svg width="24" height="24" viewBox="0 0 24 24" fill="none" xmlns="http://www.w3.org/2000/svg">
<path d="M15.5406 9.99904L10.4864 17.0544C10.3346 17.2781 10.1395 17.4692 9.91268 17.6163C9.68586 17.7635 9.43189 17.8638 9.16571 17.9113C8.89954 17.9587 8.62656 17.9525 8.36284 17.8928C8.09913 17.8332 7.85002 17.7214 7.63019 17.564C7.41036 17.4066 7.22425 17.2067 7.08284 16.9763C6.94143 16.7458 6.84756 16.4894 6.80678 16.2221C6.766 15.9549 6.77912 15.6821 6.84538 15.42C6.91163 15.1579 7.02968 14.9116 7.19257 14.6958L14.3508 4.70248C14.789 4.09081 15.4521 3.67821 16.1944 3.5554C16.9367 3.43259 17.6958 3.6096 18.3076 4.04756C18.9193 4.48546 19.3321 5.14837 19.4552 5.89051C19.5783 6.63264 19.4017 7.39328 18.9641 8.00523L11.1186 18.9598C10.8398 19.3492 10.4871 19.6799 10.0805 19.9328C9.67387 20.1858 9.22139 20.3562 8.7489 20.4342C8.27641 20.5121 7.79318 20.4962 7.32685 20.3873C6.86051 20.2784 6.42022 20.0787 6.03113 19.7995C5.64157 19.5209 5.31072 19.1683 5.0575 18.7618C4.80428 18.3553 4.63365 17.9029 4.55537 17.4305C4.47709 16.958 4.49269 16.4747 4.60128 16.0083C4.70987 15.5418 4.90932 15.1014 5.18823 14.712L10.89 6.7514" stroke="#71717A" stroke-linecap="round"/>
</svg>
