<svg width="24" height="24" viewBox="0 0 24 24" fill="none" xmlns="http://www.w3.org/2000/svg">
<path d="M13.4094 19.1789V19.1789C15.9507 19.1789 18.0107 17.1188 18.0107 14.5776V9.01074C18.0107 5.6911 15.3196 3 12 3V3C8.68036 3 5.98926 5.69111 5.98926 9.01075V14.7767" stroke="#71717A"/>
<path d="M3.52686 10.5625C3.52686 9.73407 4.19843 9.0625 5.02686 9.0625H5.9624V14.335H5.02686C4.19843 14.335 3.52686 13.6634 3.52686 12.835V10.5625Z" stroke="#71717A"/>
<path d="M11.3978 20.1738C10.8081 20.1738 10.3301 19.6958 10.3301 19.1061C10.3301 18.5164 10.8081 18.0383 11.3978 18.0383L12.6022 18.0383C13.1919 18.0383 13.6699 18.5164 13.6699 19.1061C13.6699 19.6958 13.1919 20.1738 12.6022 20.1738L11.3978 20.1738Z" stroke="#71717A"/>
<path d="M20.4966 10.5625C20.4966 9.73407 19.825 9.0625 18.9966 9.0625H18.061V14.335H18.9966C19.825 14.335 20.4966 13.6634 20.4966 12.835V10.5625Z" stroke="#71717A"/>
</svg>
