<svg width="24" height="24" viewBox="0 0 24 24" fill="none" xmlns="http://www.w3.org/2000/svg">
<path d="M3.60082 12.2873C3.62718 10.4067 4.28394 8.58929 5.4659 7.12624C6.64787 5.6632 8.28666 4.63916 10.1198 4.21816C11.9529 3.79716 13.8743 4.00356 15.5761 4.80429C17.278 5.60502 18.6619 6.95375 19.5062 8.63445" stroke="#71717A" stroke-width="1.2" stroke-linecap="round" stroke-linejoin="round"/>
<path d="M20.3992 12.1177C20.3728 13.9983 19.7161 15.8157 18.5341 17.2788C17.3521 18.7418 15.7133 19.7659 13.8802 20.1869C12.0471 20.6079 10.1257 20.4015 8.42386 19.6007C6.72199 18.8 5.33808 17.4513 4.49382 15.7706" stroke="#71717A" stroke-width="1.2" stroke-linecap="round" stroke-linejoin="round"/>
<path d="M20.812 6.61572L20.0356 9.5135L17.1378 8.73704" stroke="#71717A" stroke-width="1.2" stroke-linecap="round" stroke-linejoin="round"/>
<path d="M3.18799 17.7893L3.96445 14.8915L6.86222 15.668" stroke="#71717A" stroke-width="1.2" stroke-linecap="round" stroke-linejoin="round"/>
</svg>
