<svg width="24" height="24" viewBox="0 0 24 24" fill="none" xmlns="http://www.w3.org/2000/svg">
<circle cx="9" cy="9" r="9" transform="matrix(1 0 0 -1 3 21)" fill="#71717A"/>
<path d="M12.5828 15.6627C12.5828 15.3313 12.3142 15.0627 11.9828 15.0627C11.6514 15.0627 11.3828 15.3313 11.3828 15.6627C11.3828 15.9941 11.6514 16.2627 11.9828 16.2627C12.3142 16.2627 12.5828 15.9941 12.5828 15.6627Z" fill="white"/>
<path fill-rule="evenodd" clip-rule="evenodd" d="M12.0002 13.6799C12.304 13.6799 12.5502 13.4337 12.5502 13.1299V8.03838C12.5502 7.73462 12.304 7.48838 12.0002 7.48838C11.6964 7.48838 11.4502 7.73462 11.4502 8.03838V13.1299C11.4502 13.4337 11.6964 13.6799 12.0002 13.6799Z" fill="white"/>
</svg>
