<svg width="24" height="24" viewBox="0 0 24 24" fill="none" xmlns="http://www.w3.org/2000/svg">
<path d="M5.95396 18.88L5.95397 18.88L5.9801 18.8734L5.98012 18.8734L8.60809 18.2164C8.62428 18.2124 8.64043 18.2084 8.65654 18.2044C8.87531 18.15 9.08562 18.0978 9.27707 17.9894C9.46852 17.881 9.62153 17.7275 9.7807 17.5679C9.79242 17.5561 9.80418 17.5444 9.81598 17.5325L17.0101 10.3385L17.0101 10.3385L17.0369 10.3117C17.3472 10.0014 17.6215 9.72715 17.8128 9.47638C18.0202 9.20457 18.1858 8.89104 18.1858 8.5C18.1858 8.10896 18.0202 7.79543 17.8128 7.52361C17.6215 7.27285 17.3472 6.99863 17.0369 6.68835L17.01 6.66152L16.8385 6.48995L16.8117 6.46314C16.5014 6.1528 16.2272 5.87853 15.9764 5.6872C15.7046 5.47981 15.391 5.31421 15 5.31421C14.609 5.31421 14.2954 5.47981 14.0236 5.6872C13.7729 5.87853 13.4986 6.15278 13.1884 6.46311L13.1615 6.48995L5.96745 13.684C5.95565 13.6958 5.94386 13.7076 5.93211 13.7193C5.77249 13.8785 5.61904 14.0315 5.51064 14.2229C5.40225 14.4144 5.34999 14.6247 5.29562 14.8435C5.29162 14.8596 5.28761 14.8757 5.28356 14.8919L4.62003 17.546C4.61762 17.5557 4.61518 17.5654 4.61272 17.5752C4.57411 17.7293 4.53044 17.9035 4.51593 18.0518C4.49978 18.2169 4.50127 18.5162 4.74255 18.7574C4.98383 18.9987 5.28307 19.0002 5.44819 18.9841C5.59646 18.9696 5.77072 18.9259 5.92479 18.8873C5.9346 18.8848 5.94433 18.8824 5.95396 18.88Z" stroke="#71717A" stroke-width="1.2"/>
<path d="M12.5 7L15.5 5L18.5 8L16.5 11L12.5 7Z" fill="#71717A"/>
</svg>
