<svg width="24" height="24" viewBox="0 0 24 24" fill="none" xmlns="http://www.w3.org/2000/svg">
<path d="M19.7167 12.6977H16.5359V11.0698H19.7167V12.6977ZM19.7167 13.6279H16.5359V15.2558H19.7167V13.6279ZM19.7167 5.95348H16.5359V7.58138H19.7167V5.95348ZM19.7167 8.51162H16.5359V10.1395H19.7167V8.51162ZM19.7167 16.186H16.5359V17.814H19.7167V16.186ZM21.9136 19.3954C21.8228 19.8791 21.2548 19.8907 20.8753 19.907H13.8096V22H12.3987L2 20.1395V3.8628L12.4601 2H13.8096V3.85349H20.6323C21.0162 3.86976 21.4388 3.84185 21.7728 4.07672C22.0068 4.42091 21.9841 4.85814 22 5.25347L21.9909 17.3605C21.9796 18.0372 22.0522 18.7279 21.9136 19.3954ZM10.3312 15.7465C9.70418 14.4442 9.06578 13.1512 8.44098 11.8488C9.05894 10.5814 9.66785 9.30931 10.2745 8.0372C9.75871 8.06279 9.24297 8.09534 8.72953 8.13257C8.34555 9.08836 7.89797 10.0186 7.59808 11.007C7.31863 10.0744 6.94832 9.17672 6.6098 8.26743C6.10996 8.29534 5.61012 8.32557 5.11031 8.3558C5.63738 9.54654 6.19859 10.7209 6.70976 11.9186C6.10769 13.0814 5.54426 14.2605 4.96035 15.4302C5.45789 15.4512 5.95547 15.4721 6.45301 15.4791C6.80746 14.5535 7.2482 13.6628 7.55719 12.7186C7.83437 13.7326 8.30465 14.6698 8.6909 15.6395C9.23844 15.6791 9.78367 15.714 10.3312 15.7465ZM20.9164 4.95798H13.8096V5.95348H15.6272V7.58138H13.8096V8.51162H15.6272V10.1395H13.8096V11.0698H15.6272V12.6977H13.8096V13.6279H15.6272V15.2558H13.8096V16.186H15.6272V17.814H13.8096V18.8894H20.9164V4.95798Z" fill="#71717A"/>
</svg>
