<svg width="24" height="24" viewBox="0 0 24 24" fill="none" xmlns="http://www.w3.org/2000/svg">
<path fill-rule="evenodd" clip-rule="evenodd" d="M6 2C3.79086 2 2 3.79086 2 6V18C2 20.2091 3.79086 22 6 22H10.5397H18C20.2091 22 22 20.2091 22 18V6C22 3.79086 20.2091 2 18 2H6ZM10.5397 22L12.1021 22H13.6645V14.8913H15.9947L16.4376 12H13.6645V10.124C13.6645 9.3337 14.0512 8.56166 15.2943 8.56166H16.5558V6.10068C16.5558 6.10068 15.4111 5.90521 14.317 5.90521C12.0332 5.90521 10.5397 7.28898 10.5397 9.79637V12H8V14.8913H10.5397V22Z" fill="#71717A"/>
</svg>
