<svg width="24" height="24" viewBox="0 0 24 24" fill="none" xmlns="http://www.w3.org/2000/svg">
<path d="M4.45067 13.9082L11.4033 20.4395C11.6428 20.6644 11.7625 20.7769 11.9037 20.8046C11.9673 20.8171 12.0327 20.8171 12.0963 20.8046C12.2375 20.7769 12.3572 20.6644 12.5967 20.4395L19.5493 13.9082C21.5055 12.0706 21.7431 9.0466 20.0978 6.92607C17.9877 4.20631 13.752 4.66243 12.2693 7.7691L12.1095 8.10387C12.0656 8.19598 11.9344 8.19598 11.8905 8.10387L11.7307 7.7691C10.248 4.66243 6.01234 4.20631 3.90219 6.92607C2.25695 9.0466 2.4945 12.0706 4.45067 13.9082Z" stroke="#71717A" stroke-width="1.2"/>
</svg>
