<svg width="24" height="24" viewBox="0 0 24 24" fill="none" xmlns="http://www.w3.org/2000/svg">
<path d="M18 15V9.10714C18 8.45657 17.5193 7.92857 16.89 7.92857C16.5 7.92857 15.75 8.16429 15.75 9.10714V6.75M15.75 6.75C15.75 6.09943 15.2693 5.57143 14.64 5.57143C14.2598 5.57143 13.5 5.80714 13.5 6.75M15.75 6.75V11.0714M13.5 6.75V5.17857C13.5 4.528 13.0193 4 12.39 4C11.76 4 11.25 4.528 11.25 5.17857V6.75M13.5 6.75V11.0714M11.25 6.75C11.25 5.80714 10.5053 5.57143 10.125 5.57143C9.495 5.57143 9 6.11436 9 6.76571V13.4286M11.25 6.75V11.0714" stroke="#71717A" stroke-width="1.2" stroke-linecap="round" stroke-linejoin="round"/>
<path d="M18 15.0913C18 18.3638 15.6034 20 12.647 20C9.69063 20 8.67356 19.1819 6.37943 15.0913L5.17806 12.9601C4.76818 12.25 5.09624 11.3288 5.85177 11.067C6.09883 10.9807 6.36472 10.9777 6.61341 11.0585C6.8621 11.1393 7.08155 11.2999 7.24202 11.5186L8.82345 13.4821" stroke="#71717A" stroke-width="1.2" stroke-linecap="round" stroke-linejoin="round"/>
</svg>
