<svg width="24" height="24" viewBox="0 0 24 24" fill="none" xmlns="http://www.w3.org/2000/svg">
<circle cx="12" cy="12" r="8.4" stroke="#71717A" stroke-width="1.2"/>
<path d="M12.0002 13.6181V12.8072C12.0002 12.2807 12.2451 11.7841 12.6628 11.4636L13.3038 10.9718C13.7993 10.5916 14.0899 10.0025 14.0899 9.37782V9.37782C14.0899 8.26819 13.1903 7.36865 12.0807 7.36865L11.9277 7.36865C10.7336 7.36865 9.76562 8.33666 9.76562 9.53077V9.68399" stroke="#71717A" stroke-linecap="round"/>
<path d="M12.5828 16.0313C12.5828 15.7 12.3142 15.4313 11.9828 15.4313C11.6514 15.4313 11.3828 15.7 11.3828 16.0313C11.3828 16.3627 11.6514 16.6313 11.9828 16.6313C12.3142 16.6313 12.5828 16.3627 12.5828 16.0313Z" fill="#71717A"/>
</svg>
