<svg width="24" height="24" viewBox="0 0 24 24" fill="none" xmlns="http://www.w3.org/2000/svg">
<path d="M2.6 6C2.6 4.12223 4.12223 2.6 6 2.6H18C19.8778 2.6 21.4 4.12223 21.4 6V18C21.4 19.8778 19.8778 21.4 18 21.4H6C4.12223 21.4 2.6 19.8778 2.6 18V6Z" stroke="#71717A" stroke-width="1.2"/>
<path d="M2.5 13.8847L5.74598 10.389C6.63477 9.4318 8.1876 9.56961 8.89394 10.6683L10.7415 13.5424C11.4036 14.5723 12.8274 14.7709 13.7461 13.9615L16.038 11.942C16.8515 11.2252 18.0881 11.2871 18.8259 12.0817L21.5 14.9616" stroke="#71717A" stroke-width="1.2"/>
<circle cx="16" cy="7" r="1.5" fill="#71717A"/>
</svg>
