<svg width="24" height="24" viewBox="0 0 24 24" fill="none" xmlns="http://www.w3.org/2000/svg">
<path fill-rule="evenodd" clip-rule="evenodd" d="M19.8 12C19.8 16.3078 16.3078 19.8 12 19.8C7.69218 19.8 4.2 16.3078 4.2 12C4.2 7.69218 7.69218 4.2 12 4.2C16.3078 4.2 19.8 7.69218 19.8 12ZM21 12C21 16.9706 16.9706 21 12 21C7.02944 21 3 16.9706 3 12C3 7.02944 7.02944 3 12 3C16.9706 3 21 7.02944 21 12ZM12 7.9C11.6686 7.9 11.4 8.16863 11.4 8.5C11.4 8.83137 11.6686 9.1 12 9.1H12.01C12.3414 9.1 12.61 8.83137 12.61 8.5C12.61 8.16863 12.3414 7.9 12.01 7.9H12ZM11 9.9C10.6686 9.9 10.4 10.1686 10.4 10.5C10.4 10.8314 10.6686 11.1 11 11.1H11.4V15C11.4 15.6075 11.8925 16.1 12.5 16.1H13C13.3314 16.1 13.6 15.8314 13.6 15.5C13.6 15.1686 13.3314 14.9 13 14.9H12.6V11C12.6 10.3925 12.1075 9.9 11.5 9.9H11Z" fill="#71717A"/>
</svg>
