<svg width="24" height="24" viewBox="0 0 24 24" fill="none" xmlns="http://www.w3.org/2000/svg">
<path fill-rule="evenodd" clip-rule="evenodd" d="M6 2C3.79086 2 2 3.79086 2 6V18C2 20.2091 3.79086 22 6 22H18C20.2091 22 22 20.2091 22 18V6C22 3.79086 20.2091 2 18 2H6ZM6.74614 4.43099C7.25417 4.23192 7.83556 4.09557 8.68677 4.0554C9.54007 4.01445 9.81248 4.00511 11.9846 4.00097C14.1572 3.99682 14.4296 4.00511 15.2829 4.04296C16.1344 4.07976 16.716 4.21403 17.2251 4.41103C17.7518 4.61398 18.1987 4.88719 18.644 5.33069C19.0893 5.7747 19.3635 6.22001 19.569 6.74594C19.7679 7.2545 19.9042 7.83537 19.9446 8.68712C19.9851 9.54015 19.9949 9.81231 19.9991 11.9847C20.0032 14.1568 19.9944 14.4295 19.9571 15.2833C19.92 16.1343 19.786 16.7162 19.589 17.225C19.3855 17.7517 19.1129 18.1986 18.6694 18.6439C18.2259 19.0895 17.78 19.3635 17.2541 19.5693C16.7456 19.7678 16.1647 19.9042 15.3135 19.9449C14.4602 19.9853 14.1878 19.9949 12.0149 19.999C9.84306 20.0032 9.57065 19.9949 8.71737 19.9573C7.86588 19.92 7.28398 19.786 6.77517 19.5892C6.24848 19.3855 5.80161 19.1131 5.3563 18.6693C4.91074 18.2256 4.63626 17.78 4.43097 17.2541C4.2319 16.7458 4.09607 16.1646 4.05538 15.3137C4.01469 14.4601 4.0051 14.1874 4.00096 12.0153C3.9968 9.8429 4.00536 9.57074 4.04268 8.71744C4.08027 7.8657 4.21376 7.28404 4.41075 6.77471C4.61422 6.24826 4.8869 5.80165 5.33091 5.35609C5.7744 4.91078 6.22022 4.63601 6.74614 4.43099ZM7.29436 18.2453C7.57662 18.3539 8.00015 18.4835 8.78009 18.5174C9.62405 18.554 9.87676 18.562 12.0123 18.5579C14.1486 18.554 14.4014 18.5449 15.2451 18.5052C16.0242 18.4682 16.4478 18.337 16.7292 18.2271C17.1028 18.0812 17.3687 17.9067 17.6481 17.6271C17.9275 17.3463 18.1004 17.0796 18.2451 16.7061C18.3539 16.4236 18.4833 15.9998 18.5172 15.2198C18.5543 14.3764 18.562 14.1234 18.5579 11.9873C18.554 9.85171 18.5449 9.59873 18.5048 8.75503C18.468 7.9756 18.3371 7.55205 18.2269 7.27082C18.081 6.89679 17.9071 6.63137 17.6266 6.35169C17.3461 6.072 17.0794 5.89963 16.7054 5.755C16.4236 5.64588 15.9996 5.51679 15.2202 5.48284C14.3762 5.44577 14.1232 5.43825 11.9872 5.4424C9.85162 5.44655 9.59891 5.4551 8.75521 5.49502C7.97553 5.53208 7.55251 5.66298 7.2705 5.77314C6.89725 5.91907 6.63131 6.09248 6.35164 6.3732C6.07247 6.65391 5.89959 6.92012 5.75496 7.29441C5.64662 7.57643 5.51623 8.00048 5.4828 8.77991C5.44599 9.62387 5.43822 9.87686 5.44236 12.0124C5.44626 14.1485 5.45532 14.4015 5.49498 15.2447C5.53153 16.0247 5.66345 16.4477 5.77311 16.7299C5.91903 17.1029 6.09296 17.3689 6.37315 17.6486C6.65387 17.9272 6.92059 18.1006 7.29436 18.2453ZM16.2635 8.68141C15.7337 8.68245 15.3029 8.25347 15.3018 7.72365C15.3008 7.19384 15.7298 6.76305 16.2598 6.76201C16.7899 6.76097 17.2207 7.19021 17.2217 7.72002C17.2225 8.24984 16.7935 8.68038 16.2635 8.68141ZM12.0076 16.1073C9.73939 16.1117 7.89673 14.2766 7.89234 12.0078C7.88792 9.73948 9.72357 7.89654 11.9918 7.89213C14.2606 7.88773 16.1035 9.72393 16.1079 11.992C16.1123 14.2608 14.2762 16.1029 12.0076 16.1073ZM11.9947 9.33357C10.5224 9.33616 9.33063 10.5324 9.33322 12.0049C9.33607 13.4777 10.5325 14.6693 12.0048 14.6664C13.4776 14.6636 14.6694 13.4676 14.6665 11.9948C14.6637 10.522 13.4672 9.33072 11.9947 9.33357Z" fill="#71717A"/>
</svg>
