<svg width="24" height="24" viewBox="0 0 24 24" fill="none" xmlns="http://www.w3.org/2000/svg">
<path d="M12 4L5 7L12 10L19 7L12 4Z" stroke="#71717A" stroke-width="1.2" stroke-linejoin="round"/>
<path fill-rule="evenodd" clip-rule="evenodd" d="M7.53316 10.2615L4.76365 11.4485C4.54304 11.543 4.4 11.7599 4.4 11.9999C4.4 12.24 4.54304 12.4569 4.76365 12.5514L11.7636 15.5514C11.9146 15.6161 12.0854 15.6161 12.2364 15.5514L19.2364 12.5514C19.457 12.4569 19.6 12.24 19.6 11.9999C19.6 11.7599 19.457 11.543 19.2364 11.4485L16.4668 10.2615L14.9437 10.9143L17.4768 11.9999L12 14.3472L6.52315 11.9999L9.05632 10.9143L7.53316 10.2615Z" fill="#71717A"/>
<path fill-rule="evenodd" clip-rule="evenodd" d="M7.53316 15.2615L4.76365 16.4485C4.54304 16.543 4.4 16.7599 4.4 16.9999C4.4 17.24 4.54304 17.4569 4.76365 17.5514L11.7636 20.5514C11.9146 20.6161 12.0854 20.6161 12.2364 20.5514L19.2364 17.5514C19.457 17.4569 19.6 17.24 19.6 16.9999C19.6 16.7599 19.457 16.543 19.2364 16.4485L16.4668 15.2615L14.9437 15.9143L17.4768 16.9999L12 19.3472L6.52315 16.9999L9.05632 15.9143L7.53316 15.2615Z" fill="#71717A"/>
</svg>
