<svg width="24" height="24" viewBox="0 0 24 24" fill="none" xmlns="http://www.w3.org/2000/svg">
<path d="M17.5001 16V16.2071L17.6465 16.3536L18.9365 17.6436C19.2536 17.9607 19.0316 18.5 18.5801 18.5H5.41005C4.97386 18.5 4.74267 17.9645 5.0636 17.6436L6.3536 16.3536L6.50005 16.2071V16V11C6.50005 8.09437 8.02224 5.78092 10.6153 5.16653L11.0001 5.07538V4.68V4C11.0001 3.44614 11.4462 3 12.0001 3C12.5539 3 13.0001 3.44614 13.0001 4V4.68V5.07506L13.3844 5.16644C15.9682 5.78076 17.5001 8.10482 17.5001 11V16ZM13.4136 20.5C13.2061 21.0806 12.6489 21.5 12.0001 21.5C11.3444 21.5 10.7908 21.0813 10.5854 20.5H13.4136Z" stroke="#71717A"/>
</svg>
