<svg width="24" height="24" viewBox="0 0 24 24" fill="none" xmlns="http://www.w3.org/2000/svg">
<path d="M20.6933 17.3294C21.0506 15.9959 21.0964 14.5982 20.8271 13.2442C20.5577 11.8902 19.9806 10.6164 19.1402 9.52115C18.2998 8.42593 17.2187 7.53872 15.9806 6.92815C14.7425 6.31757 13.3805 6 12 6C10.6195 6 9.25752 6.31757 8.0194 6.92815C6.78128 7.53872 5.70021 8.42593 4.85982 9.52115C4.01943 10.6164 3.44225 11.8902 3.17293 13.2442C2.90361 14.5982 2.94937 15.9959 3.30667 17.3294" stroke="#71717A" stroke-width="1.2" stroke-linecap="round"/>
<path d="M12.7659 15.5823C13.2534 16.2916 12.9106 17.3738 12.0003 17.9994C11.0899 18.625 9.95676 18.5571 9.4693 17.8477C8.9498 17.0917 7.1564 12.8409 6.06738 10.2114C5.86228 9.71621 6.46795 9.3 6.85672 9.669C8.92102 11.6283 12.2464 14.8263 12.7659 15.5823Z" stroke="#71717A" stroke-width="1.2"/>
<path d="M12 6V8" stroke="#71717A" stroke-width="1.2" stroke-linecap="round"/>
<path d="M18.3643 8.63574L16.95 10.05" stroke="#71717A" stroke-width="1.2" stroke-linecap="round"/>
<path d="M20.6934 17.3291L18.7615 16.8115" stroke="#71717A" stroke-width="1.2" stroke-linecap="round"/>
<path d="M3.30664 17.3291L5.23849 16.8115" stroke="#71717A" stroke-width="1.2" stroke-linecap="round"/>
</svg>
