<svg width="24" height="24" viewBox="0 0 24 24" fill="none" xmlns="http://www.w3.org/2000/svg">
<path d="M7.61328 14.9255V4.3938L8.78347 4.9789L9.95367 4.3938L11.1217 4.9789L12.3054 4.3938L13.4642 4.9789L14.6268 4.3938L15.7944 4.9789L16.9748 4.3938L18.1454 4.9789L19.3152 4.3938V12.5851" stroke="#71717A" stroke-linecap="round"/>
<path d="M19.3149 12.5852V16.6809C19.3149 17.4568 19.0067 18.2009 18.4581 18.7495C17.9095 19.2981 17.1653 19.6064 16.3895 19.6064M16.3895 19.6064C15.6136 19.6064 14.8695 19.2981 14.3208 18.7495C13.7722 18.2009 13.464 17.4568 13.464 16.6809V14.9256H5.27018C5.19315 14.9249 5.11676 14.9396 5.04547 14.9687C4.97417 14.9979 4.9094 15.041 4.85493 15.0954C4.80046 15.1499 4.75739 15.2147 4.72823 15.286C4.69907 15.3573 4.6844 15.4337 4.68508 15.5107C4.68508 17.8511 4.93155 19.6064 7.61056 19.6064H16.3895Z" stroke="#71717A" stroke-linecap="round"/>
<path d="M9.9541 7.90405H16.9753M12.2945 10.8295H16.9753" stroke="#71717A" stroke-linecap="round"/>
</svg>
