<svg width="24" height="24" viewBox="0 0 24 24" fill="none" xmlns="http://www.w3.org/2000/svg">
<path d="M3 9.67452V6.2C3 5.0799 3 4.51984 3.21799 4.09202C3.40973 3.71569 3.71569 3.40973 4.09202 3.21799C4.51984 3 5.0799 3 6.2 3H9.67452C10.1637 3 10.4083 3 10.6385 3.05526C10.8425 3.10425 11.0376 3.18506 11.2166 3.29472C11.4184 3.4184 11.5914 3.59135 11.9372 3.93725L11.9373 3.93726L18.7373 10.7373C19.5293 11.5293 19.9253 11.9253 20.0737 12.382C20.2042 12.7837 20.2042 13.2163 20.0737 13.618C19.9253 14.0747 19.5293 14.4707 18.7373 15.2627L15.2627 18.7373C14.4707 19.5293 14.0747 19.9253 13.618 20.0737C13.2163 20.2042 12.7837 20.2042 12.382 20.0737C11.9253 19.9253 11.5293 19.5293 10.7373 18.7373L3.93726 11.9373C3.59135 11.5914 3.4184 11.4184 3.29472 11.2166C3.18506 11.0376 3.10425 10.8425 3.05526 10.6385C3 10.4083 3 10.1637 3 9.67452Z" stroke="#71717A" stroke-width="1.2" stroke-linecap="round"/>
<circle cx="7.01465" cy="7.01465" r="1.5" fill="#71717A"/>
</svg>
