<svg width="24" height="24" viewBox="0 0 24 24" fill="none" xmlns="http://www.w3.org/2000/svg">
<path d="M13.4168 14.0597H12.8168C12.8168 14.2913 12.9502 14.5023 13.1594 14.6017L13.4168 14.0597ZM9.91683 14.0597L10.1743 14.6017C10.3835 14.5023 10.5168 14.2913 10.5168 14.0597H9.91683ZM12.8168 4.91675V14.0597H14.0168V4.91675H12.8168ZM11.6668 3.76675C12.302 3.76675 12.8168 4.28162 12.8168 4.91675H14.0168C14.0168 3.61888 12.9647 2.56675 11.6668 2.56675V3.76675ZM10.5168 4.91675C10.5168 4.28162 11.0317 3.76675 11.6668 3.76675V2.56675C10.369 2.56675 9.31683 3.61888 9.31683 4.91675H10.5168ZM10.5168 14.0597V4.91675H9.31683V14.0597H10.5168ZM8.1835 17.7501C8.1835 16.3614 8.99605 15.1614 10.1743 14.6017L9.65937 13.5177C8.07851 14.2687 6.9835 15.8809 6.9835 17.7501H8.1835ZM11.6668 21.2334C9.74304 21.2334 8.1835 19.6739 8.1835 17.7501H6.9835C6.9835 20.3366 9.0803 22.4334 11.6668 22.4334V21.2334ZM15.1502 17.7501C15.1502 19.6739 13.5906 21.2334 11.6668 21.2334V22.4334C14.2534 22.4334 16.3502 20.3366 16.3502 17.7501H15.1502ZM13.1594 14.6017C14.3376 15.1614 15.1502 16.3614 15.1502 17.7501H16.3502C16.3502 15.8809 15.2552 14.2687 13.6743 13.5177L13.1594 14.6017Z" fill="#71717A"/>
<path d="M11.667 18.3333V16" stroke="#71717A" stroke-width="1.2" stroke-linecap="round" stroke-linejoin="round"/>
<path d="M15.75 12.5H18.0833" stroke="#71717A" stroke-width="1.2" stroke-linecap="round" stroke-linejoin="round"/>
<path d="M15.75 10.1667H18.0833" stroke="#71717A" stroke-width="1.2" stroke-linecap="round" stroke-linejoin="round"/>
<path d="M15.75 7.8335H18.0833" stroke="#71717A" stroke-width="1.2" stroke-linecap="round" stroke-linejoin="round"/>
<path d="M15.75 5.5H20.4167" stroke="#71717A" stroke-width="1.2" stroke-linecap="round" stroke-linejoin="round"/>
</svg>
