<svg width="24" height="24" viewBox="0 0 24 24" fill="none" xmlns="http://www.w3.org/2000/svg">
<path d="M5.42831 19.867L5.42787 19.867C4.95007 19.7893 4.6 19.3776 4.6 18.8942V17.6687C4.6 16.802 4.94453 15.9707 5.55791 15.3577C6.1713 14.7447 7.00333 14.4002 7.87097 14.4002H8.22297H8.22325C8.35034 14.4001 8.47663 14.4201 8.59748 14.4594C8.59763 14.4594 8.59777 14.4595 8.59792 14.4595L9.49115 14.7512L9.49134 14.7513C11.1215 15.283 12.8785 15.283 14.5087 14.7513L14.5088 14.7512L15.3993 14.4604C15.3998 14.4602 15.4003 14.4601 15.4008 14.4599C15.5243 14.4206 15.6522 14.4002 15.7781 14.4002H16.129C16.9967 14.4002 17.8287 14.7447 18.4421 15.3577C19.0555 15.9707 19.4 16.802 19.4 17.6687V18.8942C19.4 19.1281 19.3168 19.3543 19.1651 19.5325C19.0135 19.7108 18.8032 19.8293 18.572 19.867L18.5717 19.867C14.2197 20.5777 9.78027 20.5777 5.42831 19.867ZM9.68694 5.55746C10.3003 4.94445 11.1324 4.6 12 4.6C12.8676 4.6 13.6997 4.94445 14.3131 5.55746C14.9264 6.17045 15.271 7.00176 15.271 7.8685C15.271 8.73524 14.9264 9.56655 14.3131 10.1795C13.6997 10.7926 12.8676 11.137 12 11.137C11.1324 11.137 10.3003 10.7926 9.68694 10.1795C9.07356 9.56655 8.72903 8.73524 8.72903 7.8685C8.72903 7.00176 9.07356 6.17045 9.68694 5.55746Z" stroke="#71717A" stroke-width="1.2"/>
</svg>
