<svg width="24" height="24" viewBox="0 0 24 24" fill="none" xmlns="http://www.w3.org/2000/svg">
<path d="M12.5828 17.1526C12.5828 16.8212 12.3142 16.5526 11.9828 16.5526C11.6514 16.5526 11.3828 16.8212 11.3828 17.1526C11.3828 17.4839 11.6514 17.7526 11.9828 17.7526C12.3142 17.7526 12.5828 17.4839 12.5828 17.1526Z" fill="#71717A"/>
<path fill-rule="evenodd" clip-rule="evenodd" d="M12.0002 15.1698C12.304 15.1698 12.5502 14.9236 12.5502 14.6198V9.52825C12.5502 9.22449 12.304 8.97825 12.0002 8.97825C11.6964 8.97825 11.4502 9.22449 11.4502 9.52825V14.6198C11.4502 14.9236 11.6964 15.1698 12.0002 15.1698Z" fill="#71717A"/>
<path fill-rule="evenodd" clip-rule="evenodd" d="M20.7988 18.6202L12.6926 4.57986C12.3847 4.04652 11.6149 4.04653 11.307 4.57986L3.20079 18.6202C2.89287 19.1535 3.27777 19.8202 3.8936 19.8202H20.106C20.7218 19.8202 21.1067 19.1535 20.7988 18.6202ZM13.7319 3.97986C12.9621 2.64653 11.0376 2.64652 10.2678 3.97986L2.16156 18.0202C1.39176 19.3535 2.354 21.0202 3.8936 21.0202H20.106C21.6456 21.0202 22.6079 19.3535 21.8381 18.0202L13.7319 3.97986Z" fill="#71717A"/>
</svg>
