<?xml version="1.0" standalone="no"?>
<!DOCTYPE svg PUBLIC "-//W3C//DTD SVG 1.1//EN" "http://www.w3.org/Graphics/SVG/1.1/DTD/svg11.dtd" >
<svg xmlns="http://www.w3.org/2000/svg">
<defs>
  <font id="icon" horiz-adv-x="1000">
    <font-face font-family="icon"
      units-per-em="1000" ascent="1000"
      descent="0" />
    <missing-glyph horiz-adv-x="0" />
    <glyph glyph-name="apple"
      unicode="&#xEA01;"
      horiz-adv-x="1000" d="M811.1458333333334 674.0195833333333C753.1125 639.7058333333334 717.2708333333334 580.8833333333334 717.2708333333334 515.5208333333334C717.2708333333334 441.9916666666667 763.3541666666666 375 833.3333333333333 347.2208333333333C819.6791666666666 304.7375000000001 799.1958333333333 265.5208333333334 773.5958333333332 229.575C736.0458333333332 178.9208333333334 696.7874999999999 126.6333333333335 638.7541666666666 126.6333333333335C580.7208333333333 126.6333333333335 563.6541666666666 159.3125 495.3833333333333 159.3125C428.8166666666667 159.3125 404.9195833333333 125 350.30125 125C295.6829166666667 125 258.1325 172.3875000000001 215.4616666666667 231.2083333333334C159.1366666666667 312.9083333333333 126.7066666666667 407.6791666666667 125 507.3541666666667C125 669.1175000000001 234.2370833333333 755.7191666666668 343.47375 755.7191666666668C401.5058333333333 755.7191666666668 449.2958333333333 719.77125 485.1416666666667 719.77125C519.2791666666666 719.77125 573.8958333333333 757.3529166666667 638.7541666666666 757.3529166666667C707.0291666666666 758.9870833333334 771.8875 727.9412500000001 811.1458333333334 674.0195833333333zM608.0333333333333 825.9804166666667C637.05 858.66 652.4083333333333 899.51 654.1166666666667 941.9933333333335C654.1166666666667 946.8954166666666 654.1166666666667 953.43125 652.4083333333333 958.3333333333334C602.9125 953.43125 556.8291666666667 930.5554166666668 524.3958333333333 894.6079166666667C495.3833333333333 863.5620833333334 478.3124999999999 824.34625 476.6083333333333 781.8629166666667C476.6083333333333 776.9608333333333 476.6083333333333 772.05875 478.3124999999999 767.1566666666668C481.725 767.1566666666668 486.8458333333333 765.5229166666667 490.2624999999999 765.5229166666667C536.3458333333333 768.7908333333334 579.0166666666667 791.6666666666667 608.0333333333333 825.9804166666667z" />
    <glyph glyph-name="arrow-down"
      unicode="&#xEA02;"
      horiz-adv-x="1000" d="M232.3183333333334 434.3416666666667C242.08125 444.1083333333334 257.9104166666667 444.1083333333334 267.67375 434.3416666666667L474.9958333333333 227.0208333333334L474.9958333333333 791.6654166666667C474.9958333333333 805.4729166666666 486.1874999999999 816.6658333333334 499.9958333333333 816.6658333333334C513.8041666666667 816.6658333333334 524.9958333333333 805.4729166666666 524.9958333333333 791.6654166666667L524.9958333333333 227.0208333333334L732.3166666666667 434.3416666666667C742.0833333333333 444.1083333333334 757.9125 444.1083333333334 767.675 434.3416666666667C777.4375 424.5791666666667 777.4375 408.75 767.675 398.9875L517.675 148.9875000000001C507.9125 139.225 492.0833333333333 139.225 482.3166666666666 148.9875000000001L232.3183333333334 398.9875C222.555 408.75 222.555 424.5791666666667 232.3183333333334 434.3416666666667z" />
    <glyph glyph-name="arrow-dropdown-up"
      unicode="&#xEA03;"
      horiz-adv-x="1000" d="M500 625L708.3333333333333 416.6666666666668L291.6666666666667 416.6666666666668L500 625z" />
    <glyph glyph-name="arrow-dropdown"
      unicode="&#xEA04;"
      horiz-adv-x="1000" d="M500 375L291.6666666666667 583.3333333333334H708.3333333333333L500 375z" />
    <glyph glyph-name="arrow-left"
      unicode="&#xEA05;"
      horiz-adv-x="1000" d="M434.3416666666667 767.6766666666667C444.1041666666667 757.91375 444.1041666666667 742.0845833333333 434.3416666666667 732.32125L227.0179166666667 525H791.6624999999999C805.4708333333332 525 816.6625 513.8041666666668 816.6625 500C816.6625 486.1916666666667 805.4708333333332 475 791.6624999999999 475H227.0179166666667L434.3416666666667 267.675C444.1041666666667 257.9125000000002 444.1041666666667 242.0833333333334 434.3416666666667 232.3208333333335C424.5791666666667 222.5583333333334 408.7479166666667 222.5583333333334 398.985 232.3208333333335L148.985 482.3208333333333C139.2216666666667 492.0833333333334 139.2216666666667 507.9125 148.985 517.6750000000001L398.985 767.6766666666667C408.7479166666667 777.4395833333333 424.5791666666667 777.4395833333333 434.3416666666667 767.6766666666667z" />
    <glyph glyph-name="arrow-right"
      unicode="&#xEA06;"
      horiz-adv-x="1000" d="M565.65 767.6766666666667C555.8874999999999 757.91375 555.8874999999999 742.0845833333333 565.65 732.32125L772.975 525H208.3291666666667C194.5220833333333 525 183.3291666666667 513.8041666666668 183.3291666666667 500C183.3291666666667 486.1916666666667 194.5220833333333 475 208.3291666666667 475H772.975L565.65 267.675C555.8874999999999 257.9125000000002 555.8874999999999 242.0833333333334 565.65 232.3208333333335C575.4166666666666 222.5583333333334 591.2458333333333 222.5583333333334 601.0083333333333 232.3208333333335L851.0083333333332 482.3208333333333C860.7708333333333 492.0833333333334 860.7708333333333 507.9125 851.0083333333332 517.6750000000001L601.0083333333333 767.6766666666667C591.2458333333333 777.4395833333333 575.4166666666666 777.4395833333333 565.65 767.6766666666667z" />
    <glyph glyph-name="arrow-up"
      unicode="&#xEA07;"
      horiz-adv-x="1000" d="M232.3183333333334 565.6541666666667C242.08125 555.8916666666667 257.9104166666667 555.8916666666667 267.67375 565.6541666666667L474.9958333333333 772.9770833333333L474.9958333333333 208.3333333333334C474.9958333333333 194.5250000000001 486.1874999999999 183.3333333333334 499.9958333333333 183.3333333333334C513.8041666666667 183.3333333333334 524.9958333333333 194.5250000000001 524.9958333333333 208.3333333333334L524.9958333333333 772.9770833333333L732.3166666666667 565.6541666666667C742.0833333333333 555.8916666666667 757.9125 555.8916666666667 767.675 565.6541666666667C777.4375 575.4166666666667 777.4375 591.2470833333334 767.675 601.01L517.675 851.01C507.9125 860.7729166666667 492.0833333333333 860.7729166666667 482.3166666666666 851.01L232.3183333333334 601.01C222.555 591.2466666666667 222.555 575.4166666666667 232.3183333333334 565.6541666666667z" />
    <glyph glyph-name="briefcase"
      unicode="&#xEA08;"
      horiz-adv-x="1000" d="M334.0670833333333 809.06375C340.1154166666667 815.1120833333333 348.31875 818.51 356.8720833333333 818.51H643.125C651.6791666666667 818.51 659.8833333333332 815.1120833333333 665.9291666666667 809.06375C671.9791666666666 803.0158333333334 675.3791666666666 794.8125 675.3791666666666 786.2591666666667V729.0183333333333H324.62125V786.2591666666667C324.62125 794.8125 328.0191666666667 803.0158333333334 334.0670833333333 809.06375zM274.62125 729.0183333333333V786.2591666666667C274.62125 808.0733333333334 283.2870833333334 828.9941666666666 298.7120833333333 844.4191666666667C314.1370833333334 859.8441666666666 335.0579166666667 868.51 356.8720833333333 868.51H643.125C664.9416666666666 868.51 685.8625 859.8441666666666 701.2874999999999 844.4191666666667C716.7125 828.9941666666666 725.3791666666666 808.0733333333334 725.3791666666666 786.2591666666667V729.0183333333333H814.8791666666666C862.3083333333333 729.0183333333333 900.7541666666664 690.57 900.7541666666664 643.1416666666667V553.6291666666667V503.6291666666667V242.3875000000001C900.7541666666664 194.9583333333334 862.3083333333333 156.5083333333333 814.8791666666666 156.5083333333333H185.1195833333334C137.69125 156.5083333333333 99.2433333333333 194.9583333333334 99.2433333333333 242.3875000000001V503.6291666666667V553.6291666666667V643.1416666666667C99.2433333333333 690.57 137.69125 729.0183333333333 185.1195833333334 729.0183333333333H274.62125zM140.91 503.6291666666667V242.3875000000001C140.91 217.9708333333334 160.7033333333333 198.1750000000001 185.1195833333334 198.1750000000001H814.8791666666666C839.2958333333333 198.1750000000001 859.0874999999999 217.9708333333334 859.0874999999999 242.3875000000001V503.6291666666667H639.5V485.6916666666666C639.5 475.2666666666667 635.3583333333332 465.2666666666667 627.9875 457.8916666666667C620.6125 450.5208333333334 610.6125 446.3791666666667 600.1875 446.3791666666667H399.81C389.38375 446.3791666666667 379.3845833333334 450.5208333333334 372.0120833333334 457.8916666666667C364.6391666666667 465.2666666666667 360.4975 475.2666666666667 360.4975 485.6916666666666V503.6291666666667H140.91zM859.0874999999999 553.6291666666667H140.91V643.1416666666667C140.91 667.5583333333334 160.7033333333333 687.3516666666667 185.1195833333334 687.3516666666667H814.8791666666666C839.2958333333333 687.3516666666667 859.0874999999999 667.5583333333334 859.0874999999999 643.1416666666667V553.6291666666667zM410.4975 496.3791666666667V503.6291666666667H589.5V496.3791666666667H410.4975z" />
    <glyph glyph-name="calendar"
      unicode="&#xEA09;"
      horiz-adv-x="1000" d="M333.3291666666667 900.0041666666666C347.13625 900.0041666666666 358.3291666666667 888.81125 358.3291666666667 875.0041666666667L358.3291666666667 775.0041666666667H641.6625L641.6625 875.0041666666667C641.6625 888.81125 652.8541666666666 900.0041666666666 666.6625 900.0041666666666C680.4708333333332 900.0041666666666 691.6625 888.81125 691.6625 875.0041666666667L691.6625 775.0041666666667H708.3291666666667L710.1208333333333 775.0041666666667C747.8791666666667 775.005 778.7374999999998 775.0054166666666 803.0999999999999 771.73C828.5666666666666 768.3066666666666 850.6416666666667 760.8970833333333 868.2666666666667 743.2741666666667C885.8874999999999 725.6508333333334 893.3 703.5729166666667 896.7208333333333 678.1079166666666C899.9958333333334 653.7462499999999 899.9958333333334 622.8891666666666 899.9958333333334 585.1291666666667V585.1270833333333V583.3375000000001V541.6708333333333V291.6708333333334V289.8791666666667V289.8791666666667C899.9958333333334 252.1166666666667 899.9958333333334 221.2625000000002 896.7208333333333 196.9000000000001C893.3 171.4333333333334 885.8874999999999 149.3583333333334 868.2666666666667 131.7333333333334C850.6416666666667 114.1125000000001 828.5666666666666 106.7000000000001 803.0999999999999 103.2791666666667C778.7374999999998 100.0041666666666 747.8833333333333 100.0041666666666 710.1208333333333 100.0041666666666H710.1208333333333H708.3291666666667H291.6625H289.8729166666667H289.8708333333334C252.1108333333333 100.0041666666666 221.25375 100.0041666666666 196.8920833333333 103.2791666666667C171.4270833333334 106.7000000000001 149.3491666666667 114.1125000000001 131.72625 131.7333333333334C114.1029166666667 149.3583333333334 106.69375 171.4333333333334 103.27 196.9000000000001C99.9945833333333 221.2625000000002 99.995 252.1208333333333 99.9958333333333 289.8791666666667V289.8791666666667V291.6708333333334V541.6708333333333V583.3375000000001V585.1270833333333V585.1279166666667C99.995 622.8887500000001 99.9945833333333 653.7458333333334 103.27 678.1079166666666C106.69375 703.5729166666667 114.1029166666667 725.6508333333334 131.72625 743.2741666666667C149.3491666666667 760.8970833333333 171.4270833333334 768.3066666666666 196.8920833333333 771.73C221.2541666666667 775.0054166666666 252.1116666666667 775.005 289.8725 775.0041666666667H289.8729166666667L291.6625 775.0041666666667H308.3291666666667L308.3291666666667 875.0041666666667C308.3291666666667 888.81125 319.5220833333333 900.0041666666666 333.3291666666667 900.0041666666666zM641.6625 725.0041666666666V708.3375000000001C641.6625 694.5304166666667 652.8541666666666 683.3375000000001 666.6625 683.3375000000001C680.4708333333332 683.3375000000001 691.6625 694.5304166666667 691.6625 708.3375000000001V725.0041666666666H708.3291666666667C748.3208333333333 725.0041666666666 775.7958333333332 724.9508333333333 796.4374999999999 722.1758333333333C816.3583333333333 719.4979166666667 826.125 714.7033333333334 832.9124999999999 707.91875C839.6958333333332 701.1341666666667 844.4916666666667 691.36625 847.1666666666666 671.4454166666667C849.9416666666665 650.8058333333333 849.9958333333333 623.3279166666666 849.9958333333333 583.3375000000001V566.6708333333333L149.9958333333333 566.6708333333333V583.3375000000001C149.9958333333333 623.3279166666666 150.0491666666667 650.8058333333333 152.8241666666667 671.4454166666667C155.5025 691.36625 160.2966666666667 701.1341666666667 167.08125 707.91875C173.86625 714.7033333333334 183.63375 719.4979166666667 203.5545833333333 722.1758333333333C224.1941666666666 724.9508333333333 251.6720833333334 725.0041666666666 291.6625 725.0041666666666H308.3291666666667V708.3375000000001C308.3291666666667 694.5304166666667 319.5220833333333 683.3375000000001 333.3291666666667 683.3375000000001C347.13625 683.3375000000001 358.3291666666667 694.5304166666667 358.3291666666667 708.3375000000001V725.0041666666666H641.6625zM849.9958333333333 516.6708333333333L149.9958333333333 516.6708333333333V291.6708333333334C149.9958333333333 251.6791666666667 150.0491666666667 224.2041666666668 152.8241666666667 203.5625000000001C155.5025 183.6416666666667 160.2966666666667 173.875 167.08125 167.0875000000001C173.86625 160.3041666666668 183.63375 155.5083333333333 203.5545833333333 152.8333333333334C224.1941666666666 150.0583333333335 251.6720833333334 150.0041666666667 291.6625 150.0041666666667H708.3291666666667C748.3208333333333 150.0041666666667 775.7958333333332 150.0583333333335 796.4374999999999 152.8333333333334C816.3583333333333 155.5083333333333 826.125 160.3041666666668 832.9124999999999 167.0875000000001C839.6958333333332 173.875 844.4916666666667 183.6416666666667 847.1666666666666 203.5625000000001C849.9416666666665 224.2041666666668 849.9958333333333 251.6791666666667 849.9958333333333 291.6708333333334V516.6708333333333zM374.9958333333334 358.3375C361.1887500000001 358.3375 349.9958333333334 347.1458333333334 349.9958333333334 333.3375C349.9958333333334 319.5291666666668 361.1887500000001 308.3375 374.9958333333334 308.3375H624.9958333333333C638.8041666666667 308.3375 649.9958333333333 319.5291666666668 649.9958333333333 333.3375C649.9958333333333 347.1458333333334 638.8041666666667 358.3375 624.9958333333333 358.3375H374.9958333333334z" />
    <glyph glyph-name="cancel"
      unicode="&#xEA0A;"
      horiz-adv-x="1000" d="M500 125C707.1083333333333 125 875 292.8916666666667 875 500C875 707.1066666666667 707.1083333333333 875 500 875C292.8933333333333 875 125 707.1066666666667 125 500C125 292.8916666666667 292.8933333333333 125 500 125zM681.4 318.6C689.5333333333333 326.7375000000001 689.5333333333333 339.9291666666667 681.4 348.0666666666667L529.4666666666667 499.9958333333334L681.4041666666666 651.9354166666667C689.5416666666666 660.0712500000001 689.5416666666666 673.2620833333333 681.4041666666666 681.3979166666667C673.2666666666667 689.5341666666667 660.0791666666667 689.5341666666667 651.9416666666666 681.3979166666667L500.0041666666666 529.4583333333334L348.0645833333333 681.3979166666667C339.9287499999999 689.5341666666667 326.7379166666667 689.5341666666667 318.6020833333334 681.3979166666667C310.4658333333333 673.2620833333333 310.4658333333333 660.0712500000001 318.6020833333334 651.9354166666667L470.5416666666666 499.9958333333334L318.6083333333334 348.0666666666667C310.4725 339.9291666666667 310.4725 326.7375000000001 318.6083333333334 318.6C326.7441666666666 310.4666666666667 339.935 310.4666666666667 348.07125 318.6L500.0041666666666 470.5333333333333L651.9333333333333 318.6C660.0708333333333 310.4666666666667 673.2624999999999 310.4666666666667 681.4 318.6z" />
    <glyph glyph-name="car"
      unicode="&#xEA0B;"
      horiz-adv-x="1000" d="M307.7458333333334 840.9829166666667C281.29375 840.9829166666667 257.0458333333334 826.2441666666666 244.8670833333333 802.7625L142.5366666666667 605.465C137.3104166666667 595.3883333333333 134.5825 584.2033333333334 134.5825 572.85V322.6083333333334C134.5825 292.0041666666666 153.9875 265.9375 181.16375 256.0333333333334C182.01125 248.6208333333333 183.8895833333334 241.3458333333334 186.75625 234.4250000000001C188.32625 230.6375000000001 190.1804166666667 226.9833333333335 192.2995833333333 223.4916666666668C195.6275 218.0083333333333 199.6079166666667 212.9291666666667 204.16375 208.3750000000001C211.6204166666667 200.9166666666666 220.4729166666667 195.0041666666667 230.2154166666667 190.9666666666668C239.9579166666667 186.9333333333334 250.4004166666667 184.8541666666666 260.9458333333334 184.8541666666666C271.4908333333334 184.8541666666666 281.9333333333334 186.9333333333334 291.6758333333333 190.9666666666668C301.41875 195.0041666666667 310.2708333333333 200.9166666666666 317.7275 208.3750000000001C322.28375 212.9291666666667 326.26375 218.0083333333333 329.5916666666667 223.4916666666668C331.7108333333333 226.9833333333335 333.565 230.6375000000001 335.135 234.4250000000001C337.45 240.0166666666668 339.1208333333333 245.8375 340.1241666666666 251.7750000000001H677.6375C678.6416666666667 245.8375 680.3125 240.0166666666668 682.6249999999999 234.4250000000001C684.1958333333333 230.6375000000001 686.05 226.9833333333335 688.1708333333333 223.4916666666668C691.4958333333333 218.0083333333333 695.4791666666666 212.9291666666667 700.0333333333332 208.3750000000001C707.4916666666667 200.9166666666666 716.3416666666666 195.0041666666667 726.0833333333333 190.9666666666668C735.8291666666667 186.9333333333334 746.2708333333333 184.8541666666666 756.8166666666666 184.8541666666666C767.3625 184.8541666666666 777.8041666666667 186.9333333333334 787.5458333333332 190.9666666666668C797.2874999999999 195.0041666666667 806.1416666666667 200.9166666666666 813.5958333333333 208.3750000000001C818.1541666666666 212.9291666666667 822.1333333333333 218.0083333333333 825.4625 223.4916666666668C827.5791666666665 226.9833333333335 829.4333333333334 230.6375000000001 831.0041666666666 234.4250000000001C834.4458333333333 242.7375000000001 836.4624999999999 251.5541666666667 836.9833333333332 260.5125000000002C858.8708333333333 272.5625 873.7041666666667 295.8541666666668 873.7041666666667 322.6083333333334V573.5166666666667C873.7041666666667 584.2658333333334 871.2583333333333 594.8720833333334 866.55 604.5345833333333L770.7833333333333 801.16625C758.9166666666665 825.5258333333334 734.1958333333332 840.9829166666667 707.1 840.9829166666667H307.7458333333334zM797.8125 251.7750000000001H715.8208333333333C716.1624999999999 250.7208333333333 716.5458333333332 249.6791666666667 716.9708333333333 248.6541666666667C719.1374999999999 243.4208333333334 722.3166666666666 238.6666666666668 726.3208333333332 234.6625000000002C730.3249999999999 230.6583333333333 735.0791666666667 227.4791666666667 740.3124999999999 225.3125C745.5458333333333 223.1458333333334 751.1541666666666 222.0291666666668 756.8166666666666 222.0291666666668C762.4791666666665 222.0291666666668 768.0875 223.1458333333334 773.3208333333332 225.3125C778.5499999999998 227.4791666666667 783.3041666666666 230.6583333333333 787.3083333333333 234.6625000000002C791.3166666666666 238.6666666666668 794.4916666666666 243.4208333333334 796.6583333333333 248.6541666666667C797.0833333333333 249.6791666666667 797.4666666666666 250.7208333333333 797.8125 251.7750000000001zM221.1020833333333 248.6541666666667C220.6770833333333 249.6791666666667 220.2925 250.7208333333333 219.94875 251.7750000000001H301.9425C301.59875 250.7208333333333 301.2141666666667 249.6791666666667 300.7891666666667 248.6541666666667C298.6216666666667 243.4208333333334 295.445 238.6666666666668 291.4404166666667 234.6625000000002C287.4358333333334 230.6583333333333 282.6816666666667 227.4791666666667 277.4491666666667 225.3125C272.2170833333334 223.1458333333334 266.6091666666667 222.0291666666668 260.9458333333334 222.0291666666668C255.2820833333333 222.0291666666668 249.6741666666667 223.1458333333334 244.4420833333333 225.3125C239.2095833333334 227.4791666666667 234.4554166666667 230.6583333333333 230.4508333333333 234.6625000000002C226.44625 238.6666666666668 223.2695833333333 243.4208333333334 221.1020833333333 248.6541666666667zM281.8545833333333 783.5783333333334C286.8695833333333 793.2475 296.85375 799.31625 307.7458333333334 799.31625H707.1C718.2583333333332 799.31625 728.4375 792.9516666666667 733.3208333333332 782.92125L829.0916666666666 586.2895833333333C831.0291666666667 582.3125 832.0375 577.9416666666666 832.0375 573.5166666666667V322.6083333333334C832.0375 306.5000000000001 818.9791666666666 293.4416666666667 802.8708333333333 293.4416666666667H205.4158333333333C189.3075 293.4416666666667 176.2491666666667 306.5000000000001 176.2491666666667 322.6083333333334V572.85C176.2491666666667 577.5250000000001 177.3725 582.1333333333333 179.5245833333333 586.2808333333334L281.8545833333333 783.5783333333334zM288.9341666666667 607.7575L341.1183333333334 710.4695833333333L673.4041666666666 710.4695833333333L722.8416666666666 607.7575L288.9341666666667 607.7575zM251.7866666666667 626.6308333333334L303.97125 729.3429166666667C311.07625 743.3270833333333 325.4329166666667 752.13625 341.1183333333334 752.13625H673.4041666666666C689.4124999999999 752.13625 704.0041666666666 742.9645833333334 710.9499999999999 728.5395833333334L760.3833333333332 625.8279166666666C773.6999999999999 598.1645833333334 753.5416666666666 566.0916666666667 722.8416666666666 566.0916666666667H288.9341666666667C257.8425 566.0916666666667 237.70375 598.9116666666666 251.7866666666667 626.6308333333334zM320.8670833333333 473.5125C303.9308333333334 473.5125 290.2016666666667 459.7833333333334 290.2016666666667 442.8458333333333C290.2016666666667 425.9083333333334 303.9308333333334 412.1791666666667 320.8670833333333 412.1791666666667C337.8029166666667 412.1791666666667 351.5320833333333 425.9083333333334 351.5320833333333 442.8458333333333C351.5320833333333 459.7833333333334 337.8029166666667 473.5125 320.8670833333333 473.5125zM248.535 442.8458333333333C248.535 482.7916666666666 280.9191666666667 515.1791666666667 320.8670833333333 515.1791666666667C360.8145833333333 515.1791666666667 393.19875 482.7916666666666 393.19875 442.8458333333333C393.19875 402.9000000000001 360.8145833333333 370.5125000000001 320.8670833333333 370.5125000000001C280.9191666666667 370.5125000000001 248.535 402.9000000000001 248.535 442.8458333333333zM661.5999999999999 442.8458333333333C661.5999999999999 459.7833333333334 675.3291666666665 473.5125 692.2666666666667 473.5125C709.2 473.5125 722.9291666666667 459.7833333333334 722.9291666666667 442.8458333333333C722.9291666666667 425.9083333333334 709.2 412.1791666666667 692.2666666666667 412.1791666666667C675.3291666666665 412.1791666666667 661.5999999999999 425.9083333333334 661.5999999999999 442.8458333333333zM692.2666666666667 515.1791666666667C652.3166666666666 515.1791666666667 619.9333333333333 482.7916666666666 619.9333333333333 442.8458333333333C619.9333333333333 402.9000000000001 652.3166666666666 370.5125000000001 692.2666666666667 370.5125000000001C732.2125 370.5125000000001 764.5958333333333 402.9000000000001 764.5958333333333 442.8458333333333C764.5958333333333 482.7916666666666 732.2125 515.1791666666667 692.2666666666667 515.1791666666667z" />
    <glyph glyph-name="card"
      unicode="&#xEA0C;"
      horiz-adv-x="1000" d="M291.6625 837.5041666666666H289.8729166666667H289.8720833333333C252.1116666666667 837.505 221.2541666666667 837.5054166666666 196.8920833333333 834.23C171.4270833333334 830.80625 149.3491666666667 823.3970833333333 131.72625 805.7737500000001C114.1029166666667 788.1508333333334 106.69375 766.0729166666667 103.27 740.6079166666666C99.9945833333333 716.2458333333334 99.995 685.3883333333333 99.9958333333333 647.6279166666667V647.6270833333333V645.8375000000001V354.1708333333334V352.3791666666667V352.3791666666667C99.995 314.6208333333333 99.9945833333333 283.7625000000002 103.27 259.4000000000001C106.69375 233.9333333333334 114.1029166666667 211.8583333333334 131.72625 194.2333333333334C149.3491666666667 176.6125000000001 171.4270833333334 169.2000000000001 196.8920833333333 165.7791666666667C221.2541666666667 162.5041666666666 252.1120833333334 162.5041666666666 289.8729166666667 162.5041666666666H291.6625H708.3291666666667H710.1208333333333C747.8791666666667 162.5041666666666 778.7374999999998 162.5041666666666 803.0999999999999 165.7791666666667C828.5666666666666 169.2000000000001 850.6416666666667 176.6125000000001 868.2666666666667 194.2333333333334C885.8874999999999 211.8583333333334 893.3 233.9333333333334 896.7208333333333 259.4000000000001C899.9958333333334 283.7625000000002 899.9958333333334 314.6166666666667 899.9958333333334 352.3791666666667V352.3791666666667V354.1708333333334V645.8375000000001V647.6270833333333V647.6291666666667C899.9958333333334 685.3891666666667 899.9958333333334 716.24625 896.7208333333333 740.6079166666666C893.3 766.0729166666667 885.8874999999999 788.1508333333334 868.2666666666667 805.7737500000001C850.6416666666667 823.3970833333333 828.5666666666666 830.80625 803.0999999999999 834.23C778.7374999999998 837.5054166666666 747.8791666666667 837.505 710.1208333333333 837.5041666666666H710.1208333333333H708.3291666666667H291.6625zM167.08125 770.41875C173.86625 777.2033333333334 183.63375 781.9975000000001 203.5545833333333 784.6758333333333C224.1941666666666 787.4508333333333 251.6720833333334 787.5041666666667 291.6625 787.5041666666667H708.3291666666667C748.3208333333333 787.5041666666667 775.7958333333332 787.4508333333333 796.4374999999999 784.6758333333333C816.3583333333333 781.9975000000001 826.125 777.2033333333334 832.9124999999999 770.41875C839.6958333333332 763.63375 844.4916666666667 753.86625 847.1666666666666 733.9454166666667C847.9583333333333 728.0804166666667 848.525 721.6629166666667 848.9375 714.5629166666668H151.0566666666667C151.4666666666667 721.6629166666667 152.0354166666667 728.0804166666667 152.8241666666667 733.9454166666667C155.5025 753.86625 160.2966666666667 763.63375 167.08125 770.41875zM149.9958333333333 609.05125V645.8375000000001C149.9958333333333 655.5708333333334 149.9991666666667 664.5633333333333 150.04375 672.89625H849.95C849.9916666666666 664.5633333333333 849.9958333333333 655.5708333333334 849.9958333333333 645.8375000000001V609.05125H149.9958333333333zM149.9958333333333 567.3833333333334V354.1708333333334C149.9958333333333 314.1791666666667 150.0491666666667 286.7041666666668 152.8241666666667 266.0625000000001C155.5025 246.1416666666667 160.2966666666667 236.375 167.08125 229.5875000000001C173.86625 222.8041666666668 183.63375 218.0083333333333 203.5545833333333 215.3333333333334C224.1941666666666 212.5583333333334 251.6720833333334 212.5041666666667 291.6625 212.5041666666667H708.3291666666667C748.3208333333333 212.5041666666667 775.7958333333332 212.5583333333334 796.4374999999999 215.3333333333334C816.3583333333333 218.0083333333333 826.125 222.8041666666668 832.9124999999999 229.5875000000001C839.6958333333332 236.375 844.4916666666667 246.1416666666667 847.1666666666666 266.0625000000001C849.9416666666665 286.7041666666668 849.9958333333333 314.1791666666667 849.9958333333333 354.1708333333334V567.3833333333334H149.9958333333333zM232.31625 420.8375C218.5091666666667 420.8375 207.31625 409.6458333333334 207.31625 395.8375C207.31625 382.0291666666667 218.5091666666667 370.8375000000001 232.31625 370.8375000000001H482.3166666666666C496.125 370.8375000000001 507.3166666666666 382.0291666666667 507.3166666666666 395.8375C507.3166666666666 409.6458333333334 496.125 420.8375 482.3166666666666 420.8375H232.31625zM589.05 395.8375C589.05 409.6458333333334 600.2416666666666 420.8375 614.05 420.8375H768.0833333333334C781.8916666666667 420.8375 793.0833333333333 409.6458333333334 793.0833333333333 395.8375C793.0833333333333 382.0291666666667 781.8916666666667 370.8375000000001 768.0833333333334 370.8375000000001H614.05C600.2416666666666 370.8375000000001 589.05 382.0291666666667 589.05 395.8375z" />
    <glyph glyph-name="chart-bar"
      unicode="&#xEA0D;"
      horiz-adv-x="1000" d="M378.0516666666667 754.175C378.0516666666667 790.9937500000001 407.8995833333334 820.8416666666667 444.7166666666667 820.8416666666667H555.2875C592.1041666666666 820.8416666666667 621.9541666666667 790.9937500000001 621.9541666666667 754.175V539.0083333333333C627.275 540.3791666666666 632.8583333333332 541.1083333333333 638.6083333333332 541.1083333333333H749.175C785.9958333333333 541.1083333333333 815.8416666666667 511.2583333333334 815.8416666666667 474.4416666666667V245.8333333333334C815.8416666666667 209.0166666666668 785.9958333333333 179.1666666666668 749.175 179.1666666666668H596.9416666666666H571.9416666666666V179.1833333333334H428.0458333333333V179.1666666666668H403.045H250.8095833333333C213.9908333333333 179.1666666666668 184.1429166666667 209.0125000000001 184.1429166666667 245.8333333333334V619.9179166666668C184.1429166666667 656.7366666666667 213.9908333333333 686.5845833333333 250.8095833333333 686.5845833333333H361.3783333333334C367.1358333333333 686.5845833333333 372.7229166666666 685.8545833333334 378.0516666666667 684.4825000000001V754.175zM571.9541666666667 475.8000000000001C571.9458333333333 475.35 571.9416666666666 474.8958333333334 571.9416666666666 474.4416666666667V229.1833333333334H428.05V754.175C428.05 763.3795833333334 435.5125 770.8416666666667 444.7166666666667 770.8416666666667H555.2875C564.4916666666667 770.8416666666667 571.9541666666667 763.3795833333334 571.9541666666667 754.175V475.8000000000001zM621.9541666666667 229.1666666666668H749.175C758.3791666666666 229.1666666666668 765.8416666666666 236.6291666666666 765.8416666666666 245.8333333333334V474.4416666666667C765.8416666666666 483.6458333333334 758.3791666666666 491.1083333333333 749.175 491.1083333333333H638.6083333333332C629.6291666666666 491.1083333333333 622.3083333333333 484.0083333333333 621.9541666666667 475.1166666666667V229.1666666666668zM250.8095833333333 636.5845833333333C241.605 636.5845833333333 234.1429166666667 629.1225000000001 234.1429166666667 619.9179166666668V245.8333333333334C234.1429166666667 236.6291666666666 241.605 229.1666666666668 250.8095833333333 229.1666666666668H378.045V619.9179166666668C378.045 629.1225000000001 370.5829166666667 636.5845833333333 361.3783333333334 636.5845833333333H250.8095833333333z" />
    <glyph glyph-name="chart"
      unicode="&#xEA0E;"
      horiz-adv-x="1000" d="M824.9958333333333 770.8333333333334C824.9958333333333 740.9179166666667 800.7458333333333 716.6666666666667 770.8291666666667 716.6666666666667C740.9125 716.6666666666667 716.6624999999999 740.9179166666667 716.6624999999999 770.8333333333334C716.6624999999999 800.74875 740.9125 825 770.8291666666667 825C800.7458333333333 825 824.9958333333333 800.74875 824.9958333333333 770.8333333333334zM874.9958333333333 770.8333333333334C874.9958333333333 713.30375 828.3583333333333 666.6666666666667 770.8291666666667 666.6666666666667C713.3 666.6666666666667 666.6625 713.30375 666.6625 770.8333333333334C666.6625 828.3629166666667 713.3 875 770.8291666666667 875C828.3583333333333 875 874.9958333333333 828.3629166666667 874.9958333333333 770.8333333333334zM319.7820833333333 837.5L320.8291666666667 837.5H604.1625C617.9708333333333 837.5 629.1624999999999 826.3070833333334 629.1624999999999 812.5C629.1624999999999 798.6929166666666 617.9708333333333 787.5 604.1625 787.5H320.8291666666667C297.08125 787.5 280.77375 787.4804166666667 268.1320833333334 786.4475C255.7820833333334 785.43875 249.1479166666667 783.5883333333334 244.3466666666667 781.1420833333334C233.3704166666667 775.5495833333334 224.4466666666667 766.6254166666666 218.85375 755.6495833333333C216.4075 750.8483333333334 214.5575 744.2141666666666 213.5483333333333 731.8641666666667C212.5154166666667 719.2220833333333 212.4958333333333 702.9145833333334 212.4958333333333 679.1666666666667V320.8333333333334C212.4958333333333 297.0833333333334 212.5154166666667 280.7791666666668 213.5483333333333 268.1375000000002C214.5575 255.7875 216.4075 249.1500000000001 218.85375 244.35C224.4466666666667 233.375 233.3704166666667 224.4500000000001 244.3466666666667 218.8583333333335C249.1479166666667 216.4125 255.7820833333334 214.5625 268.1320833333334 213.5541666666667C280.77375 212.5208333333334 297.08125 212.5000000000001 320.8291666666667 212.5000000000001H679.1625C702.9125 212.5000000000001 719.2166666666666 212.5208333333334 731.8583333333332 213.5541666666667C744.2083333333334 214.5625 750.8458333333332 216.4125 755.6458333333333 218.8583333333335C766.6208333333334 224.4500000000001 775.5458333333332 233.375 781.1374999999999 244.35C783.5833333333334 249.1500000000001 785.4333333333333 255.7875 786.4416666666666 268.1375000000002C787.4749999999999 280.7791666666668 787.4958333333333 297.0833333333334 787.4958333333333 320.8333333333334V604.1666666666667C787.4958333333333 617.97375 798.6875 629.1666666666667 812.4958333333333 629.1666666666667C826.3041666666666 629.1666666666667 837.4958333333334 617.97375 837.4958333333334 604.1666666666667V320.8333333333334V319.7875C837.4958333333334 297.3416666666667 837.4958333333334 278.9833333333334 836.2791666666666 264.0625C835.0166666666667 248.6208333333333 832.3249999999999 234.6750000000001 825.6875 221.6500000000001C815.3 201.2666666666668 798.7291666666666 184.6958333333335 778.3458333333333 174.3083333333333C765.3208333333332 167.6708333333335 751.375 164.9791666666666 735.9333333333334 163.7166666666668C721.0125 162.5 702.6583333333333 162.5 680.2166666666666 162.5H680.2083333333333H679.1625H320.8291666666667H319.7825H319.7758333333333C297.3329166666666 162.5 278.9779166666667 162.5 264.0604166666667 163.7166666666668C248.6183333333334 164.9791666666666 234.6716666666666 167.6708333333335 221.6470833333334 174.3083333333333C201.2629166666667 184.6958333333335 184.69 201.2666666666668 174.30375 221.6500000000001C167.6670833333333 234.6750000000001 164.9758333333333 248.6208333333333 163.7141666666667 264.0625C162.4954166666667 278.9833333333334 162.4958333333333 297.3416666666667 162.4958333333333 319.7833333333334V319.7875V320.8333333333334V679.1666666666667V680.2141666666666V680.2145833333334C162.4958333333333 702.6604166666667 162.4954166666667 721.0170833333334 163.7141666666667 735.9358333333333C164.9758333333333 751.3775 167.6670833333333 765.3241666666667 174.30375 778.3491666666666C184.69 798.7333333333333 201.2629166666667 815.3062500000001 221.6470833333334 825.6925C234.6716666666666 832.32875 248.6183333333334 835.02 264.0604166666667 836.2816666666666C278.9791666666667 837.5004166666668 297.33625 837.5004166666668 319.7820833333333 837.5zM663.5083333333333 580.1791666666668C673.2708333333333 570.4125 673.2708333333333 554.5875000000001 663.5083333333333 544.8208333333333L538.5083333333333 419.8208333333334C533.8166666666666 415.1333333333335 527.4583333333334 412.5 520.8291666666667 412.5C514.1999999999999 412.5 507.8416666666666 415.1333333333335 503.15 419.8208333333334L437.4958333333334 485.4791666666667L330.17375 378.1541666666667C320.4104166666667 368.3916666666668 304.58125 368.3916666666668 294.8183333333334 378.1541666666667C285.055 387.9208333333334 285.055 403.7458333333334 294.8183333333334 413.5125000000001L419.8166666666666 538.5125C424.5083333333334 543.2 430.8666666666666 545.8333333333334 437.4958333333334 545.8333333333334C444.125 545.8333333333334 450.4833333333333 543.2 455.175 538.5125L520.8291666666667 472.8541666666666L628.15 580.1791666666668C637.9166666666666 589.9408333333333 653.7458333333333 589.9408333333333 663.5083333333333 580.1791666666668z" />
    <glyph glyph-name="check-circle-fill"
      unicode="&#xEA0F;"
      horiz-adv-x="1000" d="M500 125C707.1083333333333 125 875 292.8916666666667 875 500C875 707.1066666666667 707.1083333333333 875 500 875C292.8933333333333 875 125 707.1066666666667 125 500C125 292.8916666666667 292.8933333333333 125 500 125zM705.6666666666666 607.8104166666667C715.1625 617.83375 714.7333333333333 633.6570833333333 704.7083333333333 643.1529166666667C694.6874999999999 652.6487500000001 678.8625 652.2208333333333 669.3666666666667 642.1975L450.675 411.3541666666668L330.665 538.0291666666667C321.1695833333333 548.0541666666667 305.3458333333333 548.4833333333333 295.3229166666667 538.9875000000001C285.2995833333333 529.4916666666668 284.8716666666667 513.6666666666667 294.3675 503.6416666666667L432.525 357.8083333333334C437.2458333333334 352.8250000000001 443.8083333333334 350.0041666666667 450.675 350.0041666666667C457.5375 350.0041666666667 464.1 352.8250000000001 468.8249999999999 357.8083333333334L705.6666666666666 607.8104166666667z" />
    <glyph glyph-name="check-circle-stroke"
      unicode="&#xEA10;"
      horiz-adv-x="1000" d="M825 500C825 320.5083333333334 679.4916666666667 175 500 175C320.5075 175 175 320.5083333333334 175 500C175 679.4925000000001 320.5075 825 500 825C679.4916666666667 825 825 679.4925000000001 825 500zM875 500C875 292.8916666666667 707.1083333333333 125 500 125C292.8933333333333 125 125 292.8916666666667 125 500C125 707.1066666666667 292.8933333333333 875 500 875C707.1083333333333 875 875 707.1066666666667 875 500zM705.85 608.0195833333335C715.225 618.1533333333334 714.6125 633.9704166666667 704.4791666666666 643.3483333333334C694.3458333333333 652.7266666666667 678.5291666666667 652.1141666666667 669.15 641.9804166666667L455.35 410.9541666666667L350.9183333333334 514.2958333333333C341.1041666666667 524.0083333333334 325.2754166666667 523.925 315.5633333333334 514.1125C305.8516666666667 504.3 305.9341666666666 488.4708333333334 315.7483333333334 478.7583333333333L438.5541666666666 357.2291666666667C443.3708333333334 352.4625 449.9166666666667 349.8583333333334 456.6874999999999 350.0041666666667C463.4625 350.1541666666667 469.8875 353.0458333333334 474.4875 358.0208333333334L705.85 608.0195833333335z" />
    <glyph glyph-name="check-small"
      unicode="&#xEA11;"
      horiz-adv-x="1000" d="M416.6666666666667 316.6666666666668L250 483.3333333333334L308.3333333333333 541.6666666666667L416.6666666666667 433.3333333333334L691.6666666666667 708.3333333333334L750 650L416.6666666666667 316.6666666666668z" />
    <glyph glyph-name="check"
      unicode="&#xEA12;"
      horiz-adv-x="1000" d="M397.9004166666666 250L160.4004166666667 487.5L219.7754166666667 546.875L397.9004166666666 368.75L780.1916666666666 751.0425L839.5666666666666 691.6675L397.9004166666666 250z" />
    <glyph glyph-name="checkbox-blank"
      unicode="&#xEA13;"
      horiz-adv-x="1000" d="M208.3333333333333 875H791.6666666666666A83.3333333333333 83.3333333333333 0 0 0 875 791.6666666666667V208.3333333333334A83.3333333333333 83.3333333333333 0 0 0 791.6666666666666 125H208.3333333333333A83.3333333333333 83.3333333333333 0 0 0 125 208.3333333333334V791.6666666666667A83.3333333333333 83.3333333333333 0 0 0 208.3333333333333 875zM791.6666666666666 833.3333333333334H208.3333333333333C185.3216666666667 833.3333333333334 166.6666666666667 814.6783333333333 166.6666666666667 791.6666666666667V208.3333333333334C166.6666666666667 185.3208333333335 185.3216666666667 166.6666666666668 208.3333333333333 166.6666666666668H791.6666666666666C814.6791666666666 166.6666666666668 833.3333333333333 185.3208333333335 833.3333333333333 208.3333333333334V791.6666666666667C833.3333333333333 814.6783333333333 814.6791666666666 833.3333333333334 791.6666666666666 833.3333333333334zM208.3333333333333 875C162.3095833333333 875 125 837.6904166666667 125 791.6666666666667V208.3333333333334C125 162.3083333333333 162.3095833333333 125 208.3333333333333 125H791.6666666666666C837.6916666666667 125 875 162.3083333333333 875 208.3333333333334V791.6666666666667C875 837.6904166666667 837.6916666666667 875 791.6666666666666 875H208.3333333333333z" />
    <glyph glyph-name="checkbox-multi"
      unicode="&#xEA14;"
      horiz-adv-x="1000" d="M208.3333333333333 833.3333333333334H791.6666666666666C814.6791666666666 833.3333333333334 833.3333333333333 814.6783333333333 833.3333333333333 791.6666666666667V208.3333333333334C833.3333333333333 185.3208333333335 814.6791666666666 166.6666666666668 791.6666666666666 166.6666666666668H208.3333333333333C185.3216666666667 166.6666666666668 166.6666666666667 185.3208333333335 166.6666666666667 208.3333333333334V791.6666666666667C166.6666666666667 814.6783333333333 185.3216666666667 833.3333333333334 208.3333333333333 833.3333333333334zM125 791.6666666666667C125 837.6904166666667 162.3095833333333 875 208.3333333333333 875H791.6666666666666C837.6916666666667 875 875 837.6904166666667 875 791.6666666666667V208.3333333333334C875 162.3083333333333 837.6916666666667 125 791.6666666666666 125H208.3333333333333C162.3095833333333 125 125 162.3083333333333 125 208.3333333333334V791.6666666666667zM293.575 525.3416666666667C279.7679166666667 525.3416666666667 268.575 514.1458333333333 268.575 500.3416666666667C268.575 486.5333333333334 279.7679166666667 475.3416666666667 293.575 475.3416666666667H706.8833333333332C720.6916666666667 475.3416666666667 731.8833333333333 486.5333333333334 731.8833333333333 500.3416666666667C731.8833333333333 514.1458333333333 720.6916666666667 525.3416666666667 706.8833333333332 525.3416666666667H293.575z" />
    <glyph glyph-name="checkbox"
      unicode="&#xEA15;"
      horiz-adv-x="1000" d="M125 791.6666666666667C125 837.6904166666667 162.3095833333333 875 208.3333333333333 875H791.6666666666666C837.6916666666667 875 875 837.6904166666667 875 791.6666666666667V208.3333333333334C875 162.3083333333333 837.6916666666667 125 791.6666666666666 125H208.3333333333333C162.3095833333333 125 125 162.3083333333333 125 208.3333333333334V791.6666666666667zM416.6666666666667 316.6666666666668L250 483.3333333333334L308.3333333333333 541.6666666666667L416.6666666666667 433.3333333333334L691.6666666666667 708.3333333333334L750 650L416.6666666666667 316.6666666666668z" />
    <glyph glyph-name="clip"
      unicode="&#xEA16;"
      horiz-adv-x="1000" d="M671.3666666666667 872.4120833333334C707.7541666666666 878.4316666666666 744.9666666666667 869.7516666666667 774.9458333333333 848.2916666666667L774.9458333333333 848.29125C804.925 826.8304166666667 825.15 794.3420833333333 831.1833333333333 757.97125C837.2166666666666 721.6004166666667 828.5625 684.3220833333334 807.1166666666666 654.3316666666667L807.1083333333332 654.3183333333334L480.2166666666666 197.8791666666666C467.0083333333333 179.4291666666667 450.2916666666667 163.7625000000001 431.025 151.7750000000001C411.75875 139.7875 390.3183333333334 131.7166666666667 367.93 128.0208333333335C345.5416666666667 124.3250000000001 322.6445833333334 125.0791666666667 300.5479166666667 130.2416666666668C278.4508333333333 135.4000000000001 257.5879166666666 144.8666666666668 239.1516666666667 158.0958333333334C220.705 171.2916666666668 205.0383333333333 187.9916666666668 193.04625 207.2416666666668C181.0479166666667 226.5 172.9629166666667 247.9375000000001 169.25375 270.3250000000001C165.5445833333333 292.7125 166.28375 315.6125000000001 171.4291666666667 337.7125000000001C176.5741666666667 359.8125 186.0241666666667 380.6833333333334 199.2391666666667 399.1291666666667C199.2395833333333 399.1291666666667 199.24 399.1291666666667 199.2404166666667 399.1291666666667L436.8125 730.8225C443.5125 740.1766666666667 456.5291666666666 742.3283333333334 465.8833333333333 735.6287500000001C475.2375 728.92875 477.3875 715.9145833333333 470.6875 706.5604166666667L233.1129166666667 374.8666666666667L233.1116666666667 374.8666666666667C223.085 360.8708333333334 215.9145833333333 345.0333333333333 212.0104166666667 328.2666666666667C208.1066666666667 311.4958333333334 207.5458333333333 294.1208333333334 210.36 277.1375000000001C213.1745833333333 260.1500000000001 219.30875 243.8875000000001 228.4120833333334 229.2708333333335C237.5154166666667 214.6583333333334 249.41 201.9833333333334 263.415 191.9666666666667L263.4429166666667 191.9458333333333C277.43 181.9125 293.2583333333334 174.7291666666668 310.0229166666667 170.8166666666667C326.7875 166.9000000000001 344.1591666666667 166.3291666666668 361.145 169.1333333333335C378.1304166666667 171.9333333333334 394.3970833333333 178.0583333333333 409.0141666666667 187.1541666666668C423.6333333333333 196.2500000000001 436.3125 208.1333333333335 446.3333333333333 222.1333333333333L446.3375 222.1375000000001L773.225 678.5658333333333C788.2416666666666 699.5704166666667 794.3041666666667 725.6795833333333 790.0791666666667 751.1529166666667C785.8541666666665 776.6266666666667 771.6874999999999 799.3808333333334 750.6916666666666 814.41125C729.6874999999999 829.4479166666666 703.6416666666667 835.5183333333333 678.1666666666666 831.3041666666667C652.6875 827.08875 629.925 812.9266666666666 614.8875 791.9316666666666C614.8875 791.9316666666666 614.8875 791.9312500000001 614.8875 791.9312500000001L316.6270833333333 375.5416666666668L316.32375 375.1166666666667L316.31875 375.1208333333334C311.2066666666667 368.35 307.5016666666667 360.6208333333334 305.4220833333333 352.3958333333334C303.3429166666667 344.1666666666668 302.9308333333334 335.6083333333334 304.2108333333333 327.2208333333334C305.4908333333334 318.8291666666668 308.4366666666666 310.7833333333334 312.875 303.5500000000001C317.3133333333334 296.3166666666667 323.1541666666667 290.0458333333334 330.0533333333334 285.1083333333335C336.9525 280.1666666666668 344.7708333333333 276.6583333333334 353.0475 274.7833333333333C361.3241666666667 272.9125000000002 369.8916666666667 272.7166666666668 378.2454166666667 274.2083333333334C386.5991666666667 275.6958333333335 394.57 278.8458333333333 401.68875 283.4625000000001C408.8075 288.0833333333335 414.9295833333334 294.0791666666668 419.6958333333333 301.1000000000002L419.9916666666667 301.5375L419.9958333333334 301.5333333333333L630.5875 595.5058333333334C637.2916666666666 604.8591666666666 650.3041666666667 607.01 659.6583333333333 600.3095833333334C669.0124999999999 593.6087500000001 671.1625 580.5958333333333 664.4625 571.2416666666667L454.0125 277.4708333333334C446.1499999999999 265.9500000000001 436.0708333333334 256.1041666666668 424.3666666666666 248.5083333333335L413.0283333333333 265.9875000000001L424.3666666666666 248.5083333333335C412.585 240.8666666666667 399.39125 235.6541666666667 385.56375 233.1875C371.7366666666667 230.7208333333333 357.5554166666667 231.0458333333335 343.8558333333333 234.1458333333334C330.15625 237.2416666666667 317.2154166666667 243.0541666666668 305.7954166666667 251.2291666666667C294.3758333333333 259.4083333333333 284.7079166666666 269.7875000000002 277.3616666666666 281.7583333333334C270.0154166666666 293.7291666666667 265.1395833333333 307.05 263.0208333333333 320.9333333333334C260.9020833333334 334.8208333333335 261.5841666666667 348.9875000000001 265.0258333333333 362.6041666666668C268.4454166666667 376.1333333333335 274.5208333333333 388.8458333333334 282.8975 400.0041666666667L581.0124999999999 816.195L581.0124999999999 816.1954166666667C602.4875 846.1720833333334 634.9875 866.3933333333333 671.3666666666667 872.4120833333334z" />
    <glyph glyph-name="close"
      unicode="&#xEA17;"
      horiz-adv-x="1000" d="M767.675 732.3262500000001C777.4375 742.0895833333334 777.4375 757.91875 767.675 767.6816666666666C757.9125 777.445 742.0833333333333 777.445 732.3166666666667 767.6816666666666L499.9958333333333 535.3583333333333L267.67375 767.6816666666666C257.9104166666667 777.445 242.08125 777.445 232.3183333333334 767.6816666666666C222.555 757.91875 222.555 742.0895833333334 232.3183333333334 732.3262500000001L464.6416666666667 500.0041666666667L232.3183333333334 267.6833333333333C222.555 257.9166666666668 222.555 242.0875 232.3183333333334 232.3250000000001C242.08125 222.5625 257.9104166666667 222.5625 267.67375 232.3250000000001L499.9958333333333 464.6500000000001L732.3166666666667 232.3250000000001C742.0833333333333 222.5625 757.9125 222.5625 767.675 232.3250000000001C777.4375 242.0875 777.4375 257.9166666666668 767.675 267.6833333333333L535.3499999999999 500.0041666666667L767.675 732.3262500000001z" />
    <glyph glyph-name="coin"
      unicode="&#xEA18;"
      horiz-adv-x="1000" d="M281.51625 726.7554166666666C225.0525 699.7870833333334 200.7770833333333 667.4008333333334 200.7770833333333 639.8125C200.7770833333333 612.2245833333334 225.0525 579.8375000000001 281.51625 552.8708333333334C336.1395833333333 526.7791666666667 413.3583333333334 509.9541666666667 500.0041666666666 509.9541666666667C586.6541666666667 509.9541666666667 663.8708333333333 526.7791666666667 718.4958333333333 552.8708333333334C774.9583333333333 579.8375000000001 799.2333333333332 612.2245833333334 799.2333333333332 639.8125C799.2333333333332 667.4008333333334 774.9583333333333 699.7870833333334 718.4958333333333 726.7554166666666C663.8708333333333 752.845 586.6541666666667 769.6716666666666 500.0041666666666 769.6716666666666C413.3583333333334 769.6716666666666 336.1395833333333 752.845 281.51625 726.7554166666666zM150.7770833333333 642.0533333333334C150.7770833333333 642.7916666666667 150.8091666666667 643.5225 150.8720833333333 644.2441666666666C153.2629166666667 700.0504166666667 200.6441666666667 743.5395833333333 259.9670833333334 771.8733333333333C322.69125 801.8320833333333 407.5875 819.6716666666666 500.0041666666666 819.6716666666666C592.425 819.6716666666666 677.3208333333333 801.8320833333333 740.0458333333332 771.8733333333333C799.3666666666666 743.5395833333333 846.7499999999999 700.0504166666667 849.1416666666667 644.2441666666666C849.2041666666667 643.5225 849.2333333333332 642.7916666666667 849.2333333333332 642.0533333333334V639.8125V500.1458333333334V500.1416666666667V358.2333333333334C849.2333333333332 300.2958333333334 800.9291666666667 255.2541666666667 740.0458333333332 226.1750000000001C677.3208333333333 196.2166666666667 592.425 178.375 500.0041666666666 178.375C407.5870833333334 178.375 322.69125 196.2166666666667 259.9670833333334 226.1750000000001C199.0829166666667 255.2541666666667 150.7770833333333 300.2958333333334 150.7770833333333 358.2333333333334V500.1416666666667V500.1458333333334V639.8125V642.0533333333334zM200.7770833333333 500.1458333333334V500.1416666666667C200.7770833333333 472.5541666666667 225.0525 440.1666666666668 281.51625 413.1958333333335C336.1395833333333 387.1083333333334 413.3583333333334 370.2833333333333 500.0041666666666 370.2833333333333C586.6541666666667 370.2833333333333 663.8708333333333 387.1083333333334 718.4958333333333 413.1958333333335C774.9583333333333 440.1666666666668 799.2333333333332 472.5541666666667 799.2333333333332 500.1416666666667V500.1458333333334V545.2166666666667C782.2458333333333 530.7541666666666 761.9583333333333 518.2208333333333 740.0458333333332 507.75C677.3208333333333 477.7916666666667 592.425 459.9541666666667 500.0041666666666 459.9541666666667C407.5875 459.9541666666667 322.69125 477.7916666666667 259.9670833333334 507.75C238.0520833333334 518.2208333333333 217.7666666666667 530.7541666666666 200.7770833333333 545.2166666666667V500.1458333333334zM799.2333333333332 405.5416666666668C782.2458333333333 391.0833333333334 761.9583333333333 378.5458333333334 740.0458333333332 368.0791666666667C677.3208333333333 338.1208333333334 592.425 320.2833333333334 500.0041666666666 320.2833333333334C407.5870833333334 320.2833333333334 322.69125 338.1208333333334 259.9670833333334 368.0791666666667C238.0520833333334 378.5458333333334 217.7666666666667 391.0833333333334 200.7770833333333 405.5416666666668V358.2333333333334C200.7770833333333 330.6458333333334 225.0525 298.2583333333335 281.51625 271.2916666666667C336.1395833333333 245.2 413.3583333333334 228.3750000000001 500.0041666666666 228.3750000000001C586.6541666666667 228.3750000000001 663.8708333333333 245.2 718.4958333333333 271.2916666666667C774.9583333333333 298.2583333333335 799.2333333333332 330.6458333333334 799.2333333333332 358.2333333333334V405.5416666666668z" />
    <glyph glyph-name="compass"
      unicode="&#xEA19;"
      horiz-adv-x="1000" d="M875 500C875 292.8916666666667 707.1083333333333 125 500 125C292.8933333333333 125 125 292.8916666666667 125 500C125 707.1066666666667 292.8933333333333 875 500 875C707.1083333333333 875 875 707.1066666666667 875 500zM916.6666666666666 500C916.6666666666666 269.8833333333334 730.1166666666667 83.3333333333334 500 83.3333333333334C269.88125 83.3333333333334 83.3333333333333 269.8833333333334 83.3333333333333 500C83.3333333333333 730.1187500000001 269.88125 916.6666666666666 500 916.6666666666666C730.1166666666667 916.6666666666666 916.6666666666666 730.1187500000001 916.6666666666666 500zM479.1666666666666 209.0666666666668V270.8333333333334C479.1666666666666 282.3375 488.4958333333333 291.6666666666668 500 291.6666666666668C511.5041666666666 291.6666666666668 520.8333333333333 282.3375 520.8333333333333 270.8333333333334V209.0666666666668C665.3124999999999 219.2625000000001 780.7375 334.6875000000001 790.9333333333332 479.1666666666667H729.1666666666666C717.6625 479.1666666666667 708.3333333333333 488.4958333333334 708.3333333333333 500C708.3333333333333 511.5041666666667 717.6625 520.8333333333334 729.1666666666666 520.8333333333334H790.9333333333332C780.7375 665.3120833333334 665.3124999999999 780.7375 520.8333333333333 790.9341666666667V729.1666666666667C520.8333333333333 717.6608333333334 511.5041666666666 708.3333333333334 500 708.3333333333334C488.4958333333333 708.3333333333334 479.1666666666666 717.6608333333334 479.1666666666666 729.1666666666667V790.9341666666667C334.6879166666667 780.7375 219.2625 665.3120833333334 209.0658333333333 520.8333333333334H270.8333333333333C282.3391666666667 520.8333333333334 291.6666666666667 511.5041666666667 291.6666666666667 500C291.6666666666667 488.4958333333334 282.3391666666667 479.1666666666667 270.8333333333333 479.1666666666667H209.0658333333333C219.2625 334.6875000000001 334.6879166666667 219.2625000000001 479.1666666666666 209.0666666666668zM500 166.6666666666668C315.905 166.6666666666668 166.6666666666667 315.9041666666668 166.6666666666667 500C166.6666666666667 684.095 315.905 833.3333333333334 500 833.3333333333334C684.0958333333332 833.3333333333334 833.3333333333333 684.095 833.3333333333333 500C833.3333333333333 315.9041666666668 684.0958333333332 166.6666666666668 500 166.6666666666668zM445.1083333333334 474.5708333333333L525.4291666666667 554.8916666666667L391.56375 608.43625L445.1083333333334 474.5708333333333zM554.8916666666667 525.4291666666668L474.5708333333333 445.1083333333334L608.4374999999999 391.5625000000001L554.8916666666667 525.4291666666668zM336.6287500000001 633.5825C329.1458333333333 652.2895833333333 347.7099999999999 670.8541666666667 366.4175 663.3712499999999L569.4083333333333 582.1750000000001C575.2333333333333 579.8458333333333 579.8458333333333 575.2333333333333 582.175 569.4083333333334L663.3708333333333 366.4166666666668C670.8541666666666 347.7125000000001 652.2916666666666 329.1458333333334 633.5833333333333 336.6291666666667L430.5916666666666 417.8250000000001C424.7666666666667 420.1541666666667 420.1541666666667 424.7666666666667 417.825 430.5916666666667L336.6287500000001 633.5825z" />
    <glyph glyph-name="contour"
      unicode="&#xEA1A;"
      horiz-adv-x="1000" d="M291.6666666666667 525C291.6666666666667 538.8041666666668 302.8595833333333 550 316.6666666666667 550H683.3333333333333C697.1416666666667 550 708.3333333333333 538.8041666666668 708.3333333333333 525C708.3333333333333 511.1916666666667 697.1416666666667 500 683.3333333333333 500H316.6666666666667C302.8595833333333 500 291.6666666666667 511.1916666666667 291.6666666666667 525z" />
    <glyph glyph-name="counselor"
      unicode="&#xEA1B;"
      horiz-adv-x="1000" d="M269.2666666666667 384.3041666666667V381.875H227.6H209.4525C163.42875 381.875 126.1191666666667 419.1875 126.1191666666667 465.2083333333334V559.8958333333334C126.1191666666667 605.9195833333333 163.42875 643.2291666666667 209.4525 643.2291666666667H227.6H229.3520833333334C238.9470833333333 784.3416666666667 356.4533333333333 895.8333333333334 500 895.8333333333334C643.5458333333333 895.8333333333334 761.0541666666667 784.3416666666667 770.65 643.2291666666667H773.375H791.525C837.5499999999998 643.2291666666667 874.8583333333333 605.9195833333333 874.8583333333333 559.8958333333334V465.2083333333334C874.8583333333333 419.1875 837.5499999999998 381.875 791.525 381.875H773.375H771.0166666666667C765.8916666666665 278.8 687.3458333333333 195.0500000000001 586.5958333333333 181.8541666666668C577.55 156.6333333333333 553.425 138.5916666666667 525.0916666666666 138.5916666666667H474.9083333333333C438.8333333333333 138.5916666666667 409.5866666666667 167.8375 409.5866666666667 203.9125C409.5866666666667 239.9916666666667 438.8333333333333 269.2375000000001 474.9083333333333 269.2375000000001H525.0916666666666C554.1291666666666 269.2375000000001 578.7416666666666 250.2875000000002 587.2416666666667 224.0791666666668C668.0458333333333 237.6541666666668 729.6125 307.9375 729.6125 392.6V624.5525C729.6125 751.365 626.8125 854.1666666666667 500 854.1666666666667C373.1875 854.1666666666667 270.3858333333333 751.3645833333334 270.3858333333333 624.5520833333334V384.3041666666667H269.2666666666667zM209.4525 601.5625H227.6V423.5416666666667H209.4525C186.4404166666667 423.5416666666667 167.7858333333333 442.2000000000001 167.7858333333333 465.2083333333334V559.8958333333334C167.7858333333333 582.9083333333333 186.4404166666667 601.5625 209.4525 601.5625zM474.9083333333333 227.5708333333335C461.8458333333334 227.5708333333335 451.2541666666666 216.9791666666668 451.2541666666666 203.9125C451.2541666666666 190.8500000000001 461.8458333333334 180.2583333333333 474.9083333333333 180.2583333333333H525.0916666666666C538.1541666666666 180.2583333333333 548.7458333333333 190.8500000000001 548.7458333333333 203.9125C548.7458333333333 216.9791666666668 538.1541666666666 227.5708333333335 525.0916666666666 227.5708333333335H474.9083333333333zM791.525 601.5625H773.375V423.5416666666667H791.525C814.5374999999999 423.5416666666667 833.1916666666666 442.2000000000001 833.1916666666666 465.2083333333334V559.8958333333334C833.1916666666666 582.9083333333333 814.5374999999999 601.5625 791.525 601.5625z" />
    <glyph glyph-name="currency"
      unicode="&#xEA1C;"
      horiz-adv-x="1000" d="M427.2541666666666 799.8770833333333C498.1791666666667 816.1658333333334 572.5166666666667 808.1804166666667 638.3625 777.1995833333333C699.2624999999999 748.5475 749.6374999999999 701.76 782.7041666666667 643.4491666666668L720.5458333333332 660.1041666666667C707.2083333333333 663.6779166666666 693.4999999999999 655.7633333333333 689.9291666666666 642.4266666666667C686.3541666666666 629.09 694.2708333333334 615.3816666666667 707.6041666666667 611.8079166666666L828.3458333333332 579.4541666666667C841.6833333333332 575.8833333333333 855.3916666666665 583.7966666666666 858.9666666666667 597.1333333333334L891.3166666666666 717.8741666666667C894.8916666666665 731.2108333333333 886.975 744.9191666666667 873.6416666666667 748.4925000000001C860.3041666666667 752.0662500000001 846.5958333333333 744.1516666666666 843.0208333333334 730.815L826.2125 668.0870833333333C788.0583333333333 735.3816666666667 729.9291666666667 789.3775 659.65 822.4420833333334C583.675 858.1891666666667 497.9 867.4029166666667 416.0633333333333 848.6083333333333C334.2279166666667 829.81375 261.0679166666667 784.0979166666666 208.30125 718.78375C155.535 653.4691666666668 126.2154166666667 572.3333333333334 125.03875 488.3791666666667C124.8454166666667 474.5708333333333 135.8804166666667 463.225 149.68625 463.0291666666667C163.4920833333333 462.8375000000001 174.8404166666667 473.8708333333334 175.0341666666667 487.6750000000001C176.05375 560.4416666666666 201.46375 630.75625 247.195 687.3620833333334C292.9258333333333 743.9679166666667 356.33125 783.5883333333334 427.2541666666666 799.8770833333333zM572.75 183.2458333333334C501.8249999999999 166.9583333333335 427.4875 174.9416666666667 361.6395833333333 205.9250000000001C300.7420833333333 234.5750000000001 250.3670833333334 281.3625000000001 217.2995833333333 339.6750000000001L279.4575 323.0208333333334C292.7941666666667 319.4458333333334 306.5025 327.3583333333334 310.07625 340.6958333333335C313.6495833333334 354.0333333333334 305.7354166666667 367.7416666666667 292.39875 371.3166666666667L171.6579166666667 403.6666666666668C158.32125 407.2416666666667 144.6129166666667 399.3250000000001 141.0391666666667 385.9916666666667L108.6866666666667 265.25C105.1133333333333 251.9125 113.0279166666667 238.2041666666667 126.3645833333333 234.6291666666667C139.70125 231.0583333333334 153.4095833333333 238.9708333333333 156.9833333333333 252.3083333333333L173.79125 315.0375C211.9458333333333 247.7416666666667 270.0770833333333 193.7458333333333 340.3533333333334 160.6791666666668C416.3295833333334 124.9333333333334 502.1041666666666 115.7208333333334 583.9416666666666 134.5166666666668C665.775 153.3083333333334 738.9375 199.025 791.7041666666667 264.3375000000001C844.4708333333332 329.6541666666667 873.7874999999999 410.7875 874.9666666666666 494.7458333333334C875.1583333333332 508.55 864.125 519.9000000000001 850.3166666666666 520.0916666666667C836.5124999999999 520.2875 825.1624999999999 509.25 824.9708333333332 495.4458333333334C823.9499999999999 422.6833333333333 798.5416666666666 352.3666666666667 752.8083333333333 295.7625C707.0791666666665 239.1541666666667 643.675 199.5333333333333 572.75 183.2458333333334z" />
    <glyph glyph-name="danger-fill"
      unicode="&#xEA1D;"
      horiz-adv-x="1000" d="M500 875C707.1083333333333 875 875 707.1066666666667 875 500C875 292.8916666666667 707.1083333333333 125 500 125C292.8933333333333 125 125 292.8916666666667 125 500C125 707.1066666666667 292.8933333333333 875 500 875zM500.0083333333333 430.0083333333334C512.6666666666666 430.0083333333334 522.925 440.2666666666667 522.925 452.9250000000001V665.0716666666667C522.925 677.7283333333334 512.6666666666666 687.9883333333333 500.0083333333333 687.9883333333333C487.35 687.9883333333333 477.0916666666666 677.7283333333334 477.0916666666666 665.0716666666667V452.9250000000001C477.0916666666666 440.2666666666667 487.35 430.0083333333334 500.0083333333333 430.0083333333334zM524.2833333333333 347.3916666666668C524.2833333333333 361.2000000000001 513.0916666666666 372.3916666666668 499.2833333333332 372.3916666666668C485.475 372.3916666666668 474.2833333333333 361.2000000000001 474.2833333333333 347.3916666666668C474.2833333333333 333.5833333333334 485.475 322.3916666666668 499.2833333333332 322.3916666666668C513.0916666666666 322.3916666666668 524.2833333333333 333.5833333333334 524.2833333333333 347.3916666666668z" />
    <glyph glyph-name="danger"
      unicode="&#xEA1E;"
      horiz-adv-x="1000" d="M500 825C679.4916666666667 825 825 679.4925000000001 825 500C825 320.5083333333334 679.4916666666667 175 500 175C320.5075 175 175 320.5083333333334 175 500C175 679.4925000000001 320.5075 825 500 825zM500 875C707.1083333333333 875 875 707.1066666666667 875 500C875 292.8916666666667 707.1083333333333 125 500 125C292.8933333333333 125 125 292.8916666666667 125 500C125 707.1066666666667 292.8933333333333 875 500 875zM524.2833333333333 347.3875000000001C524.2833333333333 361.1958333333334 513.0916666666666 372.3875000000001 499.2833333333332 372.3875000000001C485.475 372.3875000000001 474.2833333333333 361.1958333333334 474.2833333333333 347.3875000000001C474.2833333333333 333.5791666666668 485.475 322.3875000000001 499.2833333333332 322.3875000000001C513.0916666666666 322.3875000000001 524.2833333333333 333.5791666666668 524.2833333333333 347.3875000000001zM522.925 452.9208333333333C522.925 440.2625000000001 512.6666666666666 430.0041666666667 500.0083333333333 430.0041666666667C487.35 430.0041666666667 477.0916666666666 440.2625000000001 477.0916666666666 452.9208333333333V665.0675C477.0916666666666 677.7241666666666 487.35 687.9841666666666 500.0083333333333 687.9841666666666C512.6666666666666 687.9841666666666 522.925 677.7241666666666 522.925 665.0675V452.9208333333333z" />
    <glyph glyph-name="dm"
      unicode="&#xEA1F;"
      horiz-adv-x="1000" d="M164.7716666666667 686.1916666666667C123.67125 728.69875 154.1416666666667 799.7012500000001 213.2670833333333 799.1966666666667L780.4666666666667 794.35875C832.0291666666666 793.91875 863.5958333333332 737.6120833333333 837.0625 693.3945833333333L549.9 214.7833333333334C519.6666666666666 164.3958333333334 443.7583333333334 174.9291666666667 428.3875 231.6458333333334L359.87625 484.4083333333333L164.7716666666667 686.1916666666667zM411.4870833333333 485.1208333333333L476.6458333333333 244.725C480.4875 230.5458333333335 499.4666666666666 227.9125 507.025 240.5083333333335L782.0291666666666 698.8545833333333L411.4870833333333 485.1208333333333zM761.1333333333332 744.5216666666666L212.8404166666667 749.19875C198.0591666666667 749.3245833333333 190.4416666666666 731.5741666666668 200.7166666666667 720.9475L386.7320833333333 528.5666666666667L761.1333333333332 744.5216666666666z" />
    <glyph glyph-name="download"
      unicode="&#xEA20;"
      horiz-adv-x="1000" d="M267.67375 601.01C257.9104166666667 610.7729166666667 242.08125 610.7729166666667 232.3183333333334 601.01C222.555 591.2466666666667 222.555 575.4166666666667 232.3183333333334 565.6541666666667L499.9958333333333 297.975L767.675 565.6541666666667C777.4375 575.4166666666667 777.4375 591.2466666666667 767.675 601.01C757.9125 610.7729166666667 742.0833333333333 610.7729166666667 732.3166666666667 601.01L524.9958333333333 393.6875L524.9958333333333 833.3320833333333C524.9958333333333 847.1395833333333 513.8041666666667 858.3325 499.9958333333333 858.3325C486.1874999999999 858.3325 474.9958333333333 847.1395833333333 474.9958333333333 833.3320833333333L474.9958333333333 393.6875L267.67375 601.01zM208.3291666666667 100C194.5220833333333 100 183.3291666666667 111.1916666666667 183.3291666666667 125C183.3291666666667 138.8083333333333 194.5220833333333 150.0000000000001 208.3291666666667 150.0000000000001H791.6624999999999C805.4708333333332 150.0000000000001 816.6625 138.8083333333333 816.6625 125C816.6625 111.1916666666667 805.4708333333332 100 791.6624999999999 100H208.3291666666667z" />
    <glyph glyph-name="drag"
      unicode="&#xEA21;"
      horiz-adv-x="1000" d="M379.0079166666667 656.25C350.2433333333333 656.25 326.9245833333333 679.5683333333334 326.9245833333333 708.3333333333334C326.9245833333333 737.0983333333334 350.2433333333333 760.4166666666667 379.0079166666667 760.4166666666667C407.7729166666667 760.4166666666667 431.0916666666667 737.0983333333334 431.0916666666667 708.3333333333334C431.0916666666667 679.5683333333334 407.7729166666667 656.25 379.0079166666667 656.25zM379.0079166666667 447.9166666666668C350.2429166666667 447.9166666666668 326.9245833333333 471.2333333333333 326.9245833333333 500C326.9245833333333 528.7666666666667 350.2429166666667 552.0833333333334 379.0079166666667 552.0833333333334C407.7729166666667 552.0833333333334 431.0916666666667 528.7666666666667 431.0916666666667 500C431.0916666666667 471.2333333333333 407.7729166666667 447.9166666666668 379.0079166666667 447.9166666666668zM326.9245833333333 291.6666666666668C326.9245833333333 262.9 350.2429166666667 239.5833333333334 379.0079166666667 239.5833333333334C407.7729166666667 239.5833333333334 431.0916666666667 262.9 431.0916666666667 291.6666666666668C431.0916666666667 320.4333333333334 407.7729166666667 343.75 379.0079166666667 343.75C350.2429166666667 343.75 326.9245833333333 320.4333333333334 326.9245833333333 291.6666666666668zM620.9916666666667 656.25C592.2291666666666 656.25 568.9083333333333 679.5683333333334 568.9083333333333 708.3333333333334C568.9083333333333 737.0983333333334 592.2291666666666 760.4166666666667 620.9916666666667 760.4166666666667C649.7583333333333 760.4166666666667 673.0749999999999 737.0983333333334 673.0749999999999 708.3333333333334C673.0749999999999 679.5683333333334 649.7583333333333 656.25 620.9916666666667 656.25zM620.9916666666667 447.9166666666668C592.2291666666666 447.9166666666668 568.9083333333333 471.2333333333333 568.9083333333333 500C568.9083333333333 528.7666666666667 592.2291666666666 552.0833333333334 620.9916666666667 552.0833333333334C649.7583333333333 552.0833333333334 673.0749999999999 528.7666666666667 673.0749999999999 500C673.0749999999999 471.2333333333333 649.7583333333333 447.9166666666668 620.9916666666667 447.9166666666668zM568.9083333333333 291.6666666666668C568.9083333333333 262.9 592.2291666666666 239.5833333333334 620.9916666666667 239.5833333333334C649.7583333333333 239.5833333333334 673.0749999999999 262.9 673.0749999999999 291.6666666666668C673.0749999999999 320.4333333333334 649.7583333333333 343.75 620.9916666666667 343.75C592.2291666666666 343.75 568.9083333333333 320.4333333333334 568.9083333333333 291.6666666666668z" />
    <glyph glyph-name="edit"
      unicode="&#xEA22;"
      horiz-adv-x="1000" d="M614.65 723.2825C607.1958333333333 717.5945833333333 598.1458333333333 708.6191666666666 583.7583333333333 694.2304166666667L284.0041666666666 394.4791666666667C274.955 385.4291666666667 273.8570833333333 384.0375 273.125 382.7416666666667C272.3929166666666 381.4500000000001 271.7641666666667 379.7916666666668 268.6604166666667 367.3791666666667L242.6975 263.5250000000001L346.5487500000001 289.4875000000001C358.96375 292.5916666666668 360.62125 293.2208333333333 361.9145833333334 293.9541666666667C363.2075 294.6875000000001 364.5995833333333 295.7833333333334 373.64875 304.8333333333334L673.4 604.5858333333333C687.7916666666667 618.9741666666666 696.7666666666667 628.025 702.4541666666665 635.48C707.6999999999999 642.3579166666666 707.7458333333333 644.8679166666666 707.7458333333333 645.8333333333334C707.7458333333333 646.7991666666667 707.6999999999999 649.3091666666667 702.4541666666665 656.1870833333334C696.7666666666667 663.6420833333334 687.7916666666667 672.6929166666666 673.4 687.08125L666.2541666666666 694.2304166666667C651.8625 708.6187500000001 642.8125 717.5945833333333 635.3583333333332 723.2825C628.4791666666666 728.53 625.9708333333333 728.5745833333333 625.0041666666666 728.5745833333333C624.0375 728.5745833333333 621.5291666666667 728.53 614.65 723.2825zM221.9316666666667 258.7458333333334C221.9325 258.7458333333334 221.9645833333333 258.7458333333334 222.0254166666667 258.7500000000001L221.9316666666667 258.7458333333334zM237.9208333333333 242.8541666666667C237.9191666666667 242.7916666666668 237.9166666666667 242.7625000000001 237.9158333333333 242.7583333333334L237.9208333333333 242.8541666666667zM584.3208333333333 763.0333333333333C595.6458333333334 771.6745833333334 608.7125 778.5745833333333 625.0041666666666 778.5745833333333C641.3 778.5745833333333 654.3625 771.6745833333334 665.6875 763.0333333333333C676.1374999999999 755.06125 687.5625 743.63375 700.4916666666667 730.7029166666666L709.8749999999999 721.31875C722.8041666666667 708.3904166666666 734.2333333333333 696.9649999999999 742.2041666666665 686.51625C750.8458333333332 675.1908333333333 757.7458333333333 662.1270833333333 757.7458333333333 645.8333333333334C757.7458333333333 629.54 750.8458333333332 616.4762499999999 742.2041666666665 605.1508333333334C734.2333333333333 594.7020833333333 722.8041666666667 583.2750000000001 709.8749999999999 570.35L409.0041666666667 269.4791666666668C408.5120833333333 268.9875000000001 408.0225 268.4958333333334 407.5341666666667 268.0041666666666C400.9020833333334 261.3541666666668 394.5266666666667 254.9583333333334 386.5495833333333 250.4416666666667C378.5725 245.9291666666667 369.8095833333333 243.7500000000001 360.6941666666667 241.4833333333334C360.0229166666666 241.3166666666667 359.35 241.1500000000001 358.6754166666667 240.9833333333334L248.0870833333333 213.3333333333334C247.6858333333334 213.2333333333334 247.2804166666667 213.1333333333335 246.8716666666667 213.0291666666667C240.4520833333333 211.4208333333335 233.1908333333334 209.6 227.0129166666667 208.9958333333333C220.1329166666667 208.3250000000001 207.6645833333333 208.3875000000001 197.61125 218.4416666666667C187.5575 228.4916666666667 187.4958333333333 240.9625000000001 188.16875 247.8416666666667C188.7733333333334 254.0208333333334 190.5929166666667 261.2791666666668 192.2016666666667 267.7000000000001C192.3041666666667 268.1083333333334 192.4058333333333 268.5125 192.50625 268.9166666666668L220.1533333333333 379.5041666666667C220.3216666666667 380.1791666666667 220.4891666666667 380.85 220.6558333333333 381.5208333333334C222.9208333333333 390.6375000000001 225.09875 399.4 229.615 407.3791666666667C234.1316666666667 415.3541666666668 240.525 421.7291666666667 247.17625 428.3625000000001C247.6658333333333 428.85 248.1570833333334 429.3416666666667 248.64875 429.8333333333334L549.5208333333333 730.7033333333334C562.4499999999999 743.6341666666667 573.875 755.0616666666667 584.3208333333333 763.0333333333333zM541.6666666666666 680.5554166666667L645.8333333333333 750L750 645.8333333333334L680.5541666666667 541.6666666666667L541.6666666666666 680.5554166666667z" />
    <glyph glyph-name="ellipse-stroke"
      unicode="&#xEA23;"
      horiz-adv-x="1000" d="M500 258.3333333333334C633.4708333333333 258.3333333333334 741.6666666666666 366.5291666666667 741.6666666666666 500C741.6666666666666 633.46875 633.4708333333333 741.6666666666667 500 741.6666666666667C366.53125 741.6666666666667 258.3333333333333 633.46875 258.3333333333333 500C258.3333333333333 366.5291666666667 366.53125 258.3333333333334 500 258.3333333333334zM500 208.3333333333334C661.0833333333333 208.3333333333334 791.6666666666666 338.9166666666668 791.6666666666666 500C791.6666666666666 661.0829166666667 661.0833333333333 791.6666666666667 500 791.6666666666667C338.9170833333333 791.6666666666667 208.3333333333333 661.0829166666667 208.3333333333333 500C208.3333333333333 338.9166666666668 338.9170833333333 208.3333333333334 500 208.3333333333334z" />
    <glyph glyph-name="ellipse"
      unicode="&#xEA24;"
      horiz-adv-x="1000" d="M208.3333333333333 500A291.6666666666667 291.6666666666667 0 0 1 791.6666666666666 500A291.6666666666667 291.6666666666667 0 0 1 208.3333333333333 500" />
    <glyph glyph-name="email"
      unicode="&#xEA25;"
      horiz-adv-x="1000" d="M398.77375 823.46375C465.4291666666666 843.6841666666667 536.7416666666667 842.5179166666667 602.6999999999999 820.12875C668.6583333333332 797.7395833333333 725.9458333333332 755.2520833333333 766.5166666666667 698.63375C807.0875 642.0154166666666 828.9041666666666 574.1125000000001 828.9041666666666 504.4583333333333C828.9041666666666 504.2291666666667 828.9 504.0041666666667 828.8916666666667 503.7791666666667V453.0708333333333C828.8916666666667 423.725 817.2333333333333 395.5791666666667 796.4833333333333 374.8291666666668C775.7333333333332 354.0750000000001 747.5875 342.4166666666668 718.2375 342.4166666666668C688.8916666666667 342.4166666666668 660.7458333333333 354.0750000000001 639.9958333333333 374.8291666666668C632.1291666666666 382.6916666666667 625.5708333333333 391.6166666666667 620.4583333333333 401.2666666666667C590.7375 365.3250000000001 545.8041666666666 342.4250000000001 495.5208333333333 342.4250000000001C406.0266666666667 342.4250000000001 333.4758333333333 414.975 333.4758333333333 504.4708333333334C333.4758333333333 593.9691666666668 406.0266666666667 666.5204166666667 495.5208333333333 666.5204166666667C540.4166666666666 666.5204166666667 581.0458333333333 648.2645833333333 610.3916666666667 618.7720833333333C614.5583333333333 626.7808333333334 622.9333333333333 632.2504166666668 632.5833333333333 632.2504166666668C646.3916666666667 632.2504166666668 657.5833333333333 621.0575 657.5833333333333 607.2504166666668V453.0708333333333C657.5833333333333 436.9833333333334 663.9749999999999 421.5583333333334 675.35 410.1833333333334C686.725 398.8083333333334 702.1541666666667 392.4166666666667 718.2375 392.4166666666667C734.3249999999999 392.4166666666667 749.7541666666666 398.8083333333334 761.1291666666666 410.1833333333334C772.5041666666666 421.5583333333334 778.8916666666667 436.9833333333334 778.8916666666667 453.0708333333333V504.4666666666667C778.8916666666667 504.6833333333333 778.8958333333333 504.9 778.9 505.1166666666667C778.7666666666667 564.0916666666667 760.2291666666666 621.5620833333334 725.8708333333333 669.51C691.3874999999999 717.63625 642.6916666666666 753.75125 586.6291666666666 772.7820833333334C530.5625 791.8133333333333 469.9458333333333 792.8045833333333 413.28875 775.6170833333333C356.6316666666667 758.4291666666667 306.7820833333334 723.92625 270.7408333333333 676.9533333333334C234.6995833333333 629.9808333333334 214.2770833333333 572.9 212.3420833333333 513.725C210.4070833333333 454.5500000000001 227.0570833333333 396.2541666666667 259.9529166666667 347.025C292.8483333333333 297.8000000000001 340.3379166666667 260.1125 395.7508333333334 239.2625000000001C451.1625 218.4083333333334 511.7166666666666 215.4375000000001 568.9041666666667 230.7666666666667C582.2416666666667 234.3416666666666 595.9499999999999 226.4291666666667 599.525 213.0916666666667C603.0999999999999 199.7541666666667 595.1833333333333 186.0458333333334 581.8499999999999 182.4708333333334C514.5708333333333 164.4375000000001 443.3333333333333 167.9333333333334 378.14125 192.4666666666667C312.95 216.9958333333333 257.08125 261.3333333333333 218.3804166666667 319.2458333333334C179.68 377.1583333333334 160.0925 445.7416666666668 162.36875 515.3583333333333C164.6454166666667 584.9741666666666 188.67125 652.1291666666666 231.0720833333333 707.3904166666666C273.4733333333334 762.6516666666666 332.1191666666667 803.2433333333333 398.77375 823.46375zM495.5208333333333 616.5204166666667C433.6416666666667 616.5204166666667 383.4758333333333 566.3541666666667 383.4758333333333 504.4708333333334C383.4758333333333 442.5916666666667 433.6416666666667 392.4250000000001 495.5208333333333 392.4250000000001C557.4041666666667 392.4250000000001 607.5708333333333 442.5916666666667 607.5708333333333 504.4708333333334C607.5708333333333 566.3541666666667 557.4041666666667 616.5204166666667 495.5208333333333 616.5204166666667z" />
    <glyph glyph-name="excel"
      unicode="&#xEA26;"
      horiz-adv-x="1000" d="M821.5291666666666 470.9291666666667H688.9958333333334V538.7583333333333H821.5291666666666V470.9291666666667zM821.5291666666666 432.1708333333334H688.9958333333334V364.3416666666667H821.5291666666666V432.1708333333334zM821.5291666666666 751.9383333333334H688.9958333333334V684.1091666666666H821.5291666666666V751.9383333333334zM821.5291666666666 645.3491666666666H688.9958333333334V577.5208333333334H821.5291666666666V645.3491666666666zM821.5291666666666 325.5833333333334H688.9958333333334V257.75H821.5291666666666V325.5833333333334zM913.0666666666666 191.8583333333335C909.2833333333334 171.7041666666667 885.6166666666666 171.2208333333334 869.8041666666666 170.5416666666668H575.4V83.3333333333334H516.6125L83.3333333333333 160.8541666666666V839.05L519.1708333333333 916.6666666666666H575.4V839.4379166666668H859.6791666666667C875.675 838.76 893.2833333333333 839.9229166666667 907.2 830.1366666666667C916.95 815.7954166666667 916.0041666666668 797.5775 916.6666666666666 781.1054166666667L916.2875 276.6458333333335C915.8166666666668 248.4500000000002 918.8416666666666 219.6708333333334 913.0666666666666 191.8583333333335zM430.4666666666667 343.8958333333334C404.3408333333333 398.1583333333333 377.7408333333334 452.0333333333334 351.7075 506.3C377.4558333333333 559.1083333333333 402.8270833333333 612.1120833333334 428.1041666666667 665.1166666666667C406.6129166666667 664.0504166666667 385.12375 662.6941666666667 363.7304166666667 661.1429166666667C347.73125 621.3183333333334 329.0820833333333 582.5583333333334 316.5866666666667 541.375C304.9429166666667 580.2333333333333 289.5133333333333 617.6366666666668 275.4083333333333 655.5237500000001C254.5816666666667 654.3608333333334 233.755 653.1012499999999 212.9295833333334 651.8416666666667C234.8908333333333 602.2275 258.2745833333334 553.2958333333333 279.5733333333333 503.3916666666667C254.4870833333333 454.9416666666667 231.0108333333333 405.8125 206.68125 357.0750000000001C227.4120833333334 356.2000000000001 248.1445833333333 355.3291666666668 268.8754166666667 355.0375C283.6441666666667 393.6041666666668 302.0083333333334 430.7166666666667 314.8829166666667 470.0583333333334C326.4320833333333 427.8083333333334 346.0270833333334 388.7583333333334 362.1208333333333 348.3541666666668C384.935 346.7041666666667 407.6529166666667 345.25 430.4666666666667 343.8958333333334zM871.5166666666665 793.4175H575.4V751.9383333333334H651.1333333333333V684.1091666666666H575.4V645.3491666666666H651.1333333333333V577.5208333333334H575.4V538.7583333333333H651.1333333333333V470.9291666666667H575.4V432.1708333333334H651.1333333333333V364.3416666666667H575.4V325.5833333333334H651.1333333333333V257.75H575.4V212.9416666666668H871.5166666666665V793.4175z" />
    <glyph glyph-name="exchange-horizontally"
      unicode="&#xEA27;"
      horiz-adv-x="1000" d="M677.8875 496.775C668.1625 486.975 668.225 471.1458333333334 678.025 461.4208333333333C687.8249999999999 451.6958333333333 703.6541666666666 451.7541666666667 713.3791666666666 461.5583333333334L892.7416666666666 642.3120833333334C897.4499999999999 647.05875 900.0625 653.4941666666666 899.9958333333334 660.1804166666666C899.9249999999998 666.8666666666667 897.1791666666666 673.2466666666667 892.375 677.8945833333333L713.0125 851.3054166666667C703.0833333333333 860.9025 687.2583333333332 860.6358333333334 677.6624999999999 850.7091666666666C668.0625 840.7829166666667 668.3291666666667 824.9558333333333 678.2583333333332 815.3591666666666L813.1708333333333 684.9212500000001H520.8291666666667H124.9958333333333C111.18875 684.9212500000001 99.9958333333333 673.7283333333334 99.9958333333333 659.9212500000001C99.9958333333333 646.1141666666667 111.18875 634.9212500000001 124.9958333333333 634.9212500000001H520.8291666666667H814.9708333333333L677.8875 496.775zM322.10375 163.4416666666667C331.8291666666667 153.6416666666668 331.7679166666667 137.8125000000001 321.9670833333334 128.0875000000001C312.16625 118.3625 296.3370833333334 118.4208333333334 286.6120833333333 128.2250000000001L107.25 308.9791666666668C102.54 313.725 99.9279166666667 320.1625000000002 99.9970833333333 326.8458333333334C100.0666666666667 333.5333333333333 102.8116666666667 339.9125 107.61875 344.5625000000001L286.9808333333334 517.9708333333333C296.9075 527.5708333333333 312.7341666666667 527.3041666666668 322.33125 517.375C331.9283333333334 507.45 331.66125 491.6208333333333 321.735 482.025L186.8208333333333 351.5875000000001H479.1625H874.9958333333333C888.8041666666666 351.5875000000001 899.9958333333334 340.3958333333334 899.9958333333334 326.5875000000001C899.9958333333334 312.7791666666667 888.8041666666666 301.5875 874.9958333333333 301.5875H479.1625H185.0225L322.10375 163.4416666666667z" />
    <glyph glyph-name="exchange-vertical"
      unicode="&#xEA28;"
      horiz-adv-x="1000" d="M867.8041666666667 311.6916666666667C877.6041666666666 321.4166666666667 893.4333333333333 321.3541666666667 903.1583333333332 311.5541666666667C912.8833333333332 301.7541666666667 912.8208333333332 285.9250000000001 903.0208333333331 276.2L722.2666666666665 96.8375000000001C717.5208333333334 92.125 711.0833333333333 89.5125000000001 704.3958333333333 89.5833333333334C697.7125 89.6541666666668 691.3333333333333 92.4000000000001 686.6833333333333 97.2041666666667L513.2708333333333 276.5666666666667C503.675 286.4916666666668 503.9416666666666 302.3208333333335 513.8708333333333 311.9166666666668C523.7958333333332 321.5166666666668 539.6208333333333 321.2458333333334 549.2208333333333 311.3208333333334L679.6583333333334 176.4083333333333V468.75V864.5825C679.6583333333334 878.3895833333333 690.85 889.5825 704.6583333333333 889.5825C718.4624999999999 889.5825 729.6583333333333 878.3895833333333 729.6583333333333 864.5825V468.75V174.6083333333334L867.8041666666667 311.6916666666667zM461.5541666666666 667.4741666666666C471.3541666666666 657.7491666666667 487.1833333333333 657.8104166666667 496.9083333333333 667.6112499999999C506.6333333333333 677.4120833333334 506.5708333333333 693.2408333333333 496.7708333333333 702.9662500000001L316.01625 882.3283333333334C311.2695833333333 887.0383333333333 304.8341666666667 889.6504166666666 298.1479166666666 889.5808333333333C291.46125 889.5116666666667 285.0816666666667 886.7666666666667 280.43375 881.9591666666666L107.0225 702.5975000000001C97.4254166666667 692.6708333333333 97.6925 676.8441666666668 107.6191666666667 667.2470833333334C117.5454166666667 657.6500000000001 133.3720833333333 657.9170833333334 142.9691666666667 667.8433333333334L273.4070833333334 802.7575V510.4166666666667V114.5833333333334C273.4070833333334 100.7750000000001 284.6 89.5833333333334 298.4070833333334 89.5833333333334C312.2141666666667 89.5833333333334 323.4070833333334 100.7750000000001 323.4070833333334 114.5833333333334V510.4166666666667V804.5558333333333L461.5541666666666 667.4741666666666z" />
    <glyph glyph-name="expand-down-double"
      unicode="&#xEA29;"
      horiz-adv-x="1000" d="M732.3 767.6716666666666C742.0625 777.4345833333333 757.8916666666665 777.4345833333333 767.6541666666666 767.6716666666666C777.4166666666666 757.9083333333333 777.4166666666666 742.0791666666667 767.6541666666666 732.3162500000001L499.975 464.6375L232.2979166666667 732.3162500000001C222.535 742.0791666666667 222.535 757.9083333333333 232.2979166666667 767.6716666666666C242.06125 777.4345833333333 257.89 777.4345833333333 267.6533333333333 767.6716666666666L499.975 535.35L732.3 767.6716666666666zM732.3 517.6708333333333C742.0625 527.4333333333334 757.8916666666665 527.4333333333334 767.6541666666666 517.6708333333333C777.4166666666666 507.9083333333334 777.4166666666666 492.0791666666667 767.6541666666666 482.3166666666667L499.975 214.6375000000001L232.2979166666667 482.3166666666667C222.535 492.0791666666667 222.535 507.9083333333334 232.2979166666667 517.6708333333333C242.06125 527.4333333333334 257.89 527.4333333333334 267.6533333333333 517.6708333333333L499.975 285.3500000000002L732.3 517.6708333333333z" />
    <glyph glyph-name="expand-down"
      unicode="&#xEA2A;"
      horiz-adv-x="1000" d="M767.6833333333333 642.6733333333334C757.9166666666666 652.43625 742.0874999999999 652.43625 732.325 642.6733333333334L500.0041666666666 410.35L267.6816666666667 642.6733333333334C257.91875 652.43625 242.0895833333334 652.43625 232.32625 642.6733333333334C222.5633333333333 632.9100000000001 222.5633333333333 617.0812500000001 232.32625 607.3179166666666L500.0041666666666 339.6416666666668L767.6833333333333 607.3179166666666C777.4458333333333 617.0812500000001 777.4458333333333 632.9100000000001 767.6833333333333 642.6733333333334z" />
    <glyph glyph-name="expand-left-double"
      unicode="&#xEA2B;"
      horiz-adv-x="1000" d="M517.675 267.6833333333333C527.4375 257.9166666666668 527.4375 242.0875 517.675 232.3250000000001C507.9083333333333 222.5625 492.0791666666667 222.5625 482.3166666666666 232.3250000000001L232.3179166666667 482.325L214.6404166666667 500.0041666666667L232.3179166666667 517.6833333333334L482.3166666666666 767.6816666666666C492.0791666666667 777.445 507.9083333333333 777.445 517.675 767.6816666666666C527.4375 757.91875 527.4375 742.0895833333334 517.675 732.3262500000001L285.3508333333333 500.0041666666667L517.675 267.6833333333333zM767.675 267.6833333333333C777.4375 257.9166666666668 777.4375 242.0875 767.675 232.3250000000001C757.9083333333334 222.5625 742.0791666666665 222.5625 732.3166666666667 232.3250000000001L482.3166666666666 482.325L464.6416666666667 500.0041666666667L482.3166666666666 517.6833333333334L732.3166666666667 767.6816666666666C742.0791666666665 777.445 757.9083333333334 777.445 767.675 767.6816666666666C777.4375 757.91875 777.4375 742.0895833333334 767.675 732.3262500000001L535.3499999999999 500.0041666666667L767.675 267.6833333333333z" />
    <glyph glyph-name="expand-left"
      unicode="&#xEA2C;"
      horiz-adv-x="1000" d="M642.675 767.6816666666666C652.4375 757.91875 652.4375 742.0895833333334 642.675 732.3262500000001L410.3508333333334 500.0041666666667L642.675 267.6833333333333C652.4375 257.9166666666668 652.4375 242.0875 642.675 232.3250000000001C632.9083333333333 222.5625 617.0791666666667 222.5625 607.3166666666666 232.3250000000001L339.6404166666666 500.0041666666667L607.3166666666666 767.6816666666666C617.0791666666667 777.445 632.9083333333333 777.445 642.675 767.6816666666666z" />
    <glyph glyph-name="expand-right-double"
      unicode="&#xEA2D;"
      horiz-adv-x="1000" d="M232.33875 267.6833333333333C222.5754166666667 257.9166666666668 222.5754166666667 242.0875 232.33875 232.3250000000001C242.1016666666667 222.5625 257.9308333333334 222.5625 267.69375 232.3250000000001L517.6958333333333 482.325L535.3708333333333 500.0041666666667L517.6958333333333 517.6833333333334L267.6941666666667 767.6816666666666C257.9308333333334 777.445 242.1016666666667 777.445 232.33875 767.6816666666666C222.5754166666667 757.91875 222.5754166666667 742.0895833333334 232.33875 732.3262500000001L464.6625 500.0041666666667L232.33875 267.6833333333333zM482.3375 267.6833333333333C472.5749999999999 257.9166666666668 472.5749999999999 242.0875 482.3375 232.3250000000001C492.1 222.5625 507.9291666666667 222.5625 517.6958333333333 232.3250000000001L767.6958333333333 482.325L785.3708333333333 500.0041666666667L767.6958333333333 517.6833333333334L517.6958333333333 767.6816666666666C507.9291666666667 777.445 492.1 777.445 482.3375 767.6816666666666C472.5749999999999 757.91875 472.5749999999999 742.0895833333334 482.3375 732.3262500000001L714.6625 500.0041666666667L482.3375 267.6833333333333z" />
    <glyph glyph-name="expand-right"
      unicode="&#xEA2E;"
      horiz-adv-x="1000" d="M357.3266666666666 767.6816666666666C347.5637500000001 757.91875 347.5637500000001 742.0895833333334 357.3266666666666 732.3262500000001L589.65 500.0041666666667L357.3266666666666 267.6833333333333C347.5637500000001 257.9166666666668 347.5637500000001 242.0875 357.3266666666666 232.3250000000001C367.09 222.5625 382.91875 222.5625 392.6820833333333 232.3250000000001L660.3583333333332 500.0041666666667L392.6820833333333 767.6816666666666C382.91875 777.445 367.09 777.445 357.3266666666666 767.6816666666666z" />
    <glyph glyph-name="expand-up-double"
      unicode="&#xEA2F;"
      horiz-adv-x="1000" d="M732.3166666666667 482.325C742.0833333333333 472.5625 757.9125 472.5625 767.675 482.325C777.4375 492.0916666666667 777.4375 507.9208333333333 767.675 517.6833333333334L499.9958333333333 785.3595833333334L232.3183333333334 517.6833333333334C222.555 507.9208333333333 222.555 492.0916666666667 232.3183333333334 482.325C242.08125 472.5625 257.9104166666667 472.5625 267.67375 482.325L499.9958333333333 714.6491666666667L732.3166666666667 482.325zM732.3166666666667 232.3250000000001C742.0833333333333 222.5625 757.9125 222.5625 767.675 232.3250000000001C777.4375 242.0916666666666 777.4375 257.9208333333335 767.675 267.6833333333333L499.9958333333333 535.3583333333333L232.3183333333334 267.6833333333333C222.555 257.9208333333335 222.555 242.0916666666666 232.3183333333334 232.3250000000001C242.08125 222.5625 257.9104166666667 222.5625 267.67375 232.3250000000001L499.9958333333333 464.6500000000001L732.3166666666667 232.3250000000001z" />
    <glyph glyph-name="expand-up"
      unicode="&#xEA30;"
      horiz-adv-x="1000" d="M767.6833333333333 357.3250000000001C757.9166666666666 347.5625 742.0874999999999 347.5625 732.325 357.3250000000001L500.0041666666666 589.6491666666666L267.6816666666667 357.3250000000001C257.91875 347.5625 242.0895833333334 347.5625 232.32625 357.3250000000001C222.5633333333333 367.0916666666667 222.5633333333333 382.9208333333334 232.32625 392.6833333333334L500.0041666666666 660.3595833333334L767.6833333333333 392.6833333333334C777.4458333333333 382.9208333333334 777.4458333333333 367.0916666666667 767.6833333333333 357.3250000000001z" />
    <glyph glyph-name="export"
      unicode="&#xEA31;"
      horiz-adv-x="1000" d="M306.3979166666667 568.6C298.2620833333333 560.4625000000001 285.07125 560.4625000000001 276.9354166666667 568.6C268.7991666666666 576.7333333333333 268.7991666666666 589.9258333333333 276.9354166666667 598.0616666666667L485.2666666666667 806.395L500 821.12625L514.7333333333333 806.395L723.0666666666666 598.0616666666667C731.1999999999999 589.9258333333333 731.1999999999999 576.7333333333333 723.0666666666666 568.6C714.9291666666667 560.4625000000001 701.7375 560.4625000000001 693.5999999999999 568.6L520.8333333333333 741.3675000000001V416.6625C520.8333333333333 405.1583333333334 511.5041666666666 395.8291666666668 500 395.8291666666668C488.4958333333333 395.8291666666668 479.1666666666666 405.1583333333334 479.1666666666666 416.6625L479.1666666666666 741.3675000000001L306.3979166666667 568.6zM229.1666666666667 333.3291666666668C229.1666666666667 344.8375 219.8391666666667 354.1625 208.3333333333333 354.1625C196.8275 354.1625 187.5 344.8375 187.5 333.3291666666668V291.6625C187.5 234.1333333333334 234.1370833333333 187.4958333333334 291.6666666666667 187.4958333333334L708.3333333333333 187.4958333333334C765.8625 187.4958333333334 812.5 234.1333333333334 812.5 291.6625V333.3291666666668C812.5 344.8375 803.1708333333332 354.1625 791.6666666666666 354.1625C780.1625 354.1625 770.8333333333333 344.8375 770.8333333333333 333.3291666666668V291.6625C770.8333333333333 257.1458333333335 742.8499999999999 229.1625 708.3333333333333 229.1625L291.6666666666667 229.1625C257.14875 229.1625 229.1666666666667 257.1458333333335 229.1666666666667 291.6625V333.3291666666668z" />
    <glyph glyph-name="facebook"
      unicode="&#xEA32;"
      horiz-adv-x="1000" d="M250 916.6666666666666C157.9525 916.6666666666666 83.3333333333333 842.0475 83.3333333333333 750V250C83.3333333333333 157.9541666666668 157.9525 83.3333333333334 250 83.3333333333334H439.1541666666667H750C842.0458333333332 83.3333333333334 916.6666666666666 157.9541666666668 916.6666666666666 250V750C916.6666666666666 842.0475 842.0458333333332 916.6666666666666 750 916.6666666666666H250zM439.1541666666667 83.3333333333334L504.2541666666667 83.3333333333334H569.3541666666666V379.5291666666667H666.4458333333333L684.9 500H569.3541666666666V578.1666666666667C569.3541666666666 611.0958333333333 585.4666666666666 643.2641666666667 637.2624999999999 643.2641666666667H689.825V745.8050000000001C689.825 745.8050000000001 642.1291666666666 753.9495833333333 596.5416666666666 753.9495833333333C501.3833333333333 753.9495833333333 439.1541666666667 696.2925 439.1541666666667 591.8179166666666V500H333.3333333333333V379.5291666666667H439.1541666666667V83.3333333333334z" />
    <glyph glyph-name="favorite-fill"
      unicode="&#xEA33;"
      horiz-adv-x="1000" d="M844.2749999999999 743.3508333333334C751.925 862.3820833333333 567.6083333333333 843.99875 500.0041666666666 710.6733333333334C432.4041666666667 843.99875 248.0858333333333 862.3816666666667 155.7341666666667 743.3508333333334L142.8441666666667 726.7370833333334C66.3879166666667 628.1933333333334 77.4270833333333 487.6666666666667 168.3333333333333 402.2666666666668L458.6708333333333 129.525C463.0958333333333 125.3708333333334 467.6291666666667 121.1083333333335 471.85 117.8583333333335C476.6125 114.1916666666667 482.9083333333333 110.2291666666666 491.1791666666666 108.6083333333334C497.0083333333333 107.4625000000001 503.0041666666667 107.4625000000001 508.8333333333333 108.6083333333334C517.0999999999999 110.2291666666666 523.4 114.1916666666667 528.1625 117.8583333333335C532.3833333333333 121.1083333333335 536.9124999999999 125.3666666666668 541.3375 129.525L541.3375 129.525L831.6791666666667 402.2666666666668C922.5833333333331 487.6666666666667 933.6208333333332 628.1937500000001 857.1666666666666 726.7375L844.2749999999999 743.3508333333334z" />
    <glyph glyph-name="favorite"
      unicode="&#xEA34;"
      horiz-adv-x="1000" d="M466.2208333333333 665.5154166666666C412.4566666666667 778.1675 258.86625 794.7075 182.34875 696.085C121.7016666666667 617.9175 130.4583333333333 506.4458333333334 202.5670833333333 438.7083333333334L492.2583333333333 166.5750000000002C494.8041666666666 164.1833333333334 496.8 162.3083333333333 498.5541666666666 160.7208333333333C499.0875 160.2375000000001 499.5708333333333 159.8083333333334 500.0041666666666 159.4291666666667C500.4416666666667 159.8083333333334 500.9208333333333 160.2375000000001 501.4583333333333 160.7208333333333C503.2083333333333 162.3083333333333 505.2083333333333 164.1833333333334 507.7499999999999 166.5750000000002L797.4416666666666 438.7083333333334C869.5541666666666 506.4458333333334 878.3083333333333 617.9175 817.6624999999999 696.0845833333333C741.1458333333334 794.7075 587.5541666666667 778.1675 533.7875 665.5154166666666L527.1291666666666 651.56625C516.2416666666666 628.7529166666667 483.7666666666667 628.7529166666667 472.8791666666667 651.56625L466.2208333333333 665.5154166666666zM500.0041666666666 707.9329166666666C421.975 835.0533333333333 237.2354166666667 848.3941666666667 142.8441666666667 726.7345833333334C66.3879166666667 628.1908333333333 77.4270833333333 487.6625 168.3329166666667 402.2666666666668L458.675 129.5208333333334C463.0958333333333 125.3666666666668 467.6291666666667 121.1083333333335 471.85 117.8541666666666C476.6125 114.1875000000001 482.9083333333333 110.2291666666666 491.1791666666666 108.6041666666667C497.0083333333333 107.4625000000001 503.0041666666667 107.4625000000001 508.8333333333333 108.6041666666667C517.0999999999999 110.2291666666666 523.4 114.1875000000001 528.1625 117.8541666666666C532.3833333333333 121.1083333333335 536.9166666666666 125.3666666666668 541.3375 129.5208333333334L831.6791666666667 402.2666666666668C922.5833333333331 487.6625 933.6208333333332 628.1908333333333 857.1666666666666 726.7345833333334C762.775 848.3941666666667 578.0333333333333 835.0533333333333 500.0041666666666 707.9329166666666z" />
    </font>
</defs>
</svg>
